<svg id="my-svg" width="1478.234375" xmlns="http://www.w3.org/2000/svg" xmlns:xlink="http://www.w3.org/1999/xlink" height="285" viewBox="-8 -8 1478.234375 285" role="graphics-document document" aria-roledescription="flowchart-v2" style="background-color: transparent;"><style>#my-svg{font-family:'Noto Sans Tamil','Latha','Arial Unicode MS',sans-serif;font-size:16px;fill:#333;}#my-svg .error-icon{fill:#552222;}#my-svg .error-text{fill:#552222;stroke:#552222;}#my-svg .edge-thickness-normal{stroke-width:2px;}#my-svg .edge-thickness-thick{stroke-width:3.5px;}#my-svg .edge-pattern-solid{stroke-dasharray:0;}#my-svg .edge-pattern-dashed{stroke-dasharray:3;}#my-svg .edge-pattern-dotted{stroke-dasharray:2;}#my-svg .marker{fill:#333333;stroke:#333333;}#my-svg .marker.cross{stroke:#333333;}#my-svg svg{font-family:'Noto Sans Tamil','Latha','Arial Unicode MS',sans-serif;font-size:16px;}#my-svg .label{font-family:'Noto Sans Tamil','Latha','Arial Unicode MS',sans-serif;color:#333;}#my-svg .cluster-label text{fill:#333;}#my-svg .cluster-label span,#my-svg p{color:#333;}#my-svg .label text,#my-svg span,#my-svg p{fill:#333;color:#333;}#my-svg .node rect,#my-svg .node circle,#my-svg .node ellipse,#my-svg .node polygon,#my-svg .node path{fill:#ECECFF;stroke:#9370DB;stroke-width:1px;}#my-svg .flowchart-label text{text-anchor:middle;}#my-svg .node .katex path{fill:#000;stroke:#000;stroke-width:1px;}#my-svg .node .label{text-align:center;}#my-svg .node.clickable{cursor:pointer;}#my-svg .arrowheadPath{fill:#333333;}#my-svg .edgePath .path{stroke:#333333;stroke-width:2.0px;}#my-svg .flowchart-link{stroke:#333333;fill:none;}#my-svg .edgeLabel{background-color:#e8e8e8;text-align:center;}#my-svg .edgeLabel rect{opacity:0.5;background-color:#e8e8e8;fill:#e8e8e8;}#my-svg .labelBkg{background-color:rgba(232, 232, 232, 0.5);}#my-svg .cluster rect{fill:#ffffde;stroke:#aaaa33;stroke-width:1px;}#my-svg .cluster text{fill:#333;}#my-svg .cluster span,#my-svg p{color:#333;}#my-svg div.mermaidTooltip{position:absolute;text-align:center;max-width:200px;padding:2px;font-family:'Noto Sans Tamil','Latha','Arial Unicode MS',sans-serif;font-size:12px;background:hsl(80, 100%, 96.2745098039%);border:1px solid #aaaa33;border-radius:2px;pointer-events:none;z-index:100;}#my-svg .flowchartTitleText{text-anchor:middle;font-size:18px;fill:#333;}#my-svg text,#my-svg tspan,#my-svg .nodeLabel,#my-svg .edgeLabel{font-family:"Noto Sans Tamil",Latha,"Arial Unicode MS",sans-serif!important;}#my-svg .edgeLabel rect{fill:rgba(255, 255, 255, 0.85)!important;}#my-svg :root{--mermaid-font-family:"trebuchet ms",verdana,arial,sans-serif;}</style><g><marker id="my-svg_flowchart-pointEnd" class="marker flowchart" viewBox="0 0 10 10" refX="6" refY="5" markerUnits="userSpaceOnUse" markerWidth="12" markerHeight="12" orient="auto"><path d="M 0 0 L 10 5 L 0 10 z" class="arrowMarkerPath" style="stroke-width: 1; stroke-dasharray: 1, 0;"/></marker><marker id="my-svg_flowchart-pointStart" class="marker flowchart" viewBox="0 0 10 10" refX="4.5" refY="5" markerUnits="userSpaceOnUse" markerWidth="12" markerHeight="12" orient="auto"><path d="M 0 5 L 10 10 L 10 0 z" class="arrowMarkerPath" style="stroke-width: 1; stroke-dasharray: 1, 0;"/></marker><marker id="my-svg_flowchart-circleEnd" class="marker flowchart" viewBox="0 0 10 10" refX="11" refY="5" markerUnits="userSpaceOnUse" markerWidth="11" markerHeight="11" orient="auto"><circle cx="5" cy="5" r="5" class="arrowMarkerPath" style="stroke-width: 1; stroke-dasharray: 1, 0;"/></marker><marker id="my-svg_flowchart-circleStart" class="marker flowchart" viewBox="0 0 10 10" refX="-1" refY="5" markerUnits="userSpaceOnUse" markerWidth="11" markerHeight="11" orient="auto"><circle cx="5" cy="5" r="5" class="arrowMarkerPath" style="stroke-width: 1; stroke-dasharray: 1, 0;"/></marker><marker id="my-svg_flowchart-crossEnd" class="marker cross flowchart" viewBox="0 0 11 11" refX="12" refY="5.2" markerUnits="userSpaceOnUse" markerWidth="11" markerHeight="11" orient="auto"><path d="M 1,1 l 9,9 M 10,1 l -9,9" class="arrowMarkerPath" style="stroke-width: 2; stroke-dasharray: 1, 0;"/></marker><marker id="my-svg_flowchart-crossStart" class="marker cross flowchart" viewBox="0 0 11 11" refX="-1" refY="5.2" markerUnits="userSpaceOnUse" markerWidth="11" markerHeight="11" orient="auto"><path d="M 1,1 l 9,9 M 10,1 l -9,9" class="arrowMarkerPath" style="stroke-width: 2; stroke-dasharray: 1, 0;"/></marker><g class="root"><g class="clusters"/><g class="edgePaths"><path d="M709.971,31.547L610.392,38.956C510.814,46.364,311.657,61.182,212.078,71.874C112.5,82.567,112.5,89.133,112.5,92.417L112.5,95.7" id="L-ML-SL-0" class="edge-thickness-normal edge-pattern-solid flowchart-link LS-ML LE-SL" style="fill:none;" marker-end="url(#my-svg_flowchart-pointEnd)"/><path d="M709.971,35.683L656.346,42.403C602.721,49.122,495.472,62.561,441.847,72.564C388.223,82.567,388.223,89.133,388.223,92.417L388.223,95.7" id="L-ML-UL-0" class="edge-thickness-normal edge-pattern-solid flowchart-link LS-ML LE-UL" style="fill:none;" marker-end="url(#my-svg_flowchart-pointEnd)"/><path d="M728.067,51L717.745,55.167C707.422,59.333,686.778,67.667,676.455,75.117C666.133,82.567,666.133,89.133,666.133,92.417L666.133,95.7" id="L-ML-SSL-0" class="edge-thickness-normal edge-pattern-solid flowchart-link LS-ML LE-SSL" style="fill:none;" marker-end="url(#my-svg_flowchart-pointEnd)"/><path d="M854.413,51L864.736,55.167C875.058,59.333,895.703,67.667,906.025,75.117C916.348,82.567,916.348,89.133,916.348,92.417L916.348,95.7" id="L-ML-RL-0" class="edge-thickness-normal edge-pattern-solid flowchart-link LS-ML LE-RL" style="fill:none;" marker-end="url(#my-svg_flowchart-pointEnd)"/><path d="M112.5,152L112.5,156.167C112.5,160.333,112.5,168.667,112.5,177.45C112.5,186.233,112.5,195.467,112.5,200.083L112.5,204.7" id="L-SL-CLS-0" class="edge-thickness-normal edge-pattern-solid flowchart-link LS-SL LE-CLS" style="fill:none;" marker-end="url(#my-svg_flowchart-pointEnd)"/><path d="M388.223,152L388.223,156.167C388.223,160.333,388.223,168.667,388.223,177.45C388.223,186.233,388.223,195.467,388.223,200.083L388.223,204.7" id="L-UL-CLU-0" class="edge-thickness-normal edge-pattern-solid flowchart-link LS-UL LE-CLU" style="fill:none;" marker-end="url(#my-svg_flowchart-pointEnd)"/><path d="M833.409,152L819.856,156.167C806.304,160.333,779.2,168.667,765.648,176.117C752.096,183.567,752.096,190.133,752.096,193.417L752.096,196.7" id="L-RL-RLHF-0" class="edge-thickness-normal edge-pattern-solid flowchart-link LS-RL LE-RLHF" style="fill:none;" marker-end="url(#my-svg_flowchart-pointEnd)"/><path d="M972.158,152L981.278,156.167C990.397,160.333,1008.636,168.667,1017.756,176.117C1026.875,183.567,1026.875,190.133,1026.875,193.417L1026.875,196.7" id="L-RL-RLAIF-0" class="edge-thickness-normal edge-pattern-solid flowchart-link LS-RL LE-RLAIF" style="fill:none;" marker-end="url(#my-svg_flowchart-pointEnd)"/><path d="M872.51,37.372L916.58,43.81C960.65,50.248,1048.79,63.124,1092.86,72.845C1136.93,82.567,1136.93,89.133,1136.93,92.417L1136.93,95.7" id="L-ML-TL-0" class="edge-thickness-normal edge-pattern-solid flowchart-link LS-ML LE-TL" style="fill:none;" marker-end="url(#my-svg_flowchart-pointEnd)"/><path d="M872.51,32.627L954.943,39.856C1037.376,47.085,1202.243,61.542,1284.676,72.054C1367.109,82.567,1367.109,89.133,1367.109,92.417L1367.109,95.7" id="L-ML-FL-0" class="edge-thickness-normal edge-pattern-solid flowchart-link LS-ML LE-FL" style="fill:none;" marker-end="url(#my-svg_flowchart-pointEnd)"/></g><g class="edgeLabels"><g class="edgeLabel"><g class="label" transform="translate(0, 0)"><rect rx="0" ry="0" width="0" height="0"/><text style=""><tspan xml:space="preserve" dy="1em" x="0" class="row"/></text></g></g><g class="edgeLabel"><g class="label" transform="translate(0, 0)"><rect rx="0" ry="0" width="0" height="0"/><text style=""><tspan xml:space="preserve" dy="1em" x="0" class="row"/></text></g></g><g class="edgeLabel"><g class="label" transform="translate(0, 0)"><rect rx="0" ry="0" width="0" height="0"/><text style=""><tspan xml:space="preserve" dy="1em" x="0" class="row"/></text></g></g><g class="edgeLabel"><g class="label" transform="translate(0, 0)"><rect rx="0" ry="0" width="0" height="0"/><text style=""><tspan xml:space="preserve" dy="1em" x="0" class="row"/></text></g></g><g class="edgeLabel"><g class="label" transform="translate(0, 0)"><rect rx="0" ry="0" width="0" height="0"/><text style=""><tspan xml:space="preserve" dy="1em" x="0" class="row"/></text></g></g><g class="edgeLabel"><g class="label" transform="translate(0, 0)"><rect rx="0" ry="0" width="0" height="0"/><text style=""><tspan xml:space="preserve" dy="1em" x="0" class="row"/></text></g></g><g class="edgeLabel"><g class="label" transform="translate(0, 0)"><rect rx="0" ry="0" width="0" height="0"/><text style=""><tspan xml:space="preserve" dy="1em" x="0" class="row"/></text></g></g><g class="edgeLabel"><g class="label" transform="translate(0, 0)"><rect rx="0" ry="0" width="0" height="0"/><text style=""><tspan xml:space="preserve" dy="1em" x="0" class="row"/></text></g></g><g class="edgeLabel"><g class="label" transform="translate(0, 0)"><rect rx="0" ry="0" width="0" height="0"/><text style=""><tspan xml:space="preserve" dy="1em" x="0" class="row"/></text></g></g><g class="edgeLabel"><g class="label" transform="translate(0, 0)"><rect rx="0" ry="0" width="0" height="0"/><text style=""><tspan xml:space="preserve" dy="1em" x="0" class="row"/></text></g></g></g><g class="nodes"><g class="node default default flowchart-label" id="flowchart-ML-0" data-node="true" data-id="ML" transform="translate(791.240234375, 25.5)"><rect class="basic label-container" style="fill:#1a4d2e;stroke:#0d3a1f;" rx="0" ry="0" x="-81.26953125" y="-25.5" width="162.5390625" height="51"/><g class="label" style="color:#fff;" transform="translate(0, -18)"><rect/><text style="fill:#fff;"><tspan xml:space="preserve" dy="1em" x="0" class="row">இயந்திரக் கற்றல்</tspan><tspan xml:space="preserve" dy="1em" x="0" class="row">(ML)</tspan></text></g></g><g class="node default default flowchart-label" id="flowchart-SL-1" data-node="true" data-id="SL" transform="translate(112.5, 126.5)"><rect class="basic label-container" style="fill:#e8f5e9;stroke:#1a4d2e;" rx="0" ry="0" x="-112.5" y="-25.5" width="225" height="51"/><g class="label" style="" transform="translate(0, -18)"><rect/><text style=""><tspan xml:space="preserve" dy="1em" x="0" class="row">மேற்பார்வையிட்ட கற்றல்</tspan><tspan xml:space="preserve" dy="1em" x="0" class="row">(Supervised)</tspan></text></g></g><g class="node default default flowchart-label" id="flowchart-UL-3" data-node="true" data-id="UL" transform="translate(388.22265625, 126.5)"><rect class="basic label-container" style="fill:#e8f5e9;stroke:#1a4d2e;" rx="0" ry="0" x="-113.22265625" y="-25.5" width="226.4453125" height="51"/><g class="label" style="" transform="translate(0, -18)"><rect/><text style=""><tspan xml:space="preserve" dy="1em" x="0" class="row">மேற்பார்வையற்ற கற்றல்</tspan><tspan xml:space="preserve" dy="1em" x="0" class="row">(Unsupervised)</tspan></text></g></g><g class="node default default flowchart-label" id="flowchart-SSL-5" data-node="true" data-id="SSL" transform="translate(666.1328125, 126.5)"><rect class="basic label-container" style="fill:#e8f5e9;stroke:#1a4d2e;" rx="0" ry="0" x="-114.6875" y="-25.5" width="229.375" height="51"/><g class="label" style="" transform="translate(0, -18)"><rect/><text style=""><tspan xml:space="preserve" dy="1em" x="0" class="row">தன்மேற்பார்வைக் கற்றல்</tspan><tspan xml:space="preserve" dy="1em" x="0" class="row">(Self-supervised)</tspan></text></g></g><g class="node default default flowchart-label" id="flowchart-RL-7" data-node="true" data-id="RL" transform="translate(916.34765625, 126.5)"><rect class="basic label-container" style="fill:#e8f5e9;stroke:#1a4d2e;" rx="0" ry="0" x="-85.52734375" y="-25.5" width="171.0546875" height="51"/><g class="label" style="" transform="translate(0, -18)"><rect/><text style=""><tspan xml:space="preserve" dy="1em" x="0" class="row">வலுவூட்டல் கற்றல்</tspan><tspan xml:space="preserve" dy="1em" x="0" class="row">(RL)</tspan></text></g></g><g class="node default default flowchart-label" id="flowchart-CLS-9" data-node="true" data-id="CLS" transform="translate(112.5, 235.5)"><rect class="basic label-container" style="fill:#e3f2fd;stroke:#1a4d2e;" rx="0" ry="0" x="-61.85546875" y="-25.5" width="123.7109375" height="51"/><g class="label" style="" transform="translate(0, -18)"><rect/><text style=""><tspan xml:space="preserve" dy="1em" x="0" class="row">வகைப்பாடு</tspan><tspan xml:space="preserve" dy="1em" x="0" class="row">(Classification)</tspan></text></g></g><g class="node default default flowchart-label" id="flowchart-CLU-11" data-node="true" data-id="CLU" transform="translate(388.22265625, 235.5)"><rect class="basic label-container" style="fill:#e3f2fd;stroke:#1a4d2e;" rx="0" ry="0" x="-64.09375" y="-25.5" width="128.1875" height="51"/><g class="label" style="" transform="translate(0, -18)"><rect/><text style=""><tspan xml:space="preserve" dy="1em" x="0" class="row">கொத்தாக்கம்</tspan><tspan xml:space="preserve" dy="1em" x="0" class="row">(Clustering)</tspan></text></g></g><g class="node default default flowchart-label" id="flowchart-RLHF-13" data-node="true" data-id="RLHF" transform="translate(752.095703125, 235.5)"><rect class="basic label-container" style="fill:#e3f2fd;stroke:#1a4d2e;" rx="0" ry="0" x="-85.52734375" y="-33.5" width="171.0546875" height="67"/><g class="label" style="" transform="translate(0, -26)"><rect/><text style=""><tspan xml:space="preserve" dy="1em" x="0" class="row">மனிதப் பின்னூட்ட</tspan><tspan xml:space="preserve" dy="1em" x="0" class="row">வலுவூட்டல் கற்றல்</tspan><tspan xml:space="preserve" dy="1em" x="0" class="row">(RLHF)</tspan></text></g></g><g class="node default default flowchart-label" id="flowchart-RLAIF-15" data-node="true" data-id="RLAIF" transform="translate(1026.875, 235.5)"><rect class="basic label-container" style="fill:#e3f2fd;stroke:#1a4d2e;" rx="0" ry="0" x="-85.52734375" y="-33.5" width="171.0546875" height="67"/><g class="label" style="" transform="translate(0, -26)"><rect/><text style=""><tspan xml:space="preserve" dy="1em" x="0" class="row">AI பின்னூட்ட</tspan><tspan xml:space="preserve" dy="1em" x="0" class="row">வலுவூட்டல் கற்றல்</tspan><tspan xml:space="preserve" dy="1em" x="0" class="row">(RLAIF)</tspan></text></g></g><g class="node default default flowchart-label" id="flowchart-TL-17" data-node="true" data-id="TL" transform="translate(1136.9296875, 126.5)"><rect class="basic label-container" style="fill:#e8f5e9;stroke:#1a4d2e;" rx="0" ry="0" x="-85.0546875" y="-25.5" width="170.109375" height="51"/><g class="label" style="" transform="translate(0, -18)"><rect/><text style=""><tspan xml:space="preserve" dy="1em" x="0" class="row">இடமாற்றக் கற்றல்</tspan><tspan xml:space="preserve" dy="1em" x="0" class="row">(Transfer)</tspan></text></g></g><g class="node default default flowchart-label" id="flowchart-FL-19" data-node="true" data-id="FL" transform="translate(1367.109375, 126.5)"><rect class="basic label-container" style="fill:#e8f5e9;stroke:#1a4d2e;" rx="0" ry="0" x="-95.125" y="-25.5" width="190.25" height="51"/><g class="label" style="" transform="translate(0, -18)"><rect/><text style=""><tspan xml:space="preserve" dy="1em" x="0" class="row">கூட்டமைப்புக் கற்றல்</tspan><tspan xml:space="preserve" dy="1em" x="0" class="row">(Federated)</tspan></text></g></g></g></g></g></svg>