<svg id="my-svg" width="1102.359375" xmlns="http://www.w3.org/2000/svg" xmlns:xlink="http://www.w3.org/1999/xlink" height="269" viewBox="-8 -8 1102.359375 269" role="graphics-document document" aria-roledescription="flowchart-v2" style="background-color: transparent;"><style>#my-svg{font-family:'Noto Sans Tamil','Latha','Arial Unicode MS',sans-serif;font-size:16px;fill:#333;}#my-svg .error-icon{fill:#552222;}#my-svg .error-text{fill:#552222;stroke:#552222;}#my-svg .edge-thickness-normal{stroke-width:2px;}#my-svg .edge-thickness-thick{stroke-width:3.5px;}#my-svg .edge-pattern-solid{stroke-dasharray:0;}#my-svg .edge-pattern-dashed{stroke-dasharray:3;}#my-svg .edge-pattern-dotted{stroke-dasharray:2;}#my-svg .marker{fill:#333333;stroke:#333333;}#my-svg .marker.cross{stroke:#333333;}#my-svg svg{font-family:'Noto Sans Tamil','Latha','Arial Unicode MS',sans-serif;font-size:16px;}#my-svg .label{font-family:'Noto Sans Tamil','Latha','Arial Unicode MS',sans-serif;color:#333;}#my-svg .cluster-label text{fill:#333;}#my-svg .cluster-label span,#my-svg p{color:#333;}#my-svg .label text,#my-svg span,#my-svg p{fill:#333;color:#333;}#my-svg .node rect,#my-svg .node circle,#my-svg .node ellipse,#my-svg .node polygon,#my-svg .node path{fill:#ECECFF;stroke:#9370DB;stroke-width:1px;}#my-svg .flowchart-label text{text-anchor:middle;}#my-svg .node .katex path{fill:#000;stroke:#000;stroke-width:1px;}#my-svg .node .label{text-align:center;}#my-svg .node.clickable{cursor:pointer;}#my-svg .arrowheadPath{fill:#333333;}#my-svg .edgePath .path{stroke:#333333;stroke-width:2.0px;}#my-svg .flowchart-link{stroke:#333333;fill:none;}#my-svg .edgeLabel{background-color:#e8e8e8;text-align:center;}#my-svg .edgeLabel rect{opacity:0.5;background-color:#e8e8e8;fill:#e8e8e8;}#my-svg .labelBkg{background-color:rgba(232, 232, 232, 0.5);}#my-svg .cluster rect{fill:#ffffde;stroke:#aaaa33;stroke-width:1px;}#my-svg .cluster text{fill:#333;}#my-svg .cluster span,#my-svg p{color:#333;}#my-svg div.mermaidTooltip{position:absolute;text-align:center;max-width:200px;padding:2px;font-family:'Noto Sans Tamil','Latha','Arial Unicode MS',sans-serif;font-size:12px;background:hsl(80, 100%, 96.2745098039%);border:1px solid #aaaa33;border-radius:2px;pointer-events:none;z-index:100;}#my-svg .flowchartTitleText{text-anchor:middle;font-size:18px;fill:#333;}#my-svg text,#my-svg tspan,#my-svg .nodeLabel,#my-svg .edgeLabel{font-family:"Noto Sans Tamil",Latha,"Arial Unicode MS",sans-serif!important;}#my-svg .edgeLabel rect{fill:rgba(255, 255, 255, 0.85)!important;}#my-svg :root{--mermaid-font-family:"trebuchet ms",verdana,arial,sans-serif;}</style><g><marker id="my-svg_flowchart-pointEnd" class="marker flowchart" viewBox="0 0 10 10" refX="6" refY="5" markerUnits="userSpaceOnUse" markerWidth="12" markerHeight="12" orient="auto"><path d="M 0 0 L 10 5 L 0 10 z" class="arrowMarkerPath" style="stroke-width: 1; stroke-dasharray: 1, 0;"/></marker><marker id="my-svg_flowchart-pointStart" class="marker flowchart" viewBox="0 0 10 10" refX="4.5" refY="5" markerUnits="userSpaceOnUse" markerWidth="12" markerHeight="12" orient="auto"><path d="M 0 5 L 10 10 L 10 0 z" class="arrowMarkerPath" style="stroke-width: 1; stroke-dasharray: 1, 0;"/></marker><marker id="my-svg_flowchart-circleEnd" class="marker flowchart" viewBox="0 0 10 10" refX="11" refY="5" markerUnits="userSpaceOnUse" markerWidth="11" markerHeight="11" orient="auto"><circle cx="5" cy="5" r="5" class="arrowMarkerPath" style="stroke-width: 1; stroke-dasharray: 1, 0;"/></marker><marker id="my-svg_flowchart-circleStart" class="marker flowchart" viewBox="0 0 10 10" refX="-1" refY="5" markerUnits="userSpaceOnUse" markerWidth="11" markerHeight="11" orient="auto"><circle cx="5" cy="5" r="5" class="arrowMarkerPath" style="stroke-width: 1; stroke-dasharray: 1, 0;"/></marker><marker id="my-svg_flowchart-crossEnd" class="marker cross flowchart" viewBox="0 0 11 11" refX="12" refY="5.2" markerUnits="userSpaceOnUse" markerWidth="11" markerHeight="11" orient="auto"><path d="M 1,1 l 9,9 M 10,1 l -9,9" class="arrowMarkerPath" style="stroke-width: 2; stroke-dasharray: 1, 0;"/></marker><marker id="my-svg_flowchart-crossStart" class="marker cross flowchart" viewBox="0 0 11 11" refX="-1" refY="5.2" markerUnits="userSpaceOnUse" markerWidth="11" markerHeight="11" orient="auto"><path d="M 1,1 l 9,9 M 10,1 l -9,9" class="arrowMarkerPath" style="stroke-width: 2; stroke-dasharray: 1, 0;"/></marker><g class="root"><g class="clusters"/><g class="edgePaths"><path d="M553.303,32.311L476.184,39.592C399.065,46.874,244.827,61.437,167.709,72.002C90.59,82.567,90.59,89.133,90.59,92.417L90.59,95.7" id="L-NN-FF-0" class="edge-thickness-normal edge-pattern-solid flowchart-link LS-NN LE-FF" style="fill:none;" marker-end="url(#my-svg_flowchart-pointEnd)"/><path d="M553.303,37.467L514.591,43.889C475.88,50.311,398.458,63.156,359.746,72.861C321.035,82.567,321.035,89.133,321.035,92.417L321.035,95.7" id="L-NN-RNN-0" class="edge-thickness-normal edge-pattern-solid flowchart-link LS-NN LE-RNN" style="fill:none;" marker-end="url(#my-svg_flowchart-pointEnd)"/><path d="M577.9,51L570.133,55.167C562.366,59.333,546.831,67.667,539.064,75.117C531.297,82.567,531.297,89.133,531.297,92.417L531.297,95.7" id="L-NN-CNN-0" class="edge-thickness-normal edge-pattern-solid flowchart-link LS-NN LE-CNN" style="fill:none;" marker-end="url(#my-svg_flowchart-pointEnd)"/><path d="M672.971,51L680.738,55.167C688.505,59.333,704.04,67.667,711.807,75.117C719.574,82.567,719.574,89.133,719.574,92.417L719.574,95.7" id="L-NN-DL-0" class="edge-thickness-normal edge-pattern-solid flowchart-link LS-NN LE-DL" style="fill:none;" marker-end="url(#my-svg_flowchart-pointEnd)"/><path d="M651.703,140.919L623.397,146.932C595.091,152.946,538.479,164.973,510.173,174.27C481.867,183.567,481.867,190.133,481.867,193.417L481.867,196.7" id="L-DL-GAN-0" class="edge-thickness-normal edge-pattern-solid flowchart-link LS-DL LE-GAN" style="fill:none;" marker-end="url(#my-svg_flowchart-pointEnd)"/><path d="M719.574,152L719.574,156.167C719.574,160.333,719.574,168.667,719.574,176.117C719.574,183.567,719.574,190.133,719.574,193.417L719.574,196.7" id="L-DL-AE-0" class="edge-thickness-normal edge-pattern-solid flowchart-link LS-DL LE-AE" style="fill:none;" marker-end="url(#my-svg_flowchart-pointEnd)"/><path d="M787.445,143.964L808.844,149.47C830.242,154.976,873.039,165.988,894.438,174.777C915.836,183.567,915.836,190.133,915.836,193.417L915.836,196.7" id="L-DL-DM-0" class="edge-thickness-normal edge-pattern-solid flowchart-link LS-DL LE-DM" style="fill:none;" marker-end="url(#my-svg_flowchart-pointEnd)"/><path d="M697.568,39.256L729.682,45.38C761.796,51.504,826.023,63.752,858.136,73.159C890.25,82.567,890.25,89.133,890.25,92.417L890.25,95.7" id="L-NN-ENC-0" class="edge-thickness-normal edge-pattern-solid flowchart-link LS-NN LE-ENC" style="fill:none;" marker-end="url(#my-svg_flowchart-pointEnd)"/><path d="M697.568,34.293L754.591,41.244C811.615,48.195,925.661,62.098,982.684,72.332C1039.707,82.567,1039.707,89.133,1039.707,92.417L1039.707,95.7" id="L-NN-DEC-0" class="edge-thickness-normal edge-pattern-solid flowchart-link LS-NN LE-DEC" style="fill:none;" marker-end="url(#my-svg_flowchart-pointEnd)"/></g><g class="edgeLabels"><g class="edgeLabel"><g class="label" transform="translate(0, 0)"><rect rx="0" ry="0" width="0" height="0"/><text style=""><tspan xml:space="preserve" dy="1em" x="0" class="row"/></text></g></g><g class="edgeLabel"><g class="label" transform="translate(0, 0)"><rect rx="0" ry="0" width="0" height="0"/><text style=""><tspan xml:space="preserve" dy="1em" x="0" class="row"/></text></g></g><g class="edgeLabel"><g class="label" transform="translate(0, 0)"><rect rx="0" ry="0" width="0" height="0"/><text style=""><tspan xml:space="preserve" dy="1em" x="0" class="row"/></text></g></g><g class="edgeLabel"><g class="label" transform="translate(0, 0)"><rect rx="0" ry="0" width="0" height="0"/><text style=""><tspan xml:space="preserve" dy="1em" x="0" class="row"/></text></g></g><g class="edgeLabel"><g class="label" transform="translate(0, 0)"><rect rx="0" ry="0" width="0" height="0"/><text style=""><tspan xml:space="preserve" dy="1em" x="0" class="row"/></text></g></g><g class="edgeLabel"><g class="label" transform="translate(0, 0)"><rect rx="0" ry="0" width="0" height="0"/><text style=""><tspan xml:space="preserve" dy="1em" x="0" class="row"/></text></g></g><g class="edgeLabel"><g class="label" transform="translate(0, 0)"><rect rx="0" ry="0" width="0" height="0"/><text style=""><tspan xml:space="preserve" dy="1em" x="0" class="row"/></text></g></g><g class="edgeLabel"><g class="label" transform="translate(0, 0)"><rect rx="0" ry="0" width="0" height="0"/><text style=""><tspan xml:space="preserve" dy="1em" x="0" class="row"/></text></g></g><g class="edgeLabel"><g class="label" transform="translate(0, 0)"><rect rx="0" ry="0" width="0" height="0"/><text style=""><tspan xml:space="preserve" dy="1em" x="0" class="row"/></text></g></g></g><g class="nodes"><g class="node default default flowchart-label" id="flowchart-NN-0" data-node="true" data-id="NN" transform="translate(625.435546875, 25.5)"><rect class="basic label-container" style="fill:#1a4d2e;stroke:#0d3a1f;" rx="0" ry="0" x="-72.1328125" y="-25.5" width="144.265625" height="51"/><g class="label" style="color:#fff;" transform="translate(0, -18)"><rect/><text style="fill:#fff;"><tspan xml:space="preserve" dy="1em" x="0" class="row">நரவலை</tspan><tspan xml:space="preserve" dy="1em" x="0" class="row">(Neural Network)</tspan></text></g></g><g class="node default default flowchart-label" id="flowchart-FF-1" data-node="true" data-id="FF" transform="translate(90.58984375, 126.5)"><rect class="basic label-container" style="fill:#e8f5e9;stroke:#1a4d2e;" rx="0" ry="0" x="-90.58984375" y="-25.5" width="181.1796875" height="51"/><g class="label" style="" transform="translate(0, -18)"><rect/><text style=""><tspan xml:space="preserve" dy="1em" x="0" class="row">முன்னூட்ட நரவலை</tspan><tspan xml:space="preserve" dy="1em" x="0" class="row">(Feedforward)</tspan></text></g></g><g class="node default default flowchart-label" id="flowchart-RNN-3" data-node="true" data-id="RNN" transform="translate(321.03515625, 126.5)"><rect class="basic label-container" style="fill:#e8f5e9;stroke:#1a4d2e;" rx="0" ry="0" x="-89.85546875" y="-25.5" width="179.7109375" height="51"/><g class="label" style="" transform="translate(0, -18)"><rect/><text style=""><tspan xml:space="preserve" dy="1em" x="0" class="row">பின்னூட்ட நரவலை</tspan><tspan xml:space="preserve" dy="1em" x="0" class="row">(RNN)</tspan></text></g></g><g class="node default default flowchart-label" id="flowchart-CNN-5" data-node="true" data-id="CNN" transform="translate(531.296875, 126.5)"><rect class="basic label-container" style="fill:#e8f5e9;stroke:#1a4d2e;" rx="0" ry="0" x="-70.40625" y="-25.5" width="140.8125" height="51"/><g class="label" style="" transform="translate(0, -18)"><rect/><text style=""><tspan xml:space="preserve" dy="1em" x="0" class="row">சுருள் நரவலை</tspan><tspan xml:space="preserve" dy="1em" x="0" class="row">(CNN)</tspan></text></g></g><g class="node default default flowchart-label" id="flowchart-DL-7" data-node="true" data-id="DL" transform="translate(719.57421875, 126.5)"><rect class="basic label-container" style="fill:#1a4d2e;stroke:#0d3a1f;" rx="0" ry="0" x="-67.87109375" y="-25.5" width="135.7421875" height="51"/><g class="label" style="color:#fff;" transform="translate(0, -18)"><rect/><text style="fill:#fff;"><tspan xml:space="preserve" dy="1em" x="0" class="row">ஆழ்கற்றல்</tspan><tspan xml:space="preserve" dy="1em" x="0" class="row">(Deep Learning)</tspan></text></g></g><g class="node default default flowchart-label" id="flowchart-GAN-9" data-node="true" data-id="GAN" transform="translate(481.8671875, 227.5)"><rect class="basic label-container" style="fill:#e3f2fd;stroke:#1a4d2e;" rx="0" ry="0" x="-113.7890625" y="-25.5" width="227.578125" height="51"/><g class="label" style="" transform="translate(0, -18)"><rect/><text style=""><tspan xml:space="preserve" dy="1em" x="0" class="row">இயற்றும் எதிரிடை வலை</tspan><tspan xml:space="preserve" dy="1em" x="0" class="row">(GAN)</tspan></text></g></g><g class="node default default flowchart-label" id="flowchart-AE-11" data-node="true" data-id="AE" transform="translate(719.57421875, 227.5)"><rect class="basic label-container" style="fill:#e3f2fd;stroke:#1a4d2e;" rx="0" ry="0" x="-73.91796875" y="-25.5" width="147.8359375" height="51"/><g class="label" style="" transform="translate(0, -18)"><rect/><text style=""><tspan xml:space="preserve" dy="1em" x="0" class="row">தான்குறியாக்கி</tspan><tspan xml:space="preserve" dy="1em" x="0" class="row">(Autoencoder)</tspan></text></g></g><g class="node default default flowchart-label" id="flowchart-DM-13" data-node="true" data-id="DM" transform="translate(915.8359375, 227.5)"><rect class="basic label-container" style="fill:#e3f2fd;stroke:#1a4d2e;" rx="0" ry="0" x="-72.34375" y="-25.5" width="144.6875" height="51"/><g class="label" style="" transform="translate(0, -18)"><rect/><text style=""><tspan xml:space="preserve" dy="1em" x="0" class="row">விரவல் மாதிரி</tspan><tspan xml:space="preserve" dy="1em" x="0" class="row">(Diffusion Model)</tspan></text></g></g><g class="node default default flowchart-label" id="flowchart-ENC-15" data-node="true" data-id="ENC" transform="translate(890.25, 126.5)"><rect class="basic label-container" style="fill:#e8f5e9;stroke:#1a4d2e;" rx="0" ry="0" x="-52.8046875" y="-25.5" width="105.609375" height="51"/><g class="label" style="" transform="translate(0, -18)"><rect/><text style=""><tspan xml:space="preserve" dy="1em" x="0" class="row">குறியாக்கி</tspan><tspan xml:space="preserve" dy="1em" x="0" class="row">(Encoder)</tspan></text></g></g><g class="node default default flowchart-label" id="flowchart-DEC-17" data-node="true" data-id="DEC" transform="translate(1039.70703125, 126.5)"><rect class="basic label-container" style="fill:#e8f5e9;stroke:#1a4d2e;" rx="0" ry="0" x="-46.65234375" y="-25.5" width="93.3046875" height="51"/><g class="label" style="" transform="translate(0, -18)"><rect/><text style=""><tspan xml:space="preserve" dy="1em" x="0" class="row">குறிநீக்கி</tspan><tspan xml:space="preserve" dy="1em" x="0" class="row">(Decoder)</tspan></text></g></g></g></g></g></svg>