<svg id="my-svg" width="1985.11328125" xmlns="http://www.w3.org/2000/svg" xmlns:xlink="http://www.w3.org/1999/xlink" height="386" viewBox="-8 -8 1985.11328125 386" role="graphics-document document" aria-roledescription="flowchart-v2" style="background-color: transparent;"><style>#my-svg{font-family:'Noto Sans Tamil','Latha','Arial Unicode MS',sans-serif;font-size:16px;fill:#333;}#my-svg .error-icon{fill:#552222;}#my-svg .error-text{fill:#552222;stroke:#552222;}#my-svg .edge-thickness-normal{stroke-width:2px;}#my-svg .edge-thickness-thick{stroke-width:3.5px;}#my-svg .edge-pattern-solid{stroke-dasharray:0;}#my-svg .edge-pattern-dashed{stroke-dasharray:3;}#my-svg .edge-pattern-dotted{stroke-dasharray:2;}#my-svg .marker{fill:#333333;stroke:#333333;}#my-svg .marker.cross{stroke:#333333;}#my-svg svg{font-family:'Noto Sans Tamil','Latha','Arial Unicode MS',sans-serif;font-size:16px;}#my-svg .label{font-family:'Noto Sans Tamil','Latha','Arial Unicode MS',sans-serif;color:#333;}#my-svg .cluster-label text{fill:#333;}#my-svg .cluster-label span,#my-svg p{color:#333;}#my-svg .label text,#my-svg span,#my-svg p{fill:#333;color:#333;}#my-svg .node rect,#my-svg .node circle,#my-svg .node ellipse,#my-svg .node polygon,#my-svg .node path{fill:#ECECFF;stroke:#9370DB;stroke-width:1px;}#my-svg .flowchart-label text{text-anchor:middle;}#my-svg .node .katex path{fill:#000;stroke:#000;stroke-width:1px;}#my-svg .node .label{text-align:center;}#my-svg .node.clickable{cursor:pointer;}#my-svg .arrowheadPath{fill:#333333;}#my-svg .edgePath .path{stroke:#333333;stroke-width:2.0px;}#my-svg .flowchart-link{stroke:#333333;fill:none;}#my-svg .edgeLabel{background-color:#e8e8e8;text-align:center;}#my-svg .edgeLabel rect{opacity:0.5;background-color:#e8e8e8;fill:#e8e8e8;}#my-svg .labelBkg{background-color:rgba(232, 232, 232, 0.5);}#my-svg .cluster rect{fill:#ffffde;stroke:#aaaa33;stroke-width:1px;}#my-svg .cluster text{fill:#333;}#my-svg .cluster span,#my-svg p{color:#333;}#my-svg div.mermaidTooltip{position:absolute;text-align:center;max-width:200px;padding:2px;font-family:'Noto Sans Tamil','Latha','Arial Unicode MS',sans-serif;font-size:12px;background:hsl(80, 100%, 96.2745098039%);border:1px solid #aaaa33;border-radius:2px;pointer-events:none;z-index:100;}#my-svg .flowchartTitleText{text-anchor:middle;font-size:18px;fill:#333;}#my-svg text,#my-svg tspan,#my-svg .nodeLabel,#my-svg .edgeLabel{font-family:"Noto Sans Tamil",Latha,"Arial Unicode MS",sans-serif!important;}#my-svg .edgeLabel rect{fill:rgba(255, 255, 255, 0.85)!important;}#my-svg :root{--mermaid-font-family:"trebuchet ms",verdana,arial,sans-serif;}</style><g><marker id="my-svg_flowchart-pointEnd" class="marker flowchart" viewBox="0 0 10 10" refX="6" refY="5" markerUnits="userSpaceOnUse" markerWidth="12" markerHeight="12" orient="auto"><path d="M 0 0 L 10 5 L 0 10 z" class="arrowMarkerPath" style="stroke-width: 1; stroke-dasharray: 1, 0;"/></marker><marker id="my-svg_flowchart-pointStart" class="marker flowchart" viewBox="0 0 10 10" refX="4.5" refY="5" markerUnits="userSpaceOnUse" markerWidth="12" markerHeight="12" orient="auto"><path d="M 0 5 L 10 10 L 10 0 z" class="arrowMarkerPath" style="stroke-width: 1; stroke-dasharray: 1, 0;"/></marker><marker id="my-svg_flowchart-circleEnd" class="marker flowchart" viewBox="0 0 10 10" refX="11" refY="5" markerUnits="userSpaceOnUse" markerWidth="11" markerHeight="11" orient="auto"><circle cx="5" cy="5" r="5" class="arrowMarkerPath" style="stroke-width: 1; stroke-dasharray: 1, 0;"/></marker><marker id="my-svg_flowchart-circleStart" class="marker flowchart" viewBox="0 0 10 10" refX="-1" refY="5" markerUnits="userSpaceOnUse" markerWidth="11" markerHeight="11" orient="auto"><circle cx="5" cy="5" r="5" class="arrowMarkerPath" style="stroke-width: 1; stroke-dasharray: 1, 0;"/></marker><marker id="my-svg_flowchart-crossEnd" class="marker cross flowchart" viewBox="0 0 11 11" refX="12" refY="5.2" markerUnits="userSpaceOnUse" markerWidth="11" markerHeight="11" orient="auto"><path d="M 1,1 l 9,9 M 10,1 l -9,9" class="arrowMarkerPath" style="stroke-width: 2; stroke-dasharray: 1, 0;"/></marker><marker id="my-svg_flowchart-crossStart" class="marker cross flowchart" viewBox="0 0 11 11" refX="-1" refY="5.2" markerUnits="userSpaceOnUse" markerWidth="11" markerHeight="11" orient="auto"><path d="M 1,1 l 9,9 M 10,1 l -9,9" class="arrowMarkerPath" style="stroke-width: 2; stroke-dasharray: 1, 0;"/></marker><g class="root"><g class="clusters"/><g class="edgePaths"><path d="M1133.41,29.39L1019.006,37.158C904.602,44.927,675.794,60.463,561.39,71.515C446.986,82.567,446.986,89.133,446.986,92.417L446.986,95.7" id="L-PT-FT-0" class="edge-thickness-normal edge-pattern-solid flowchart-link LS-PT LE-FT" style="fill:none;" marker-end="url(#my-svg_flowchart-pointEnd)"/><path d="M381.021,136.2L334.78,143C288.539,149.8,196.057,163.4,149.815,174.817C103.574,186.233,103.574,195.467,103.574,200.083L103.574,204.7" id="L-FT-IT-0" class="edge-thickness-normal edge-pattern-solid flowchart-link LS-FT LE-IT" style="fill:none;" marker-end="url(#my-svg_flowchart-pointEnd)"/><path d="M390.754,152L381.566,156.167C372.378,160.333,354.001,168.667,344.813,176.117C335.625,183.567,335.625,190.133,335.625,193.417L335.625,196.7" id="L-FT-PEFT-0" class="edge-thickness-normal edge-pattern-solid flowchart-link LS-FT LE-PEFT" style="fill:none;" marker-end="url(#my-svg_flowchart-pointEnd)"/><path d="M264.185,269L255.299,273.167C246.414,277.333,228.642,285.667,219.757,293.117C210.871,300.567,210.871,307.133,210.871,310.417L210.871,313.7" id="L-PEFT-LoRA-0" class="edge-thickness-normal edge-pattern-solid flowchart-link LS-PEFT LE-LoRA" style="fill:none;" marker-end="url(#my-svg_flowchart-pointEnd)"/><path d="M407.065,269L415.951,273.167C424.836,277.333,442.608,285.667,451.493,293.117C460.379,300.567,460.379,307.133,460.379,310.417L460.379,313.7" id="L-PEFT-ADP-0" class="edge-thickness-normal edge-pattern-solid flowchart-link LS-PEFT LE-ADP" style="fill:none;" marker-end="url(#my-svg_flowchart-pointEnd)"/><path d="M512.951,140.608L541.31,146.674C569.668,152.739,626.385,164.869,654.743,174.218C683.102,183.567,683.102,190.133,683.102,193.417L683.102,196.7" id="L-FT-RLHF-0" class="edge-thickness-normal edge-pattern-solid flowchart-link LS-FT LE-RLHF" style="fill:none;" marker-end="url(#my-svg_flowchart-pointEnd)"/><path d="M683.102,269L683.102,273.167C683.102,277.333,683.102,285.667,683.102,293.117C683.102,300.567,683.102,307.133,683.102,310.417L683.102,313.7" id="L-RLHF-RM-0" class="edge-thickness-normal edge-pattern-solid flowchart-link LS-RLHF LE-RM" style="fill:none;" marker-end="url(#my-svg_flowchart-pointEnd)"/><path d="M512.951,134.139L574.64,141.282C636.328,148.426,759.705,162.713,821.394,173.14C883.082,183.567,883.082,190.133,883.082,193.417L883.082,196.7" id="L-FT-DPO-0" class="edge-thickness-normal edge-pattern-solid flowchart-link LS-FT LE-DPO" style="fill:none;" marker-end="url(#my-svg_flowchart-pointEnd)"/><path d="M1190.695,51L1190.695,55.167C1190.695,59.333,1190.695,67.667,1190.695,75.117C1190.695,82.567,1190.695,89.133,1190.695,92.417L1190.695,95.7" id="L-PT-GD-0" class="edge-thickness-normal edge-pattern-solid flowchart-link LS-PT LE-GD" style="fill:none;" marker-end="url(#my-svg_flowchart-pointEnd)"/><path d="M1140.486,152L1132.282,156.167C1124.078,160.333,1107.67,168.667,1099.466,177.45C1091.262,186.233,1091.262,195.467,1091.262,200.083L1091.262,204.7" id="L-GD-BP-0" class="edge-thickness-normal edge-pattern-solid flowchart-link LS-GD LE-BP" style="fill:none;" marker-end="url(#my-svg_flowchart-pointEnd)"/><path d="M1240.904,152L1249.108,156.167C1257.313,160.333,1273.721,168.667,1281.925,177.45C1290.129,186.233,1290.129,195.467,1290.129,200.083L1290.129,204.7" id="L-GD-OPT-0" class="edge-thickness-normal edge-pattern-solid flowchart-link LS-GD LE-OPT" style="fill:none;" marker-end="url(#my-svg_flowchart-pointEnd)"/><path d="M1247.98,31.396L1320.215,38.83C1392.449,46.264,1536.918,61.132,1609.152,71.849C1681.387,82.567,1681.387,89.133,1681.387,92.417L1681.387,95.7" id="L-PT-MC-0" class="edge-thickness-normal edge-pattern-solid flowchart-link LS-PT LE-MC" style="fill:none;" marker-end="url(#my-svg_flowchart-pointEnd)"/><path d="M1593.613,147.711L1573.413,152.592C1553.212,157.474,1512.811,167.237,1492.611,176.735C1472.41,186.233,1472.41,195.467,1472.41,200.083L1472.41,204.7" id="L-MC-DIST-0" class="edge-thickness-normal edge-pattern-solid flowchart-link LS-MC LE-DIST" style="fill:none;" marker-end="url(#my-svg_flowchart-pointEnd)"/><path d="M1680.98,152L1680.914,156.167C1680.848,160.333,1680.715,168.667,1680.648,177.45C1680.582,186.233,1680.582,195.467,1680.582,200.083L1680.582,204.7" id="L-MC-QUANT-0" class="edge-thickness-normal edge-pattern-solid flowchart-link LS-MC LE-QUANT" style="fill:none;" marker-end="url(#my-svg_flowchart-pointEnd)"/><path d="M1769.16,147.711L1789.361,152.592C1809.561,157.474,1849.962,167.237,1870.163,176.735C1890.363,186.233,1890.363,195.467,1890.363,200.083L1890.363,204.7" id="L-MC-PRUNE-0" class="edge-thickness-normal edge-pattern-solid flowchart-link LS-MC LE-PRUNE" style="fill:none;" marker-end="url(#my-svg_flowchart-pointEnd)"/></g><g class="edgeLabels"><g class="edgeLabel"><g class="label" transform="translate(0, 0)"><rect rx="0" ry="0" width="0" height="0"/><text style=""><tspan xml:space="preserve" dy="1em" x="0" class="row"/></text></g></g><g class="edgeLabel"><g class="label" transform="translate(0, 0)"><rect rx="0" ry="0" width="0" height="0"/><text style=""><tspan xml:space="preserve" dy="1em" x="0" class="row"/></text></g></g><g class="edgeLabel"><g class="label" transform="translate(0, 0)"><rect rx="0" ry="0" width="0" height="0"/><text style=""><tspan xml:space="preserve" dy="1em" x="0" class="row"/></text></g></g><g class="edgeLabel"><g class="label" transform="translate(0, 0)"><rect rx="0" ry="0" width="0" height="0"/><text style=""><tspan xml:space="preserve" dy="1em" x="0" class="row"/></text></g></g><g class="edgeLabel"><g class="label" transform="translate(0, 0)"><rect rx="0" ry="0" width="0" height="0"/><text style=""><tspan xml:space="preserve" dy="1em" x="0" class="row"/></text></g></g><g class="edgeLabel"><g class="label" transform="translate(0, 0)"><rect rx="0" ry="0" width="0" height="0"/><text style=""><tspan xml:space="preserve" dy="1em" x="0" class="row"/></text></g></g><g class="edgeLabel"><g class="label" transform="translate(0, 0)"><rect rx="0" ry="0" width="0" height="0"/><text style=""><tspan xml:space="preserve" dy="1em" x="0" class="row"/></text></g></g><g class="edgeLabel"><g class="label" transform="translate(0, 0)"><rect rx="0" ry="0" width="0" height="0"/><text style=""><tspan xml:space="preserve" dy="1em" x="0" class="row"/></text></g></g><g class="edgeLabel"><g class="label" transform="translate(0, 0)"><rect rx="0" ry="0" width="0" height="0"/><text style=""><tspan xml:space="preserve" dy="1em" x="0" class="row"/></text></g></g><g class="edgeLabel"><g class="label" transform="translate(0, 0)"><rect rx="0" ry="0" width="0" height="0"/><text style=""><tspan xml:space="preserve" dy="1em" x="0" class="row"/></text></g></g><g class="edgeLabel"><g class="label" transform="translate(0, 0)"><rect rx="0" ry="0" width="0" height="0"/><text style=""><tspan xml:space="preserve" dy="1em" x="0" class="row"/></text></g></g><g class="edgeLabel"><g class="label" transform="translate(0, 0)"><rect rx="0" ry="0" width="0" height="0"/><text style=""><tspan xml:space="preserve" dy="1em" x="0" class="row"/></text></g></g><g class="edgeLabel"><g class="label" transform="translate(0, 0)"><rect rx="0" ry="0" width="0" height="0"/><text style=""><tspan xml:space="preserve" dy="1em" x="0" class="row"/></text></g></g><g class="edgeLabel"><g class="label" transform="translate(0, 0)"><rect rx="0" ry="0" width="0" height="0"/><text style=""><tspan xml:space="preserve" dy="1em" x="0" class="row"/></text></g></g><g class="edgeLabel"><g class="label" transform="translate(0, 0)"><rect rx="0" ry="0" width="0" height="0"/><text style=""><tspan xml:space="preserve" dy="1em" x="0" class="row"/></text></g></g></g><g class="nodes"><g class="node default default flowchart-label" id="flowchart-PT-0" data-node="true" data-id="PT" transform="translate(1190.6953125, 25.5)"><rect class="basic label-container" style="fill:#1a4d2e;stroke:#0d3a1f;" rx="0" ry="0" x="-57.28515625" y="-25.5" width="114.5703125" height="51"/><g class="label" style="color:#fff;" transform="translate(0, -18)"><rect/><text style="fill:#fff;"><tspan xml:space="preserve" dy="1em" x="0" class="row">முன்பயிற்சி</tspan><tspan xml:space="preserve" dy="1em" x="0" class="row">(Pretraining)</tspan></text></g></g><g class="node default default flowchart-label" id="flowchart-FT-1" data-node="true" data-id="FT" transform="translate(446.986328125, 126.5)"><rect class="basic label-container" style="fill:#1a4d2e;stroke:#0d3a1f;" rx="0" ry="0" x="-65.96484375" y="-25.5" width="131.9296875" height="51"/><g class="label" style="color:#fff;" transform="translate(0, -18)"><rect/><text style="fill:#fff;"><tspan xml:space="preserve" dy="1em" x="0" class="row">நுண்திருத்தம்</tspan><tspan xml:space="preserve" dy="1em" x="0" class="row">(Fine-tuning)</tspan></text></g></g><g class="node default default flowchart-label" id="flowchart-IT-3" data-node="true" data-id="IT" transform="translate(103.57421875, 235.5)"><rect class="basic label-container" style="fill:#e8f5e9;stroke:#1a4d2e;" rx="0" ry="0" x="-103.57421875" y="-25.5" width="207.1484375" height="51"/><g class="label" style="" transform="translate(0, -18)"><rect/><text style=""><tspan xml:space="preserve" dy="1em" x="0" class="row">கட்டளை நுண்திருத்தம்</tspan><tspan xml:space="preserve" dy="1em" x="0" class="row">(Instruction Tuning)</tspan></text></g></g><g class="node default default flowchart-label" id="flowchart-PEFT-5" data-node="true" data-id="PEFT" transform="translate(335.625, 235.5)"><rect class="basic label-container" style="fill:#e8f5e9;stroke:#1a4d2e;" rx="0" ry="0" x="-78.4765625" y="-33.5" width="156.953125" height="67"/><g class="label" style="" transform="translate(0, -26)"><rect/><text style=""><tspan xml:space="preserve" dy="1em" x="0" class="row">அளபுருச் சிக்கன</tspan><tspan xml:space="preserve" dy="1em" x="0" class="row">நுண்திருத்தம்</tspan><tspan xml:space="preserve" dy="1em" x="0" class="row">(PEFT)</tspan></text></g></g><g class="node default default flowchart-label" id="flowchart-LoRA-7" data-node="true" data-id="LoRA" transform="translate(210.87109375, 344.5)"><rect class="basic label-container" style="fill:#e3f2fd;stroke:#1a4d2e;" rx="0" ry="0" x="-103.51953125" y="-25.5" width="207.0390625" height="51"/><g class="label" style="" transform="translate(0, -18)"><rect/><text style=""><tspan xml:space="preserve" dy="1em" x="0" class="row">குறைவரிசைத் தழுவல்</tspan><tspan xml:space="preserve" dy="1em" x="0" class="row">(LoRA)</tspan></text></g></g><g class="node default default flowchart-label" id="flowchart-ADP-9" data-node="true" data-id="ADP" transform="translate(460.37890625, 344.5)"><rect class="basic label-container" style="fill:#e3f2fd;stroke:#1a4d2e;" rx="0" ry="0" x="-95.98828125" y="-25.5" width="191.9765625" height="51"/><g class="label" style="" transform="translate(0, -18)"><rect/><text style=""><tspan xml:space="preserve" dy="1em" x="0" class="row">இணைப்புத் தொகுதி</tspan><tspan xml:space="preserve" dy="1em" x="0" class="row">(Adapter)</tspan></text></g></g><g class="node default default flowchart-label" id="flowchart-RLHF-11" data-node="true" data-id="RLHF" transform="translate(683.1015625, 235.5)"><rect class="basic label-container" style="fill:#e8f5e9;stroke:#1a4d2e;" rx="0" ry="0" x="-85.52734375" y="-33.5" width="171.0546875" height="67"/><g class="label" style="" transform="translate(0, -26)"><rect/><text style=""><tspan xml:space="preserve" dy="1em" x="0" class="row">மனிதப் பின்னூட்ட</tspan><tspan xml:space="preserve" dy="1em" x="0" class="row">வலுவூட்டல் கற்றல்</tspan><tspan xml:space="preserve" dy="1em" x="0" class="row">(RLHF)</tspan></text></g></g><g class="node default default flowchart-label" id="flowchart-RM-13" data-node="true" data-id="RM" transform="translate(683.1015625, 344.5)"><rect class="basic label-container" style="fill:#e3f2fd;stroke:#1a4d2e;" rx="0" ry="0" x="-76.734375" y="-25.5" width="153.46875" height="51"/><g class="label" style="" transform="translate(0, -18)"><rect/><text style=""><tspan xml:space="preserve" dy="1em" x="0" class="row">வெகுமதி மாதிரி</tspan><tspan xml:space="preserve" dy="1em" x="0" class="row">(Reward Model)</tspan></text></g></g><g class="node default default flowchart-label" id="flowchart-DPO-15" data-node="true" data-id="DPO" transform="translate(883.08203125, 235.5)"><rect class="basic label-container" style="fill:#e8f5e9;stroke:#1a4d2e;" rx="0" ry="0" x="-64.453125" y="-33.5" width="128.90625" height="67"/><g class="label" style="" transform="translate(0, -26)"><rect/><text style=""><tspan xml:space="preserve" dy="1em" x="0" class="row">நேரடி விருப்ப</tspan><tspan xml:space="preserve" dy="1em" x="0" class="row">உகப்பாக்கம்</tspan><tspan xml:space="preserve" dy="1em" x="0" class="row">(DPO)</tspan></text></g></g><g class="node default default flowchart-label" id="flowchart-GD-17" data-node="true" data-id="GD" transform="translate(1190.6953125, 126.5)"><rect class="basic label-container" style="fill:#e8f5e9;stroke:#1a4d2e;" rx="0" ry="0" x="-77.87109375" y="-25.5" width="155.7421875" height="51"/><g class="label" style="" transform="translate(0, -18)"><rect/><text style=""><tspan xml:space="preserve" dy="1em" x="0" class="row">சரிவிறக்கம்</tspan><tspan xml:space="preserve" dy="1em" x="0" class="row">(Gradient Descent)</tspan></text></g></g><g class="node default default flowchart-label" id="flowchart-BP-19" data-node="true" data-id="BP" transform="translate(1091.26171875, 235.5)"><rect class="basic label-container" style="fill:#e3f2fd;stroke:#1a4d2e;" rx="0" ry="0" x="-93.7265625" y="-25.5" width="187.453125" height="51"/><g class="label" style="" transform="translate(0, -18)"><rect/><text style=""><tspan xml:space="preserve" dy="1em" x="0" class="row">பின்பிழைப்பாய்ச்சம்</tspan><tspan xml:space="preserve" dy="1em" x="0" class="row">(Backpropagation)</tspan></text></g></g><g class="node default default flowchart-label" id="flowchart-OPT-21" data-node="true" data-id="OPT" transform="translate(1290.12890625, 235.5)"><rect class="basic label-container" style="fill:#e3f2fd;stroke:#1a4d2e;" rx="0" ry="0" x="-55.140625" y="-25.5" width="110.28125" height="51"/><g class="label" style="" transform="translate(0, -18)"><rect/><text style=""><tspan xml:space="preserve" dy="1em" x="0" class="row">உகப்பாக்கி</tspan><tspan xml:space="preserve" dy="1em" x="0" class="row">(Optimizer)</tspan></text></g></g><g class="node default default flowchart-label" id="flowchart-MC-23" data-node="true" data-id="MC" transform="translate(1681.38671875, 126.5)"><rect class="basic label-container" style="fill:#e8f5e9;stroke:#1a4d2e;" rx="0" ry="0" x="-87.7734375" y="-25.5" width="175.546875" height="51"/><g class="label" style="" transform="translate(0, -18)"><rect/><text style=""><tspan xml:space="preserve" dy="1em" x="0" class="row">மாதிரிச் சுருக்கம்</tspan><tspan xml:space="preserve" dy="1em" x="0" class="row">(Model Compression)</tspan></text></g></g><g class="node default default flowchart-label" id="flowchart-DIST-25" data-node="true" data-id="DIST" transform="translate(1472.41015625, 235.5)"><rect class="basic label-container" style="fill:#e3f2fd;stroke:#1a4d2e;" rx="0" ry="0" x="-77.140625" y="-25.5" width="154.28125" height="51"/><g class="label" style="" transform="translate(0, -18)"><rect/><text style=""><tspan xml:space="preserve" dy="1em" x="0" class="row">அறிவுச் சுருக்கம்</tspan><tspan xml:space="preserve" dy="1em" x="0" class="row">(Distillation)</tspan></text></g></g><g class="node default default flowchart-label" id="flowchart-QUANT-27" data-node="true" data-id="QUANT" transform="translate(1680.58203125, 235.5)"><rect class="basic label-container" style="fill:#e3f2fd;stroke:#1a4d2e;" rx="0" ry="0" x="-81.03125" y="-25.5" width="162.0625" height="51"/><g class="label" style="" transform="translate(0, -18)"><rect/><text style=""><tspan xml:space="preserve" dy="1em" x="0" class="row">எண்ணளவாக்கம்</tspan><tspan xml:space="preserve" dy="1em" x="0" class="row">(Quantization)</tspan></text></g></g><g class="node default default flowchart-label" id="flowchart-PRUNE-29" data-node="true" data-id="PRUNE" transform="translate(1890.36328125, 235.5)"><rect class="basic label-container" style="fill:#e3f2fd;stroke:#1a4d2e;" rx="0" ry="0" x="-78.75" y="-25.5" width="157.5" height="51"/><g class="label" style="" transform="translate(0, -18)"><rect/><text style=""><tspan xml:space="preserve" dy="1em" x="0" class="row">வெட்டித்திருத்தம்</tspan><tspan xml:space="preserve" dy="1em" x="0" class="row">(Pruning)</tspan></text></g></g></g></g></g></svg>