<svg id="my-svg" width="3117.7109375" xmlns="http://www.w3.org/2000/svg" xmlns:xlink="http://www.w3.org/1999/xlink" height="285" viewBox="-8 -8 3117.7109375 285" role="graphics-document document" aria-roledescription="flowchart-v2" style="background-color: transparent;"><style>#my-svg{font-family:'Noto Sans Tamil','Latha','Arial Unicode MS',sans-serif;font-size:16px;fill:#333;}#my-svg .error-icon{fill:#552222;}#my-svg .error-text{fill:#552222;stroke:#552222;}#my-svg .edge-thickness-normal{stroke-width:2px;}#my-svg .edge-thickness-thick{stroke-width:3.5px;}#my-svg .edge-pattern-solid{stroke-dasharray:0;}#my-svg .edge-pattern-dashed{stroke-dasharray:3;}#my-svg .edge-pattern-dotted{stroke-dasharray:2;}#my-svg .marker{fill:#333333;stroke:#333333;}#my-svg .marker.cross{stroke:#333333;}#my-svg svg{font-family:'Noto Sans Tamil','Latha','Arial Unicode MS',sans-serif;font-size:16px;}#my-svg .label{font-family:'Noto Sans Tamil','Latha','Arial Unicode MS',sans-serif;color:#333;}#my-svg .cluster-label text{fill:#333;}#my-svg .cluster-label span,#my-svg p{color:#333;}#my-svg .label text,#my-svg span,#my-svg p{fill:#333;color:#333;}#my-svg .node rect,#my-svg .node circle,#my-svg .node ellipse,#my-svg .node polygon,#my-svg .node path{fill:#ECECFF;stroke:#9370DB;stroke-width:1px;}#my-svg .flowchart-label text{text-anchor:middle;}#my-svg .node .katex path{fill:#000;stroke:#000;stroke-width:1px;}#my-svg .node .label{text-align:center;}#my-svg .node.clickable{cursor:pointer;}#my-svg .arrowheadPath{fill:#333333;}#my-svg .edgePath .path{stroke:#333333;stroke-width:2.0px;}#my-svg .flowchart-link{stroke:#333333;fill:none;}#my-svg .edgeLabel{background-color:#e8e8e8;text-align:center;}#my-svg .edgeLabel rect{opacity:0.5;background-color:#e8e8e8;fill:#e8e8e8;}#my-svg .labelBkg{background-color:rgba(232, 232, 232, 0.5);}#my-svg .cluster rect{fill:#ffffde;stroke:#aaaa33;stroke-width:1px;}#my-svg .cluster text{fill:#333;}#my-svg .cluster span,#my-svg p{color:#333;}#my-svg div.mermaidTooltip{position:absolute;text-align:center;max-width:200px;padding:2px;font-family:'Noto Sans Tamil','Latha','Arial Unicode MS',sans-serif;font-size:12px;background:hsl(80, 100%, 96.2745098039%);border:1px solid #aaaa33;border-radius:2px;pointer-events:none;z-index:100;}#my-svg .flowchartTitleText{text-anchor:middle;font-size:18px;fill:#333;}#my-svg text,#my-svg tspan,#my-svg .nodeLabel,#my-svg .edgeLabel{font-family:"Noto Sans Tamil",Latha,"Arial Unicode MS",sans-serif!important;}#my-svg .edgeLabel rect{fill:rgba(255, 255, 255, 0.85)!important;}#my-svg :root{--mermaid-font-family:"trebuchet ms",verdana,arial,sans-serif;}</style><g><marker id="my-svg_flowchart-pointEnd" class="marker flowchart" viewBox="0 0 10 10" refX="6" refY="5" markerUnits="userSpaceOnUse" markerWidth="12" markerHeight="12" orient="auto"><path d="M 0 0 L 10 5 L 0 10 z" class="arrowMarkerPath" style="stroke-width: 1; stroke-dasharray: 1, 0;"/></marker><marker id="my-svg_flowchart-pointStart" class="marker flowchart" viewBox="0 0 10 10" refX="4.5" refY="5" markerUnits="userSpaceOnUse" markerWidth="12" markerHeight="12" orient="auto"><path d="M 0 5 L 10 10 L 10 0 z" class="arrowMarkerPath" style="stroke-width: 1; stroke-dasharray: 1, 0;"/></marker><marker id="my-svg_flowchart-circleEnd" class="marker flowchart" viewBox="0 0 10 10" refX="11" refY="5" markerUnits="userSpaceOnUse" markerWidth="11" markerHeight="11" orient="auto"><circle cx="5" cy="5" r="5" class="arrowMarkerPath" style="stroke-width: 1; stroke-dasharray: 1, 0;"/></marker><marker id="my-svg_flowchart-circleStart" class="marker flowchart" viewBox="0 0 10 10" refX="-1" refY="5" markerUnits="userSpaceOnUse" markerWidth="11" markerHeight="11" orient="auto"><circle cx="5" cy="5" r="5" class="arrowMarkerPath" style="stroke-width: 1; stroke-dasharray: 1, 0;"/></marker><marker id="my-svg_flowchart-crossEnd" class="marker cross flowchart" viewBox="0 0 11 11" refX="12" refY="5.2" markerUnits="userSpaceOnUse" markerWidth="11" markerHeight="11" orient="auto"><path d="M 1,1 l 9,9 M 10,1 l -9,9" class="arrowMarkerPath" style="stroke-width: 2; stroke-dasharray: 1, 0;"/></marker><marker id="my-svg_flowchart-crossStart" class="marker cross flowchart" viewBox="0 0 11 11" refX="-1" refY="5.2" markerUnits="userSpaceOnUse" markerWidth="11" markerHeight="11" orient="auto"><path d="M 1,1 l 9,9 M 10,1 l -9,9" class="arrowMarkerPath" style="stroke-width: 2; stroke-dasharray: 1, 0;"/></marker><g class="root"><g class="clusters"/><g class="edgePaths"><path d="M1393.801,30.15L1231.084,37.791C1068.367,45.433,742.934,60.717,580.217,71.642C417.5,82.567,417.5,89.133,417.5,92.417L417.5,95.7" id="L-NLP-ANALYSIS-0" class="edge-thickness-normal edge-pattern-solid flowchart-link LS-NLP LE-ANALYSIS" style="fill:none;" marker-end="url(#my-svg_flowchart-pointEnd)"/><path d="M1393.801,34.679L1319.514,41.566C1245.227,48.452,1096.652,62.226,1022.365,72.396C948.078,82.567,948.078,89.133,948.078,92.417L948.078,95.7" id="L-NLP-SENT-0" class="edge-thickness-normal edge-pattern-solid flowchart-link LS-NLP LE-SENT" style="fill:none;" marker-end="url(#my-svg_flowchart-pointEnd)"/><path d="M1492.809,51L1492.809,55.167C1492.809,59.333,1492.809,67.667,1492.809,75.117C1492.809,82.567,1492.809,89.133,1492.809,92.417L1492.809,95.7" id="L-NLP-GEN-0" class="edge-thickness-normal edge-pattern-solid flowchart-link LS-NLP LE-GEN" style="fill:none;" marker-end="url(#my-svg_flowchart-pointEnd)"/><path d="M1591.816,31.542L1713.232,38.952C1834.648,46.361,2077.479,61.181,2198.895,71.874C2320.311,82.567,2320.311,89.133,2320.311,92.417L2320.311,95.7" id="L-NLP-TEXT-0" class="edge-thickness-normal edge-pattern-solid flowchart-link LS-NLP LE-TEXT" style="fill:none;" marker-end="url(#my-svg_flowchart-pointEnd)"/><path d="M1591.816,29.031L1811.326,36.859C2030.836,44.687,2469.855,60.344,2689.365,71.455C2908.875,82.567,2908.875,89.133,2908.875,92.417L2908.875,95.7" id="L-NLP-SPEECH-0" class="edge-thickness-normal edge-pattern-solid flowchart-link LS-NLP LE-SPEECH" style="fill:none;" marker-end="url(#my-svg_flowchart-pointEnd)"/><path d="M361.652,135.609L319.357,142.507C277.061,149.406,192.47,163.203,150.174,174.718C107.879,186.233,107.879,195.467,107.879,200.083L107.879,204.7" id="L-ANALYSIS-NER-0" class="edge-thickness-normal edge-pattern-solid flowchart-link LS-ANALYSIS LE-NER" style="fill:none;" marker-end="url(#my-svg_flowchart-pointEnd)"/><path d="M373.346,152L366.132,156.167C358.917,160.333,344.488,168.667,337.273,176.117C330.059,183.567,330.059,190.133,330.059,193.417L330.059,196.7" id="L-ANALYSIS-POS-0" class="edge-thickness-normal edge-pattern-solid flowchart-link LS-ANALYSIS LE-POS" style="fill:none;" marker-end="url(#my-svg_flowchart-pointEnd)"/><path d="M461.654,152L468.868,156.167C476.083,160.333,490.512,168.667,497.727,177.45C504.941,186.233,504.941,195.467,504.941,200.083L504.941,204.7" id="L-ANALYSIS-COREF-0" class="edge-thickness-normal edge-pattern-solid flowchart-link LS-ANALYSIS LE-COREF" style="fill:none;" marker-end="url(#my-svg_flowchart-pointEnd)"/><path d="M473.348,136.923L509.138,143.602C544.928,150.282,616.509,163.641,652.299,174.937C688.09,186.233,688.09,195.467,688.09,200.083L688.09,204.7" id="L-ANALYSIS-REL-0" class="edge-thickness-normal edge-pattern-solid flowchart-link LS-ANALYSIS LE-REL" style="fill:none;" marker-end="url(#my-svg_flowchart-pointEnd)"/><path d="M906.887,152L900.157,156.167C893.426,160.333,879.965,168.667,873.234,177.45C866.504,186.233,866.504,195.467,866.504,200.083L866.504,204.7" id="L-SENT-SA-0" class="edge-thickness-normal edge-pattern-solid flowchart-link LS-SENT LE-SA" style="fill:none;" marker-end="url(#my-svg_flowchart-pointEnd)"/><path d="M989.269,152L996,156.167C1002.73,160.333,1016.191,168.667,1022.922,177.45C1029.652,186.233,1029.652,195.467,1029.652,200.083L1029.652,204.7" id="L-SENT-EC-0" class="edge-thickness-normal edge-pattern-solid flowchart-link LS-SENT LE-EC" style="fill:none;" marker-end="url(#my-svg_flowchart-pointEnd)"/><path d="M1397.609,143.579L1366.56,149.149C1335.51,154.719,1273.411,165.86,1242.362,176.046C1211.313,186.233,1211.313,195.467,1211.313,200.083L1211.313,204.7" id="L-GEN-MT-0" class="edge-thickness-normal edge-pattern-solid flowchart-link LS-GEN LE-MT" style="fill:none;" marker-end="url(#my-svg_flowchart-pointEnd)"/><path d="M1447.712,152L1440.343,156.167C1432.975,160.333,1418.237,168.667,1410.869,178.783C1403.5,188.9,1403.5,200.8,1403.5,206.75L1403.5,212.7" id="L-GEN-SUM-0" class="edge-thickness-normal edge-pattern-solid flowchart-link LS-GEN LE-SUM" style="fill:none;" marker-end="url(#my-svg_flowchart-pointEnd)"/><path d="M1537.905,152L1545.274,156.167C1552.642,160.333,1567.38,168.667,1574.748,177.45C1582.117,186.233,1582.117,195.467,1582.117,200.083L1582.117,204.7" id="L-GEN-QA-0" class="edge-thickness-normal edge-pattern-solid flowchart-link LS-GEN LE-QA" style="fill:none;" marker-end="url(#my-svg_flowchart-pointEnd)"/><path d="M1588.008,142.758L1621.424,148.465C1654.84,154.172,1721.672,165.586,1755.088,175.91C1788.504,186.233,1788.504,195.467,1788.504,200.083L1788.504,204.7" id="L-GEN-SEQ-0" class="edge-thickness-normal edge-pattern-solid flowchart-link LS-GEN LE-SEQ" style="fill:none;" marker-end="url(#my-svg_flowchart-pointEnd)"/><path d="M2227.432,141.645L2191.295,147.538C2155.159,153.43,2082.886,165.215,2046.75,175.724C2010.613,186.233,2010.613,195.467,2010.613,200.083L2010.613,204.7" id="L-TEXT-TOK-0" class="edge-thickness-normal edge-pattern-solid flowchart-link LS-TEXT LE-TOK" style="fill:none;" marker-end="url(#my-svg_flowchart-pointEnd)"/><path d="M2272.734,152L2264.96,156.167C2257.186,160.333,2241.638,168.667,2233.864,178.783C2226.09,188.9,2226.09,200.8,2226.09,206.75L2226.09,212.7" id="L-TEXT-CHUNK-0" class="edge-thickness-normal edge-pattern-solid flowchart-link LS-TEXT LE-CHUNK" style="fill:none;" marker-end="url(#my-svg_flowchart-pointEnd)"/><path d="M2367.887,152L2375.661,156.167C2383.435,160.333,2398.983,168.667,2406.757,177.45C2414.531,186.233,2414.531,195.467,2414.531,200.083L2414.531,204.7" id="L-TEXT-NGRAM-0" class="edge-thickness-normal edge-pattern-solid flowchart-link LS-TEXT LE-NGRAM" style="fill:none;" marker-end="url(#my-svg_flowchart-pointEnd)"/><path d="M2413.189,143.89L2442.662,149.409C2472.134,154.927,2531.079,165.963,2560.551,176.098C2590.023,186.233,2590.023,195.467,2590.023,200.083L2590.023,204.7" id="L-TEXT-CORPUS-0" class="edge-thickness-normal edge-pattern-solid flowchart-link LS-TEXT LE-CORPUS" style="fill:none;" marker-end="url(#my-svg_flowchart-pointEnd)"/><path d="M2853.877,152L2844.89,156.167C2835.904,160.333,2817.93,168.667,2808.944,177.45C2799.957,186.233,2799.957,195.467,2799.957,200.083L2799.957,204.7" id="L-SPEECH-STT-0" class="edge-thickness-normal edge-pattern-solid flowchart-link LS-SPEECH LE-STT" style="fill:none;" marker-end="url(#my-svg_flowchart-pointEnd)"/><path d="M2963.873,152L2972.86,156.167C2981.846,160.333,2999.82,168.667,3008.806,177.45C3017.793,186.233,3017.793,195.467,3017.793,200.083L3017.793,204.7" id="L-SPEECH-TTS-0" class="edge-thickness-normal edge-pattern-solid flowchart-link LS-SPEECH LE-TTS" style="fill:none;" marker-end="url(#my-svg_flowchart-pointEnd)"/></g><g class="edgeLabels"><g class="edgeLabel"><g class="label" transform="translate(0, 0)"><rect rx="0" ry="0" width="0" height="0"/><text style=""><tspan xml:space="preserve" dy="1em" x="0" class="row"/></text></g></g><g class="edgeLabel"><g class="label" transform="translate(0, 0)"><rect rx="0" ry="0" width="0" height="0"/><text style=""><tspan xml:space="preserve" dy="1em" x="0" class="row"/></text></g></g><g class="edgeLabel"><g class="label" transform="translate(0, 0)"><rect rx="0" ry="0" width="0" height="0"/><text style=""><tspan xml:space="preserve" dy="1em" x="0" class="row"/></text></g></g><g class="edgeLabel"><g class="label" transform="translate(0, 0)"><rect rx="0" ry="0" width="0" height="0"/><text style=""><tspan xml:space="preserve" dy="1em" x="0" class="row"/></text></g></g><g class="edgeLabel"><g class="label" transform="translate(0, 0)"><rect rx="0" ry="0" width="0" height="0"/><text style=""><tspan xml:space="preserve" dy="1em" x="0" class="row"/></text></g></g><g class="edgeLabel"><g class="label" transform="translate(0, 0)"><rect rx="0" ry="0" width="0" height="0"/><text style=""><tspan xml:space="preserve" dy="1em" x="0" class="row"/></text></g></g><g class="edgeLabel"><g class="label" transform="translate(0, 0)"><rect rx="0" ry="0" width="0" height="0"/><text style=""><tspan xml:space="preserve" dy="1em" x="0" class="row"/></text></g></g><g class="edgeLabel"><g class="label" transform="translate(0, 0)"><rect rx="0" ry="0" width="0" height="0"/><text style=""><tspan xml:space="preserve" dy="1em" x="0" class="row"/></text></g></g><g class="edgeLabel"><g class="label" transform="translate(0, 0)"><rect rx="0" ry="0" width="0" height="0"/><text style=""><tspan xml:space="preserve" dy="1em" x="0" class="row"/></text></g></g><g class="edgeLabel"><g class="label" transform="translate(0, 0)"><rect rx="0" ry="0" width="0" height="0"/><text style=""><tspan xml:space="preserve" dy="1em" x="0" class="row"/></text></g></g><g class="edgeLabel"><g class="label" transform="translate(0, 0)"><rect rx="0" ry="0" width="0" height="0"/><text style=""><tspan xml:space="preserve" dy="1em" x="0" class="row"/></text></g></g><g class="edgeLabel"><g class="label" transform="translate(0, 0)"><rect rx="0" ry="0" width="0" height="0"/><text style=""><tspan xml:space="preserve" dy="1em" x="0" class="row"/></text></g></g><g class="edgeLabel"><g class="label" transform="translate(0, 0)"><rect rx="0" ry="0" width="0" height="0"/><text style=""><tspan xml:space="preserve" dy="1em" x="0" class="row"/></text></g></g><g class="edgeLabel"><g class="label" transform="translate(0, 0)"><rect rx="0" ry="0" width="0" height="0"/><text style=""><tspan xml:space="preserve" dy="1em" x="0" class="row"/></text></g></g><g class="edgeLabel"><g class="label" transform="translate(0, 0)"><rect rx="0" ry="0" width="0" height="0"/><text style=""><tspan xml:space="preserve" dy="1em" x="0" class="row"/></text></g></g><g class="edgeLabel"><g class="label" transform="translate(0, 0)"><rect rx="0" ry="0" width="0" height="0"/><text style=""><tspan xml:space="preserve" dy="1em" x="0" class="row"/></text></g></g><g class="edgeLabel"><g class="label" transform="translate(0, 0)"><rect rx="0" ry="0" width="0" height="0"/><text style=""><tspan xml:space="preserve" dy="1em" x="0" class="row"/></text></g></g><g class="edgeLabel"><g class="label" transform="translate(0, 0)"><rect rx="0" ry="0" width="0" height="0"/><text style=""><tspan xml:space="preserve" dy="1em" x="0" class="row"/></text></g></g><g class="edgeLabel"><g class="label" transform="translate(0, 0)"><rect rx="0" ry="0" width="0" height="0"/><text style=""><tspan xml:space="preserve" dy="1em" x="0" class="row"/></text></g></g><g class="edgeLabel"><g class="label" transform="translate(0, 0)"><rect rx="0" ry="0" width="0" height="0"/><text style=""><tspan xml:space="preserve" dy="1em" x="0" class="row"/></text></g></g><g class="edgeLabel"><g class="label" transform="translate(0, 0)"><rect rx="0" ry="0" width="0" height="0"/><text style=""><tspan xml:space="preserve" dy="1em" x="0" class="row"/></text></g></g></g><g class="nodes"><g class="node default default flowchart-label" id="flowchart-NLP-0" data-node="true" data-id="NLP" transform="translate(1492.80859375, 25.5)"><rect class="basic label-container" style="fill:#1a4d2e;stroke:#0d3a1f;" rx="0" ry="0" x="-99.0078125" y="-25.5" width="198.015625" height="51"/><g class="label" style="color:#fff;" transform="translate(0, -18)"><rect/><text style="fill:#fff;"><tspan xml:space="preserve" dy="1em" x="0" class="row">இயன்மொழியாள்கை</tspan><tspan xml:space="preserve" dy="1em" x="0" class="row">(NLP)</tspan></text></g></g><g class="node default default flowchart-label" id="flowchart-ANALYSIS-1" data-node="true" data-id="ANALYSIS" transform="translate(417.5, 126.5)"><rect class="basic label-container" style="fill:#1a4d2e;stroke:#0d3a1f;" rx="0" ry="0" x="-55.84765625" y="-25.5" width="111.6953125" height="51"/><g class="label" style="color:#fff;" transform="translate(0, -18)"><rect/><text style="fill:#fff;"><tspan xml:space="preserve" dy="1em" x="0" class="row">மொழிப்</tspan><tspan xml:space="preserve" dy="1em" x="0" class="row">பகுப்பாய்வு</tspan></text></g></g><g class="node default default flowchart-label" id="flowchart-SENT-3" data-node="true" data-id="SENT" transform="translate(948.078125, 126.5)"><rect class="basic label-container" style="fill:#1a4d2e;stroke:#0d3a1f;" rx="0" ry="0" x="-69.4140625" y="-25.5" width="138.828125" height="51"/><g class="label" style="color:#fff;" transform="translate(0, -18)"><rect/><text style="fill:#fff;"><tspan xml:space="preserve" dy="1em" x="0" class="row">உணர்வு &amp;amp;</tspan><tspan xml:space="preserve" dy="1em" x="0" class="row">உள்ளுணர்வு</tspan></text></g></g><g class="node default default flowchart-label" id="flowchart-GEN-5" data-node="true" data-id="GEN" transform="translate(1492.80859375, 126.5)"><rect class="basic label-container" style="fill:#1a4d2e;stroke:#0d3a1f;" rx="0" ry="0" x="-95.19921875" y="-25.5" width="190.3984375" height="51"/><g class="label" style="color:#fff;" transform="translate(0, -18)"><rect/><text style="fill:#fff;"><tspan xml:space="preserve" dy="1em" x="0" class="row">மொழிமாற்றம் &amp;amp;</tspan><tspan xml:space="preserve" dy="1em" x="0" class="row">உருவாக்கம்</tspan></text></g></g><g class="node default default flowchart-label" id="flowchart-TEXT-7" data-node="true" data-id="TEXT" transform="translate(2320.310546875, 126.5)"><rect class="basic label-container" style="fill:#1a4d2e;stroke:#0d3a1f;" rx="0" ry="0" x="-92.87890625" y="-25.5" width="185.7578125" height="51"/><g class="label" style="color:#fff;" transform="translate(0, -18)"><rect/><text style="fill:#fff;"><tspan xml:space="preserve" dy="1em" x="0" class="row">உரைப் பகுப்பு &amp;amp;</tspan><tspan xml:space="preserve" dy="1em" x="0" class="row">எ-கிறுவம்</tspan></text></g></g><g class="node default default flowchart-label" id="flowchart-SPEECH-9" data-node="true" data-id="SPEECH" transform="translate(2908.875, 126.5)"><rect class="basic label-container" style="fill:#1a4d2e;stroke:#0d3a1f;" rx="0" ry="0" x="-70.58984375" y="-25.5" width="141.1796875" height="51"/><g class="label" style="color:#fff;" transform="translate(0, -18)"><rect/><text style="fill:#fff;"><tspan xml:space="preserve" dy="1em" x="0" class="row">பேச்சுத்</tspan><tspan xml:space="preserve" dy="1em" x="0" class="row">தொழில்நுட்பம்</tspan></text></g></g><g class="node default default flowchart-label" id="flowchart-NER-11" data-node="true" data-id="NER" transform="translate(107.87890625, 235.5)"><rect class="basic label-container" style="fill:#e8f5e9;stroke:#1a4d2e;" rx="0" ry="0" x="-107.87890625" y="-25.5" width="215.7578125" height="51"/><g class="label" style="" transform="translate(0, -18)"><rect/><text style=""><tspan xml:space="preserve" dy="1em" x="0" class="row">பெயர்ச்சொல்லுணர்தல்</tspan><tspan xml:space="preserve" dy="1em" x="0" class="row">(NER)</tspan></text></g></g><g class="node default default flowchart-label" id="flowchart-POS-13" data-node="true" data-id="POS" transform="translate(330.05859375, 235.5)"><rect class="basic label-container" style="fill:#e8f5e9;stroke:#1a4d2e;" rx="0" ry="0" x="-64.30078125" y="-33.5" width="128.6015625" height="67"/><g class="label" style="" transform="translate(0, -26)"><rect/><text style=""><tspan xml:space="preserve" dy="1em" x="0" class="row">சொல்வகைக்</tspan><tspan xml:space="preserve" dy="1em" x="0" class="row">குறியிடுதல்</tspan><tspan xml:space="preserve" dy="1em" x="0" class="row">(POS Tagging)</tspan></text></g></g><g class="node default default flowchart-label" id="flowchart-COREF-15" data-node="true" data-id="COREF" transform="translate(504.94140625, 235.5)"><rect class="basic label-container" style="fill:#e8f5e9;stroke:#1a4d2e;" rx="0" ry="0" x="-60.58203125" y="-25.5" width="121.1640625" height="51"/><g class="label" style="" transform="translate(0, -18)"><rect/><text style=""><tspan xml:space="preserve" dy="1em" x="0" class="row">சுட்டுப்பெயர்</tspan><tspan xml:space="preserve" dy="1em" x="0" class="row">இணைப்பு</tspan></text></g></g><g class="node default default flowchart-label" id="flowchart-REL-17" data-node="true" data-id="REL" transform="translate(688.08984375, 235.5)"><rect class="basic label-container" style="fill:#e8f5e9;stroke:#1a4d2e;" rx="0" ry="0" x="-72.56640625" y="-25.5" width="145.1328125" height="51"/><g class="label" style="" transform="translate(0, -18)"><rect/><text style=""><tspan xml:space="preserve" dy="1em" x="0" class="row">தொடர்பு</tspan><tspan xml:space="preserve" dy="1em" x="0" class="row">பிரித்தெடுத்தல்</tspan></text></g></g><g class="node default default flowchart-label" id="flowchart-SA-19" data-node="true" data-id="SA" transform="translate(866.50390625, 235.5)"><rect class="basic label-container" style="fill:#e8f5e9;stroke:#1a4d2e;" rx="0" ry="0" x="-55.84765625" y="-25.5" width="111.6953125" height="51"/><g class="label" style="" transform="translate(0, -18)"><rect/><text style=""><tspan xml:space="preserve" dy="1em" x="0" class="row">உணர்வுப்</tspan><tspan xml:space="preserve" dy="1em" x="0" class="row">பகுப்பாய்வு</tspan></text></g></g><g class="node default default flowchart-label" id="flowchart-EC-21" data-node="true" data-id="EC" transform="translate(1029.65234375, 235.5)"><rect class="basic label-container" style="fill:#e8f5e9;stroke:#1a4d2e;" rx="0" ry="0" x="-57.30078125" y="-25.5" width="114.6015625" height="51"/><g class="label" style="" transform="translate(0, -18)"><rect/><text style=""><tspan xml:space="preserve" dy="1em" x="0" class="row">உணர்வு</tspan><tspan xml:space="preserve" dy="1em" x="0" class="row">வகைப்பாடு</tspan></text></g></g><g class="node default default flowchart-label" id="flowchart-MT-23" data-node="true" data-id="MT" transform="translate(1211.3125, 235.5)"><rect class="basic label-container" style="fill:#e3f2fd;stroke:#1a4d2e;" rx="0" ry="0" x="-74.359375" y="-25.5" width="148.71875" height="51"/><g class="label" style="" transform="translate(0, -18)"><rect/><text style=""><tspan xml:space="preserve" dy="1em" x="0" class="row">இயந்திர</tspan><tspan xml:space="preserve" dy="1em" x="0" class="row">மொழிபெயர்ப்பு</tspan></text></g></g><g class="node default default flowchart-label" id="flowchart-SUM-25" data-node="true" data-id="SUM" transform="translate(1403.5, 235.5)"><rect class="basic label-container" style="fill:#e3f2fd;stroke:#1a4d2e;" rx="0" ry="0" x="-67.828125" y="-17.5" width="135.65625" height="35"/><g class="label" style="" transform="translate(0, -10)"><rect/><text style=""><tspan xml:space="preserve" dy="1em" x="0" class="row">சுருக்கமிடுதல்</tspan></text></g></g><g class="node default default flowchart-label" id="flowchart-QA-27" data-node="true" data-id="QA" transform="translate(1582.1171875, 235.5)"><rect class="basic label-container" style="fill:#e3f2fd;stroke:#1a4d2e;" rx="0" ry="0" x="-60.7890625" y="-25.5" width="121.578125" height="51"/><g class="label" style="" transform="translate(0, -18)"><rect/><text style=""><tspan xml:space="preserve" dy="1em" x="0" class="row">வினா-விடை</tspan><tspan xml:space="preserve" dy="1em" x="0" class="row">(QA)</tspan></text></g></g><g class="node default default flowchart-label" id="flowchart-SEQ-29" data-node="true" data-id="SEQ" transform="translate(1788.50390625, 235.5)"><rect class="basic label-container" style="fill:#e3f2fd;stroke:#1a4d2e;" rx="0" ry="0" x="-95.59765625" y="-25.5" width="191.1953125" height="51"/><g class="label" style="" transform="translate(0, -18)"><rect/><text style=""><tspan xml:space="preserve" dy="1em" x="0" class="row">தொடர்-முதல்-தொடர்</tspan><tspan xml:space="preserve" dy="1em" x="0" class="row">(Seq2Seq)</tspan></text></g></g><g class="node default default flowchart-label" id="flowchart-TOK-31" data-node="true" data-id="TOK" transform="translate(2010.61328125, 235.5)"><rect class="basic label-container" style="fill:#e8f5e9;stroke:#1a4d2e;" rx="0" ry="0" x="-76.51171875" y="-25.5" width="153.0234375" height="51"/><g class="label" style="" transform="translate(0, -18)"><rect/><text style=""><tspan xml:space="preserve" dy="1em" x="0" class="row">தொடருடைத்தல்</tspan><tspan xml:space="preserve" dy="1em" x="0" class="row">(Tokenization)</tspan></text></g></g><g class="node default default flowchart-label" id="flowchart-CHUNK-33" data-node="true" data-id="CHUNK" transform="translate(2226.08984375, 235.5)"><rect class="basic label-container" style="fill:#e8f5e9;stroke:#1a4d2e;" rx="0" ry="0" x="-88.96484375" y="-17.5" width="177.9296875" height="35"/><g class="label" style="" transform="translate(0, -10)"><rect/><text style=""><tspan xml:space="preserve" dy="1em" x="0" class="row">உரைத்துண்டாக்கம்</tspan></text></g></g><g class="node default default flowchart-label" id="flowchart-NGRAM-35" data-node="true" data-id="NGRAM" transform="translate(2414.53125, 235.5)"><rect class="basic label-container" style="fill:#e8f5e9;stroke:#1a4d2e;" rx="0" ry="0" x="-49.4765625" y="-25.5" width="98.953125" height="51"/><g class="label" style="" transform="translate(0, -18)"><rect/><text style=""><tspan xml:space="preserve" dy="1em" x="0" class="row">எ-கிறுவம்</tspan><tspan xml:space="preserve" dy="1em" x="0" class="row">(N-gram)</tspan></text></g></g><g class="node default default flowchart-label" id="flowchart-CORPUS-37" data-node="true" data-id="CORPUS" transform="translate(2590.0234375, 235.5)"><rect class="basic label-container" style="fill:#e8f5e9;stroke:#1a4d2e;" rx="0" ry="0" x="-76.015625" y="-25.5" width="152.03125" height="51"/><g class="label" style="" transform="translate(0, -18)"><rect/><text style=""><tspan xml:space="preserve" dy="1em" x="0" class="row">உரைத்தொகுப்பு</tspan><tspan xml:space="preserve" dy="1em" x="0" class="row">(Corpus)</tspan></text></g></g><g class="node default default flowchart-label" id="flowchart-STT-39" data-node="true" data-id="STT" transform="translate(2799.95703125, 235.5)"><rect class="basic label-container" style="fill:#e3f2fd;stroke:#1a4d2e;" rx="0" ry="0" x="-83.91796875" y="-25.5" width="167.8359375" height="51"/><g class="label" style="" transform="translate(0, -18)"><rect/><text style=""><tspan xml:space="preserve" dy="1em" x="0" class="row">பேச்சு-முதல்-உரை</tspan><tspan xml:space="preserve" dy="1em" x="0" class="row">(STT)</tspan></text></g></g><g class="node default default flowchart-label" id="flowchart-TTS-41" data-node="true" data-id="TTS" transform="translate(3017.79296875, 235.5)"><rect class="basic label-container" style="fill:#e3f2fd;stroke:#1a4d2e;" rx="0" ry="0" x="-83.91796875" y="-25.5" width="167.8359375" height="51"/><g class="label" style="" transform="translate(0, -18)"><rect/><text style=""><tspan xml:space="preserve" dy="1em" x="0" class="row">உரை-முதல்-பேச்சு</tspan><tspan xml:space="preserve" dy="1em" x="0" class="row">(TTS)</tspan></text></g></g></g></g></g></svg>