<svg id="my-svg" width="1008.939453125" xmlns="http://www.w3.org/2000/svg" xmlns:xlink="http://www.w3.org/1999/xlink" height="737" viewBox="-8 -8 1008.939453125 737" role="graphics-document document" aria-roledescription="flowchart-v2" style="background-color: transparent;"><style>#my-svg{font-family:'Noto Sans Tamil','Latha','Arial Unicode MS',sans-serif;font-size:16px;fill:#333;}#my-svg .error-icon{fill:#552222;}#my-svg .error-text{fill:#552222;stroke:#552222;}#my-svg .edge-thickness-normal{stroke-width:2px;}#my-svg .edge-thickness-thick{stroke-width:3.5px;}#my-svg .edge-pattern-solid{stroke-dasharray:0;}#my-svg .edge-pattern-dashed{stroke-dasharray:3;}#my-svg .edge-pattern-dotted{stroke-dasharray:2;}#my-svg .marker{fill:#333333;stroke:#333333;}#my-svg .marker.cross{stroke:#333333;}#my-svg svg{font-family:'Noto Sans Tamil','Latha','Arial Unicode MS',sans-serif;font-size:16px;}#my-svg .label{font-family:'Noto Sans Tamil','Latha','Arial Unicode MS',sans-serif;color:#333;}#my-svg .cluster-label text{fill:#333;}#my-svg .cluster-label span,#my-svg p{color:#333;}#my-svg .label text,#my-svg span,#my-svg p{fill:#333;color:#333;}#my-svg .node rect,#my-svg .node circle,#my-svg .node ellipse,#my-svg .node polygon,#my-svg .node path{fill:#ECECFF;stroke:#9370DB;stroke-width:1px;}#my-svg .flowchart-label text{text-anchor:middle;}#my-svg .node .katex path{fill:#000;stroke:#000;stroke-width:1px;}#my-svg .node .label{text-align:center;}#my-svg .node.clickable{cursor:pointer;}#my-svg .arrowheadPath{fill:#333333;}#my-svg .edgePath .path{stroke:#333333;stroke-width:2.0px;}#my-svg .flowchart-link{stroke:#333333;fill:none;}#my-svg .edgeLabel{background-color:#e8e8e8;text-align:center;}#my-svg .edgeLabel rect{opacity:0.5;background-color:#e8e8e8;fill:#e8e8e8;}#my-svg .labelBkg{background-color:rgba(232, 232, 232, 0.5);}#my-svg .cluster rect{fill:#ffffde;stroke:#aaaa33;stroke-width:1px;}#my-svg .cluster text{fill:#333;}#my-svg .cluster span,#my-svg p{color:#333;}#my-svg div.mermaidTooltip{position:absolute;text-align:center;max-width:200px;padding:2px;font-family:'Noto Sans Tamil','Latha','Arial Unicode MS',sans-serif;font-size:12px;background:hsl(80, 100%, 96.2745098039%);border:1px solid #aaaa33;border-radius:2px;pointer-events:none;z-index:100;}#my-svg .flowchartTitleText{text-anchor:middle;font-size:18px;fill:#333;}#my-svg text,#my-svg tspan,#my-svg .nodeLabel,#my-svg .edgeLabel{font-family:"Noto Sans Tamil",Latha,"Arial Unicode MS",sans-serif!important;}#my-svg .edgeLabel rect{fill:rgba(255, 255, 255, 0.85)!important;}#my-svg :root{--mermaid-font-family:"trebuchet ms",verdana,arial,sans-serif;}</style><g><marker id="my-svg_flowchart-pointEnd" class="marker flowchart" viewBox="0 0 10 10" refX="6" refY="5" markerUnits="userSpaceOnUse" markerWidth="12" markerHeight="12" orient="auto"><path d="M 0 0 L 10 5 L 0 10 z" class="arrowMarkerPath" style="stroke-width: 1; stroke-dasharray: 1, 0;"/></marker><marker id="my-svg_flowchart-pointStart" class="marker flowchart" viewBox="0 0 10 10" refX="4.5" refY="5" markerUnits="userSpaceOnUse" markerWidth="12" markerHeight="12" orient="auto"><path d="M 0 5 L 10 10 L 10 0 z" class="arrowMarkerPath" style="stroke-width: 1; stroke-dasharray: 1, 0;"/></marker><marker id="my-svg_flowchart-circleEnd" class="marker flowchart" viewBox="0 0 10 10" refX="11" refY="5" markerUnits="userSpaceOnUse" markerWidth="11" markerHeight="11" orient="auto"><circle cx="5" cy="5" r="5" class="arrowMarkerPath" style="stroke-width: 1; stroke-dasharray: 1, 0;"/></marker><marker id="my-svg_flowchart-circleStart" class="marker flowchart" viewBox="0 0 10 10" refX="-1" refY="5" markerUnits="userSpaceOnUse" markerWidth="11" markerHeight="11" orient="auto"><circle cx="5" cy="5" r="5" class="arrowMarkerPath" style="stroke-width: 1; stroke-dasharray: 1, 0;"/></marker><marker id="my-svg_flowchart-crossEnd" class="marker cross flowchart" viewBox="0 0 11 11" refX="12" refY="5.2" markerUnits="userSpaceOnUse" markerWidth="11" markerHeight="11" orient="auto"><path d="M 1,1 l 9,9 M 10,1 l -9,9" class="arrowMarkerPath" style="stroke-width: 2; stroke-dasharray: 1, 0;"/></marker><marker id="my-svg_flowchart-crossStart" class="marker cross flowchart" viewBox="0 0 11 11" refX="-1" refY="5.2" markerUnits="userSpaceOnUse" markerWidth="11" markerHeight="11" orient="auto"><path d="M 1,1 l 9,9 M 10,1 l -9,9" class="arrowMarkerPath" style="stroke-width: 2; stroke-dasharray: 1, 0;"/></marker><g class="root"><g class="clusters"/><g class="edgePaths"><path d="M319.641,51L311.72,55.167C303.799,59.333,287.957,67.667,280.036,75.117C272.115,82.567,272.115,89.133,272.115,92.417L272.115,95.7" id="L-EMB-VEC-0" class="edge-thickness-normal edge-pattern-solid flowchart-link LS-EMB LE-VEC" style="fill:none;" marker-end="url(#my-svg_flowchart-pointEnd)"/><path d="M416.593,51L424.514,55.167C432.435,59.333,448.277,67.667,456.198,75.117C464.119,82.567,464.119,89.133,464.119,92.417L464.119,95.7" id="L-EMB-CTX-0" class="edge-thickness-normal edge-pattern-solid flowchart-link LS-EMB LE-CTX" style="fill:none;" marker-end="url(#my-svg_flowchart-pointEnd)"/><path d="M186.412,160.7L168.803,166.084C151.194,171.467,115.976,182.233,98.367,192.233C80.758,202.233,80.758,211.467,80.758,216.083L80.758,220.7" id="L-VEC-LS-0" class="edge-thickness-normal edge-pattern-solid flowchart-link LS-VEC LE-LS" style="fill:none;" marker-end="url(#my-svg_flowchart-pointEnd)"/><path d="M281.203,168L282.333,172.167C283.463,176.333,285.724,184.667,286.854,193.45C287.984,202.233,287.984,211.467,287.984,216.083L287.984,220.7" id="L-VEC-CS-0" class="edge-thickness-normal edge-pattern-solid flowchart-link LS-VEC LE-CS" style="fill:none;" marker-end="url(#my-svg_flowchart-pointEnd)"/><path d="M357.818,159.785L376.582,165.321C395.346,170.856,432.874,181.928,451.638,190.747C470.402,199.567,470.402,206.133,470.402,209.417L470.402,212.7" id="L-VEC-VDB-0" class="edge-thickness-normal edge-pattern-solid flowchart-link LS-VEC LE-VDB" style="fill:none;" marker-end="url(#my-svg_flowchart-pointEnd)"/><path d="M414.453,266.981L388.54,274.151C362.627,281.32,310.801,295.66,284.888,307.447C258.975,319.233,258.975,328.467,258.975,333.083L258.975,337.7" id="L-VDB-VS-0" class="edge-thickness-normal edge-pattern-solid flowchart-link LS-VDB LE-VS" style="fill:none;" marker-end="url(#my-svg_flowchart-pointEnd)"/><path d="M467.314,285L466.93,289.167C466.546,293.333,465.778,301.667,465.394,310.45C465.01,319.233,465.01,328.467,465.01,333.083L465.01,337.7" id="L-VDB-NS-0" class="edge-thickness-normal edge-pattern-solid flowchart-link LS-VDB LE-NS" style="fill:none;" marker-end="url(#my-svg_flowchart-pointEnd)"/><path d="M526.352,265.379L556.332,272.815C586.313,280.252,646.275,295.126,676.256,305.846C706.236,316.567,706.236,323.133,706.236,326.417L706.236,329.7" id="L-VDB-RAG-0" class="edge-thickness-normal edge-pattern-solid flowchart-link LS-VDB LE-RAG" style="fill:none;" marker-end="url(#my-svg_flowchart-pointEnd)"/><path d="M594.119,389.594L560.982,395.828C527.846,402.063,461.572,414.531,428.436,424.049C395.299,433.567,395.299,440.133,395.299,443.417L395.299,446.7" id="L-RAG-GRAG-0" class="edge-thickness-normal edge-pattern-solid flowchart-link LS-RAG LE-GRAG" style="fill:none;" marker-end="url(#my-svg_flowchart-pointEnd)"/><path d="M700.237,402L699.491,406.167C698.745,410.333,697.252,418.667,696.506,426.117C695.76,433.567,695.76,440.133,695.76,443.417L695.76,446.7" id="L-RAG-GRD-0" class="edge-thickness-normal edge-pattern-solid flowchart-link LS-RAG LE-GRD" style="fill:none;" marker-end="url(#my-svg_flowchart-pointEnd)"/><path d="M395.299,503L395.299,507.167C395.299,511.333,395.299,519.667,395.299,527.117C395.299,534.567,395.299,541.133,395.299,544.417L395.299,547.7" id="L-GRAG-KG-0" class="edge-thickness-normal edge-pattern-solid flowchart-link LS-GRAG LE-KG" style="fill:none;" marker-end="url(#my-svg_flowchart-pointEnd)"/><path d="M315.471,596.947L292.352,602.289C269.234,607.631,222.997,618.316,199.878,628.274C176.76,638.233,176.76,647.467,176.76,652.083L176.76,656.7" id="L-KG-KB-0" class="edge-thickness-normal edge-pattern-solid flowchart-link LS-KG LE-KB" style="fill:none;" marker-end="url(#my-svg_flowchart-pointEnd)"/><path d="M395.299,604L395.299,608.167C395.299,612.333,395.299,620.667,395.299,628.117C395.299,635.567,395.299,642.133,395.299,645.417L395.299,648.7" id="L-KG-ONT-0" class="edge-thickness-normal edge-pattern-solid flowchart-link LS-KG LE-ONT" style="fill:none;" marker-end="url(#my-svg_flowchart-pointEnd)"/><path d="M818.354,400.893L833.414,405.244C848.475,409.595,878.596,418.298,893.656,425.932C908.717,433.567,908.717,440.133,908.717,443.417L908.717,446.7" id="L-RAG-SK-0" class="edge-thickness-normal edge-pattern-solid flowchart-link LS-RAG LE-SK" style="fill:none;" marker-end="url(#my-svg_flowchart-pointEnd)"/></g><g class="edgeLabels"><g class="edgeLabel"><g class="label" transform="translate(0, 0)"><rect rx="0" ry="0" width="0" height="0"/><text style=""><tspan xml:space="preserve" dy="1em" x="0" class="row"/></text></g></g><g class="edgeLabel"><g class="label" transform="translate(0, 0)"><rect rx="0" ry="0" width="0" height="0"/><text style=""><tspan xml:space="preserve" dy="1em" x="0" class="row"/></text></g></g><g class="edgeLabel"><g class="label" transform="translate(0, 0)"><rect rx="0" ry="0" width="0" height="0"/><text style=""><tspan xml:space="preserve" dy="1em" x="0" class="row"/></text></g></g><g class="edgeLabel"><g class="label" transform="translate(0, 0)"><rect rx="0" ry="0" width="0" height="0"/><text style=""><tspan xml:space="preserve" dy="1em" x="0" class="row"/></text></g></g><g class="edgeLabel"><g class="label" transform="translate(0, 0)"><rect rx="0" ry="0" width="0" height="0"/><text style=""><tspan xml:space="preserve" dy="1em" x="0" class="row"/></text></g></g><g class="edgeLabel"><g class="label" transform="translate(0, 0)"><rect rx="0" ry="0" width="0" height="0"/><text style=""><tspan xml:space="preserve" dy="1em" x="0" class="row"/></text></g></g><g class="edgeLabel"><g class="label" transform="translate(0, 0)"><rect rx="0" ry="0" width="0" height="0"/><text style=""><tspan xml:space="preserve" dy="1em" x="0" class="row"/></text></g></g><g class="edgeLabel"><g class="label" transform="translate(0, 0)"><rect rx="0" ry="0" width="0" height="0"/><text style=""><tspan xml:space="preserve" dy="1em" x="0" class="row"/></text></g></g><g class="edgeLabel"><g class="label" transform="translate(0, 0)"><rect rx="0" ry="0" width="0" height="0"/><text style=""><tspan xml:space="preserve" dy="1em" x="0" class="row"/></text></g></g><g class="edgeLabel"><g class="label" transform="translate(0, 0)"><rect rx="0" ry="0" width="0" height="0"/><text style=""><tspan xml:space="preserve" dy="1em" x="0" class="row"/></text></g></g><g class="edgeLabel"><g class="label" transform="translate(0, 0)"><rect rx="0" ry="0" width="0" height="0"/><text style=""><tspan xml:space="preserve" dy="1em" x="0" class="row"/></text></g></g><g class="edgeLabel"><g class="label" transform="translate(0, 0)"><rect rx="0" ry="0" width="0" height="0"/><text style=""><tspan xml:space="preserve" dy="1em" x="0" class="row"/></text></g></g><g class="edgeLabel"><g class="label" transform="translate(0, 0)"><rect rx="0" ry="0" width="0" height="0"/><text style=""><tspan xml:space="preserve" dy="1em" x="0" class="row"/></text></g></g><g class="edgeLabel"><g class="label" transform="translate(0, 0)"><rect rx="0" ry="0" width="0" height="0"/><text style=""><tspan xml:space="preserve" dy="1em" x="0" class="row"/></text></g></g></g><g class="nodes"><g class="node default default flowchart-label" id="flowchart-EMB-0" data-node="true" data-id="EMB" transform="translate(368.1171875, 25.5)"><rect class="basic label-container" style="fill:#1a4d2e;stroke:#0d3a1f;" rx="0" ry="0" x="-71.4609375" y="-25.5" width="142.921875" height="51"/><g class="label" style="color:#fff;" transform="translate(0, -18)"><rect/><text style="fill:#fff;"><tspan xml:space="preserve" dy="1em" x="0" class="row">உட்பொதிவுகள்</tspan><tspan xml:space="preserve" dy="1em" x="0" class="row">(Embeddings)</tspan></text></g></g><g class="node default default flowchart-label" id="flowchart-VEC-1" data-node="true" data-id="VEC" transform="translate(272.115234375, 134.5)"><rect class="basic label-container" style="fill:#1a4d2e;stroke:#0d3a1f;" rx="0" ry="0" x="-85.703125" y="-33.5" width="171.40625" height="67"/><g class="label" style="color:#fff;" transform="translate(0, -26)"><rect/><text style="fill:#fff;"><tspan xml:space="preserve" dy="1em" x="0" class="row">திசையன்</tspan><tspan xml:space="preserve" dy="1em" x="0" class="row">உட்பொதிவுகள்</tspan><tspan xml:space="preserve" dy="1em" x="0" class="row">(Vector Embeddings)</tspan></text></g></g><g class="node default default flowchart-label" id="flowchart-CTX-3" data-node="true" data-id="CTX" transform="translate(464.119140625, 134.5)"><rect class="basic label-container" style="fill:#e8f5e9;stroke:#1a4d2e;" rx="0" ry="0" x="-56.30078125" y="-33.5" width="112.6015625" height="67"/><g class="label" style="" transform="translate(0, -26)"><rect/><text style=""><tspan xml:space="preserve" dy="1em" x="0" class="row">சூழல்</tspan><tspan xml:space="preserve" dy="1em" x="0" class="row">உட்பொதிவு</tspan><tspan xml:space="preserve" dy="1em" x="0" class="row">(Contextual)</tspan></text></g></g><g class="node default default flowchart-label" id="flowchart-LS-5" data-node="true" data-id="LS" transform="translate(80.7578125, 251.5)"><rect class="basic label-container" style="fill:#e8f5e9;stroke:#1a4d2e;" rx="0" ry="0" x="-80.7578125" y="-25.5" width="161.515625" height="51"/><g class="label" style="" transform="translate(0, -18)"><rect/><text style=""><tspan xml:space="preserve" dy="1em" x="0" class="row">உள்ளுறை வெளி</tspan><tspan xml:space="preserve" dy="1em" x="0" class="row">(Latent Space)</tspan></text></g></g><g class="node default default flowchart-label" id="flowchart-CS-7" data-node="true" data-id="CS" transform="translate(287.984375, 251.5)"><rect class="basic label-container" style="fill:#e8f5e9;stroke:#1a4d2e;" rx="0" ry="0" x="-76.46875" y="-25.5" width="152.9375" height="51"/><g class="label" style="" transform="translate(0, -18)"><rect/><text style=""><tspan xml:space="preserve" dy="1em" x="0" class="row">கோண ஒப்புமை</tspan><tspan xml:space="preserve" dy="1em" x="0" class="row">(Cosine Similarity)</tspan></text></g></g><g class="node default default flowchart-label" id="flowchart-VDB-9" data-node="true" data-id="VDB" transform="translate(470.40234375, 251.5)"><rect class="basic label-container" style="fill:#1a4d2e;stroke:#0d3a1f;" rx="0" ry="0" x="-55.94921875" y="-33.5" width="111.8984375" height="67"/><g class="label" style="color:#fff;" transform="translate(0, -26)"><rect/><text style="fill:#fff;"><tspan xml:space="preserve" dy="1em" x="0" class="row">திசையன்</tspan><tspan xml:space="preserve" dy="1em" x="0" class="row">தரவுத்தளம்</tspan><tspan xml:space="preserve" dy="1em" x="0" class="row">(Vector DB)</tspan></text></g></g><g class="node default default flowchart-label" id="flowchart-VS-11" data-node="true" data-id="VS" transform="translate(258.974609375, 368.5)"><rect class="basic label-container" style="fill:#e8f5e9;stroke:#1a4d2e;" rx="0" ry="0" x="-76.92578125" y="-25.5" width="153.8515625" height="51"/><g class="label" style="" transform="translate(0, -18)"><rect/><text style=""><tspan xml:space="preserve" dy="1em" x="0" class="row">திசையன் தேடல்</tspan><tspan xml:space="preserve" dy="1em" x="0" class="row">(Vector Search)</tspan></text></g></g><g class="node default default flowchart-label" id="flowchart-NS-13" data-node="true" data-id="NS" transform="translate(465.009765625, 368.5)"><rect class="basic label-container" style="fill:#e8f5e9;stroke:#1a4d2e;" rx="0" ry="0" x="-79.109375" y="-25.5" width="158.21875" height="51"/><g class="label" style="" transform="translate(0, -18)"><rect/><text style=""><tspan xml:space="preserve" dy="1em" x="0" class="row">நரவலைத் தேடல்</tspan><tspan xml:space="preserve" dy="1em" x="0" class="row">(Neural Search)</tspan></text></g></g><g class="node default default flowchart-label" id="flowchart-RAG-15" data-node="true" data-id="RAG" transform="translate(706.236328125, 368.5)"><rect class="basic label-container" style="fill:#1a4d2e;stroke:#0d3a1f;" rx="0" ry="0" x="-112.1171875" y="-33.5" width="224.234375" height="67"/><g class="label" style="color:#fff;" transform="translate(0, -26)"><rect/><text style="fill:#fff;"><tspan xml:space="preserve" dy="1em" x="0" class="row">மீட்டெடுப்பு-மேம்படுத்திய</tspan><tspan xml:space="preserve" dy="1em" x="0" class="row">இயற்றல்</tspan><tspan xml:space="preserve" dy="1em" x="0" class="row">(RAG)</tspan></text></g></g><g class="node default default flowchart-label" id="flowchart-GRAG-17" data-node="true" data-id="GRAG" transform="translate(395.298828125, 477.5)"><rect class="basic label-container" style="fill:#e8f5e9;stroke:#1a4d2e;" rx="0" ry="0" x="-59.85546875" y="-25.5" width="119.7109375" height="51"/><g class="label" style="" transform="translate(0, -18)"><rect/><text style=""><tspan xml:space="preserve" dy="1em" x="0" class="row">வரைபட RAG</tspan><tspan xml:space="preserve" dy="1em" x="0" class="row">(GraphRAG)</tspan></text></g></g><g class="node default default flowchart-label" id="flowchart-GRD-19" data-node="true" data-id="GRD" transform="translate(695.759765625, 477.5)"><rect class="basic label-container" style="fill:#e3f2fd;stroke:#1a4d2e;" rx="0" ry="0" x="-78.734375" y="-25.5" width="157.46875" height="51"/><g class="label" style="" transform="translate(0, -18)"><rect/><text style=""><tspan xml:space="preserve" dy="1em" x="0" class="row">மெய்ப்பிணைப்பு</tspan><tspan xml:space="preserve" dy="1em" x="0" class="row">(Grounding)</tspan></text></g></g><g class="node default default flowchart-label" id="flowchart-KG-21" data-node="true" data-id="KG" transform="translate(395.298828125, 578.5)"><rect class="basic label-container" style="fill:#e8f5e9;stroke:#1a4d2e;" rx="0" ry="0" x="-79.828125" y="-25.5" width="159.65625" height="51"/><g class="label" style="" transform="translate(0, -18)"><rect/><text style=""><tspan xml:space="preserve" dy="1em" x="0" class="row">அறிவு வரைபடம்</tspan><tspan xml:space="preserve" dy="1em" x="0" class="row">(Knowledge Graph)</tspan></text></g></g><g class="node default default flowchart-label" id="flowchart-KB-23" data-node="true" data-id="KB" transform="translate(176.759765625, 687.5)"><rect class="basic label-container" style="fill:#e3f2fd;stroke:#1a4d2e;" rx="0" ry="0" x="-74.54296875" y="-25.5" width="149.0859375" height="51"/><g class="label" style="" transform="translate(0, -18)"><rect/><text style=""><tspan xml:space="preserve" dy="1em" x="0" class="row">அறிவுத்தளம்</tspan><tspan xml:space="preserve" dy="1em" x="0" class="row">(Knowledge Base)</tspan></text></g></g><g class="node default default flowchart-label" id="flowchart-ONT-25" data-node="true" data-id="ONT" transform="translate(395.298828125, 687.5)"><rect class="basic label-container" style="fill:#e3f2fd;stroke:#1a4d2e;" rx="0" ry="0" x="-93.99609375" y="-33.5" width="187.9921875" height="67"/><g class="label" style="" transform="translate(0, -26)"><rect/><text style=""><tspan xml:space="preserve" dy="1em" x="0" class="row">பொருள் உறவுமுறை</tspan><tspan xml:space="preserve" dy="1em" x="0" class="row">அமைப்பு</tspan><tspan xml:space="preserve" dy="1em" x="0" class="row">(Ontology)</tspan></text></g></g><g class="node default default flowchart-label" id="flowchart-SK-27" data-node="true" data-id="SK" transform="translate(908.716796875, 477.5)"><rect class="basic label-container" style="fill:#e3f2fd;stroke:#1a4d2e;" rx="0" ry="0" x="-84.22265625" y="-25.5" width="168.4453125" height="51"/><g class="label" style="" transform="translate(0, -18)"><rect/><text style=""><tspan xml:space="preserve" dy="1em" x="0" class="row">பொருள்சார் அகடு</tspan><tspan xml:space="preserve" dy="1em" x="0" class="row">(Semantic Kernel)</tspan></text></g></g></g></g></g></svg>