<svg id="my-svg" width="2989.34375" xmlns="http://www.w3.org/2000/svg" xmlns:xlink="http://www.w3.org/1999/xlink" height="285" viewBox="-8 -8 2989.34375 285" role="graphics-document document" aria-roledescription="flowchart-v2" style="background-color: transparent;"><style>#my-svg{font-family:'Noto Sans Tamil','Latha','Arial Unicode MS',sans-serif;font-size:16px;fill:#333;}#my-svg .error-icon{fill:#552222;}#my-svg .error-text{fill:#552222;stroke:#552222;}#my-svg .edge-thickness-normal{stroke-width:2px;}#my-svg .edge-thickness-thick{stroke-width:3.5px;}#my-svg .edge-pattern-solid{stroke-dasharray:0;}#my-svg .edge-pattern-dashed{stroke-dasharray:3;}#my-svg .edge-pattern-dotted{stroke-dasharray:2;}#my-svg .marker{fill:#333333;stroke:#333333;}#my-svg .marker.cross{stroke:#333333;}#my-svg svg{font-family:'Noto Sans Tamil','Latha','Arial Unicode MS',sans-serif;font-size:16px;}#my-svg .label{font-family:'Noto Sans Tamil','Latha','Arial Unicode MS',sans-serif;color:#333;}#my-svg .cluster-label text{fill:#333;}#my-svg .cluster-label span,#my-svg p{color:#333;}#my-svg .label text,#my-svg span,#my-svg p{fill:#333;color:#333;}#my-svg .node rect,#my-svg .node circle,#my-svg .node ellipse,#my-svg .node polygon,#my-svg .node path{fill:#ECECFF;stroke:#9370DB;stroke-width:1px;}#my-svg .flowchart-label text{text-anchor:middle;}#my-svg .node .katex path{fill:#000;stroke:#000;stroke-width:1px;}#my-svg .node .label{text-align:center;}#my-svg .node.clickable{cursor:pointer;}#my-svg .arrowheadPath{fill:#333333;}#my-svg .edgePath .path{stroke:#333333;stroke-width:2.0px;}#my-svg .flowchart-link{stroke:#333333;fill:none;}#my-svg .edgeLabel{background-color:#e8e8e8;text-align:center;}#my-svg .edgeLabel rect{opacity:0.5;background-color:#e8e8e8;fill:#e8e8e8;}#my-svg .labelBkg{background-color:rgba(232, 232, 232, 0.5);}#my-svg .cluster rect{fill:#ffffde;stroke:#aaaa33;stroke-width:1px;}#my-svg .cluster text{fill:#333;}#my-svg .cluster span,#my-svg p{color:#333;}#my-svg div.mermaidTooltip{position:absolute;text-align:center;max-width:200px;padding:2px;font-family:'Noto Sans Tamil','Latha','Arial Unicode MS',sans-serif;font-size:12px;background:hsl(80, 100%, 96.2745098039%);border:1px solid #aaaa33;border-radius:2px;pointer-events:none;z-index:100;}#my-svg .flowchartTitleText{text-anchor:middle;font-size:18px;fill:#333;}#my-svg text,#my-svg tspan,#my-svg .nodeLabel,#my-svg .edgeLabel{font-family:"Noto Sans Tamil",Latha,"Arial Unicode MS",sans-serif!important;}#my-svg .edgeLabel rect{fill:rgba(255, 255, 255, 0.85)!important;}#my-svg :root{--mermaid-font-family:"trebuchet ms",verdana,arial,sans-serif;}</style><g><marker id="my-svg_flowchart-pointEnd" class="marker flowchart" viewBox="0 0 10 10" refX="6" refY="5" markerUnits="userSpaceOnUse" markerWidth="12" markerHeight="12" orient="auto"><path d="M 0 0 L 10 5 L 0 10 z" class="arrowMarkerPath" style="stroke-width: 1; stroke-dasharray: 1, 0;"/></marker><marker id="my-svg_flowchart-pointStart" class="marker flowchart" viewBox="0 0 10 10" refX="4.5" refY="5" markerUnits="userSpaceOnUse" markerWidth="12" markerHeight="12" orient="auto"><path d="M 0 5 L 10 10 L 10 0 z" class="arrowMarkerPath" style="stroke-width: 1; stroke-dasharray: 1, 0;"/></marker><marker id="my-svg_flowchart-circleEnd" class="marker flowchart" viewBox="0 0 10 10" refX="11" refY="5" markerUnits="userSpaceOnUse" markerWidth="11" markerHeight="11" orient="auto"><circle cx="5" cy="5" r="5" class="arrowMarkerPath" style="stroke-width: 1; stroke-dasharray: 1, 0;"/></marker><marker id="my-svg_flowchart-circleStart" class="marker flowchart" viewBox="0 0 10 10" refX="-1" refY="5" markerUnits="userSpaceOnUse" markerWidth="11" markerHeight="11" orient="auto"><circle cx="5" cy="5" r="5" class="arrowMarkerPath" style="stroke-width: 1; stroke-dasharray: 1, 0;"/></marker><marker id="my-svg_flowchart-crossEnd" class="marker cross flowchart" viewBox="0 0 11 11" refX="12" refY="5.2" markerUnits="userSpaceOnUse" markerWidth="11" markerHeight="11" orient="auto"><path d="M 1,1 l 9,9 M 10,1 l -9,9" class="arrowMarkerPath" style="stroke-width: 2; stroke-dasharray: 1, 0;"/></marker><marker id="my-svg_flowchart-crossStart" class="marker cross flowchart" viewBox="0 0 11 11" refX="-1" refY="5.2" markerUnits="userSpaceOnUse" markerWidth="11" markerHeight="11" orient="auto"><path d="M 1,1 l 9,9 M 10,1 l -9,9" class="arrowMarkerPath" style="stroke-width: 2; stroke-dasharray: 1, 0;"/></marker><g class="root"><g class="clusters"/><g class="edgePaths"><path d="M1500.885,28.534L1330.044,36.445C1159.203,44.356,817.521,60.178,646.681,71.372C475.84,82.567,475.84,89.133,475.84,92.417L475.84,95.7" id="L-PROMPT-DESIGN-0" class="edge-thickness-normal edge-pattern-solid flowchart-link LS-PROMPT LE-DESIGN" style="fill:none;" marker-end="url(#my-svg_flowchart-pointEnd)"/><path d="M1500.885,36.609L1462.161,43.174C1423.437,49.74,1345.989,62.87,1307.265,72.718C1268.541,82.567,1268.541,89.133,1268.541,92.417L1268.541,95.7" id="L-PROMPT-REASON-0" class="edge-thickness-normal edge-pattern-solid flowchart-link LS-PROMPT LE-REASON" style="fill:none;" marker-end="url(#my-svg_flowchart-pointEnd)"/><path d="M1631.939,34.01L1685.828,41.008C1739.716,48.007,1847.493,62.003,1901.381,72.285C1955.27,82.567,1955.27,89.133,1955.27,92.417L1955.27,95.7" id="L-PROMPT-CONTEXT-0" class="edge-thickness-normal edge-pattern-solid flowchart-link LS-PROMPT LE-CONTEXT" style="fill:none;" marker-end="url(#my-svg_flowchart-pointEnd)"/><path d="M1631.939,28.654L1795.868,36.545C1959.796,44.436,2287.653,60.218,2451.581,71.392C2615.51,82.567,2615.51,89.133,2615.51,92.417L2615.51,95.7" id="L-PROMPT-OUTPUT-0" class="edge-thickness-normal edge-pattern-solid flowchart-link LS-PROMPT LE-OUTPUT" style="fill:none;" marker-end="url(#my-svg_flowchart-pointEnd)"/><path d="M410.313,135.111L357.183,142.092C304.053,149.074,197.794,163.037,144.665,174.635C91.535,186.233,91.535,195.467,91.535,200.083L91.535,204.7" id="L-DESIGN-PE-0" class="edge-thickness-normal edge-pattern-solid flowchart-link LS-DESIGN LE-PE" style="fill:none;" marker-end="url(#my-svg_flowchart-pointEnd)"/><path d="M410.313,144.468L390.538,149.89C370.764,155.312,331.216,166.156,311.442,174.861C291.668,183.567,291.668,190.133,291.668,193.417L291.668,196.7" id="L-DESIGN-FS-0" class="edge-thickness-normal edge-pattern-solid flowchart-link LS-DESIGN LE-FS" style="fill:none;" marker-end="url(#my-svg_flowchart-pointEnd)"/><path d="M475.84,152L475.84,156.167C475.84,160.333,475.84,168.667,475.84,176.117C475.84,183.567,475.84,190.133,475.84,193.417L475.84,196.7" id="L-DESIGN-ZS-0" class="edge-thickness-normal edge-pattern-solid flowchart-link LS-DESIGN LE-ZS" style="fill:none;" marker-end="url(#my-svg_flowchart-pointEnd)"/><path d="M541.367,143.338L563.2,148.949C585.033,154.559,628.698,165.779,650.531,174.673C672.363,183.567,672.363,190.133,672.363,193.417L672.363,196.7" id="L-DESIGN-PC-0" class="edge-thickness-normal edge-pattern-solid flowchart-link LS-DESIGN LE-PC" style="fill:none;" marker-end="url(#my-svg_flowchart-pointEnd)"/><path d="M541.367,135.14L594.279,142.117C647.191,149.093,753.016,163.047,805.928,173.307C858.84,183.567,858.84,190.133,858.84,193.417L858.84,196.7" id="L-DESIGN-PI-0" class="edge-thickness-normal edge-pattern-solid flowchart-link LS-DESIGN LE-PI" style="fill:none;" marker-end="url(#my-svg_flowchart-pointEnd)"/><path d="M1220.592,136.535L1188.366,143.279C1156.141,150.023,1091.689,163.512,1059.464,173.539C1027.238,183.567,1027.238,190.133,1027.238,193.417L1027.238,196.7" id="L-REASON-COT-0" class="edge-thickness-normal edge-pattern-solid flowchart-link LS-REASON LE-COT" style="fill:none;" marker-end="url(#my-svg_flowchart-pointEnd)"/><path d="M1222.597,152L1215.09,156.167C1207.583,160.333,1192.569,168.667,1185.062,176.117C1177.555,183.567,1177.555,190.133,1177.555,193.417L1177.555,196.7" id="L-REASON-TOT-0" class="edge-thickness-normal edge-pattern-solid flowchart-link LS-REASON LE-TOT" style="fill:none;" marker-end="url(#my-svg_flowchart-pointEnd)"/><path d="M1314.485,152L1321.992,156.167C1329.499,160.333,1344.513,168.667,1352.02,177.45C1359.527,186.233,1359.527,195.467,1359.527,200.083L1359.527,204.7" id="L-REASON-SC-0" class="edge-thickness-normal edge-pattern-solid flowchart-link LS-REASON LE-SC" style="fill:none;" marker-end="url(#my-svg_flowchart-pointEnd)"/><path d="M1316.49,134.483L1359.056,141.569C1401.621,148.655,1486.752,162.828,1529.317,174.53C1571.883,186.233,1571.883,195.467,1571.883,200.083L1571.883,204.7" id="L-REASON-RM-0" class="edge-thickness-normal edge-pattern-solid flowchart-link LS-REASON LE-RM" style="fill:none;" marker-end="url(#my-svg_flowchart-pointEnd)"/><path d="M1892.855,143.487L1872.334,149.073C1851.813,154.658,1810.77,165.829,1790.248,174.698C1769.727,183.567,1769.727,190.133,1769.727,193.417L1769.727,196.7" id="L-CONTEXT-SP-0" class="edge-thickness-normal edge-pattern-solid flowchart-link LS-CONTEXT LE-SP" style="fill:none;" marker-end="url(#my-svg_flowchart-pointEnd)"/><path d="M1955.27,152L1955.27,156.167C1955.27,160.333,1955.27,168.667,1955.27,176.117C1955.27,183.567,1955.27,190.133,1955.27,193.417L1955.27,196.7" id="L-CONTEXT-UP-0" class="edge-thickness-normal edge-pattern-solid flowchart-link LS-CONTEXT LE-UP" style="fill:none;" marker-end="url(#my-svg_flowchart-pointEnd)"/><path d="M2017.684,142.865L2039.382,148.554C2061.081,154.243,2104.478,165.622,2126.176,174.594C2147.875,183.567,2147.875,190.133,2147.875,193.417L2147.875,196.7" id="L-CONTEXT-CE-0" class="edge-thickness-normal edge-pattern-solid flowchart-link LS-CONTEXT LE-CE" style="fill:none;" marker-end="url(#my-svg_flowchart-pointEnd)"/><path d="M2553.822,137.692L2517.712,144.243C2481.602,150.794,2409.381,163.897,2373.271,173.732C2337.16,183.567,2337.16,190.133,2337.16,193.417L2337.16,196.7" id="L-OUTPUT-TEMP-0" class="edge-thickness-normal edge-pattern-solid flowchart-link LS-OUTPUT LE-TEMP" style="fill:none;" marker-end="url(#my-svg_flowchart-pointEnd)"/><path d="M2564.947,152L2556.685,156.167C2548.423,160.333,2531.899,168.667,2523.637,176.117C2515.375,183.567,2515.375,190.133,2515.375,193.417L2515.375,196.7" id="L-OUTPUT-TOPK-0" class="edge-thickness-normal edge-pattern-solid flowchart-link LS-OUTPUT LE-TOPK" style="fill:none;" marker-end="url(#my-svg_flowchart-pointEnd)"/><path d="M2666.073,152L2674.335,156.167C2682.597,160.333,2699.121,168.667,2707.383,177.45C2715.645,186.233,2715.645,195.467,2715.645,200.083L2715.645,204.7" id="L-OUTPUT-TOPP-0" class="edge-thickness-normal edge-pattern-solid flowchart-link LS-OUTPUT LE-TOPP" style="fill:none;" marker-end="url(#my-svg_flowchart-pointEnd)"/><path d="M2677.197,137.02L2716.269,143.684C2755.34,150.347,2833.482,163.673,2872.554,174.953C2911.625,186.233,2911.625,195.467,2911.625,200.083L2911.625,204.7" id="L-OUTPUT-BEAM-0" class="edge-thickness-normal edge-pattern-solid flowchart-link LS-OUTPUT LE-BEAM" style="fill:none;" marker-end="url(#my-svg_flowchart-pointEnd)"/></g><g class="edgeLabels"><g class="edgeLabel"><g class="label" transform="translate(0, 0)"><rect rx="0" ry="0" width="0" height="0"/><text style=""><tspan xml:space="preserve" dy="1em" x="0" class="row"/></text></g></g><g class="edgeLabel"><g class="label" transform="translate(0, 0)"><rect rx="0" ry="0" width="0" height="0"/><text style=""><tspan xml:space="preserve" dy="1em" x="0" class="row"/></text></g></g><g class="edgeLabel"><g class="label" transform="translate(0, 0)"><rect rx="0" ry="0" width="0" height="0"/><text style=""><tspan xml:space="preserve" dy="1em" x="0" class="row"/></text></g></g><g class="edgeLabel"><g class="label" transform="translate(0, 0)"><rect rx="0" ry="0" width="0" height="0"/><text style=""><tspan xml:space="preserve" dy="1em" x="0" class="row"/></text></g></g><g class="edgeLabel"><g class="label" transform="translate(0, 0)"><rect rx="0" ry="0" width="0" height="0"/><text style=""><tspan xml:space="preserve" dy="1em" x="0" class="row"/></text></g></g><g class="edgeLabel"><g class="label" transform="translate(0, 0)"><rect rx="0" ry="0" width="0" height="0"/><text style=""><tspan xml:space="preserve" dy="1em" x="0" class="row"/></text></g></g><g class="edgeLabel"><g class="label" transform="translate(0, 0)"><rect rx="0" ry="0" width="0" height="0"/><text style=""><tspan xml:space="preserve" dy="1em" x="0" class="row"/></text></g></g><g class="edgeLabel"><g class="label" transform="translate(0, 0)"><rect rx="0" ry="0" width="0" height="0"/><text style=""><tspan xml:space="preserve" dy="1em" x="0" class="row"/></text></g></g><g class="edgeLabel"><g class="label" transform="translate(0, 0)"><rect rx="0" ry="0" width="0" height="0"/><text style=""><tspan xml:space="preserve" dy="1em" x="0" class="row"/></text></g></g><g class="edgeLabel"><g class="label" transform="translate(0, 0)"><rect rx="0" ry="0" width="0" height="0"/><text style=""><tspan xml:space="preserve" dy="1em" x="0" class="row"/></text></g></g><g class="edgeLabel"><g class="label" transform="translate(0, 0)"><rect rx="0" ry="0" width="0" height="0"/><text style=""><tspan xml:space="preserve" dy="1em" x="0" class="row"/></text></g></g><g class="edgeLabel"><g class="label" transform="translate(0, 0)"><rect rx="0" ry="0" width="0" height="0"/><text style=""><tspan xml:space="preserve" dy="1em" x="0" class="row"/></text></g></g><g class="edgeLabel"><g class="label" transform="translate(0, 0)"><rect rx="0" ry="0" width="0" height="0"/><text style=""><tspan xml:space="preserve" dy="1em" x="0" class="row"/></text></g></g><g class="edgeLabel"><g class="label" transform="translate(0, 0)"><rect rx="0" ry="0" width="0" height="0"/><text style=""><tspan xml:space="preserve" dy="1em" x="0" class="row"/></text></g></g><g class="edgeLabel"><g class="label" transform="translate(0, 0)"><rect rx="0" ry="0" width="0" height="0"/><text style=""><tspan xml:space="preserve" dy="1em" x="0" class="row"/></text></g></g><g class="edgeLabel"><g class="label" transform="translate(0, 0)"><rect rx="0" ry="0" width="0" height="0"/><text style=""><tspan xml:space="preserve" dy="1em" x="0" class="row"/></text></g></g><g class="edgeLabel"><g class="label" transform="translate(0, 0)"><rect rx="0" ry="0" width="0" height="0"/><text style=""><tspan xml:space="preserve" dy="1em" x="0" class="row"/></text></g></g><g class="edgeLabel"><g class="label" transform="translate(0, 0)"><rect rx="0" ry="0" width="0" height="0"/><text style=""><tspan xml:space="preserve" dy="1em" x="0" class="row"/></text></g></g><g class="edgeLabel"><g class="label" transform="translate(0, 0)"><rect rx="0" ry="0" width="0" height="0"/><text style=""><tspan xml:space="preserve" dy="1em" x="0" class="row"/></text></g></g><g class="edgeLabel"><g class="label" transform="translate(0, 0)"><rect rx="0" ry="0" width="0" height="0"/><text style=""><tspan xml:space="preserve" dy="1em" x="0" class="row"/></text></g></g></g><g class="nodes"><g class="node default default flowchart-label" id="flowchart-PROMPT-0" data-node="true" data-id="PROMPT" transform="translate(1566.412109375, 25.5)"><rect class="basic label-container" style="fill:#1a4d2e;stroke:#0d3a1f;" rx="0" ry="0" x="-65.52734375" y="-25.5" width="131.0546875" height="51"/><g class="label" style="color:#fff;" transform="translate(0, -18)"><rect/><text style="fill:#fff;"><tspan xml:space="preserve" dy="1em" x="0" class="row">தூண்டுவினா</tspan><tspan xml:space="preserve" dy="1em" x="0" class="row">(Prompting)</tspan></text></g></g><g class="node default default flowchart-label" id="flowchart-DESIGN-1" data-node="true" data-id="DESIGN" transform="translate(475.83984375, 126.5)"><rect class="basic label-container" style="fill:#1a4d2e;stroke:#0d3a1f;" rx="0" ry="0" x="-65.52734375" y="-25.5" width="131.0546875" height="51"/><g class="label" style="color:#fff;" transform="translate(0, -18)"><rect/><text style="fill:#fff;"><tspan xml:space="preserve" dy="1em" x="0" class="row">தூண்டுவினா</tspan><tspan xml:space="preserve" dy="1em" x="0" class="row">வடிவமைப்பு</tspan></text></g></g><g class="node default default flowchart-label" id="flowchart-REASON-3" data-node="true" data-id="REASON" transform="translate(1268.541015625, 126.5)"><rect class="basic label-container" style="fill:#1a4d2e;stroke:#0d3a1f;" rx="0" ry="0" x="-47.94921875" y="-25.5" width="95.8984375" height="51"/><g class="label" style="color:#fff;" transform="translate(0, -18)"><rect/><text style="fill:#fff;"><tspan xml:space="preserve" dy="1em" x="0" class="row">ஏரண</tspan><tspan xml:space="preserve" dy="1em" x="0" class="row">முறைகள்</tspan></text></g></g><g class="node default default flowchart-label" id="flowchart-CONTEXT-5" data-node="true" data-id="CONTEXT" transform="translate(1955.26953125, 126.5)"><rect class="basic label-container" style="fill:#1a4d2e;stroke:#0d3a1f;" rx="0" ry="0" x="-62.4140625" y="-25.5" width="124.828125" height="51"/><g class="label" style="color:#fff;" transform="translate(0, -18)"><rect/><text style="fill:#fff;"><tspan xml:space="preserve" dy="1em" x="0" class="row">சூழல் &amp;amp;</tspan><tspan xml:space="preserve" dy="1em" x="0" class="row">பாத்திரங்கள்</tspan></text></g></g><g class="node default default flowchart-label" id="flowchart-OUTPUT-7" data-node="true" data-id="OUTPUT" transform="translate(2615.509765625, 126.5)"><rect class="basic label-container" style="fill:#1a4d2e;stroke:#0d3a1f;" rx="0" ry="0" x="-61.6875" y="-25.5" width="123.375" height="51"/><g class="label" style="color:#fff;" transform="translate(0, -18)"><rect/><text style="fill:#fff;"><tspan xml:space="preserve" dy="1em" x="0" class="row">வெளியீட்டுக்</tspan><tspan xml:space="preserve" dy="1em" x="0" class="row">கட்டுப்பாடு</tspan></text></g></g><g class="node default default flowchart-label" id="flowchart-PE-9" data-node="true" data-id="PE" transform="translate(91.53515625, 235.5)"><rect class="basic label-container" style="fill:#e8f5e9;stroke:#1a4d2e;" rx="0" ry="0" x="-91.53515625" y="-25.5" width="183.0703125" height="51"/><g class="label" style="" transform="translate(0, -18)"><rect/><text style=""><tspan xml:space="preserve" dy="1em" x="0" class="row">தூண்டுவினாவியல்</tspan><tspan xml:space="preserve" dy="1em" x="0" class="row">(Prompt Engineering)</tspan></text></g></g><g class="node default default flowchart-label" id="flowchart-FS-11" data-node="true" data-id="FS" transform="translate(291.66796875, 235.5)"><rect class="basic label-container" style="fill:#e8f5e9;stroke:#1a4d2e;" rx="0" ry="0" x="-58.59765625" y="-33.5" width="117.1953125" height="67"/><g class="label" style="" transform="translate(0, -26)"><rect/><text style=""><tspan xml:space="preserve" dy="1em" x="0" class="row">சிறுமாதிரித்</tspan><tspan xml:space="preserve" dy="1em" x="0" class="row">தூண்டுதல்</tspan><tspan xml:space="preserve" dy="1em" x="0" class="row">(Few-shot)</tspan></text></g></g><g class="node default default flowchart-label" id="flowchart-ZS-13" data-node="true" data-id="ZS" transform="translate(475.83984375, 235.5)"><rect class="basic label-container" style="fill:#e8f5e9;stroke:#1a4d2e;" rx="0" ry="0" x="-75.57421875" y="-33.5" width="151.1484375" height="67"/><g class="label" style="" transform="translate(0, -26)"><rect/><text style=""><tspan xml:space="preserve" dy="1em" x="0" class="row">முன்மாதிரியற்ற</tspan><tspan xml:space="preserve" dy="1em" x="0" class="row">தூண்டுதல்</tspan><tspan xml:space="preserve" dy="1em" x="0" class="row">(Zero-shot)</tspan></text></g></g><g class="node default default flowchart-label" id="flowchart-PC-15" data-node="true" data-id="PC" transform="translate(672.36328125, 235.5)"><rect class="basic label-container" style="fill:#e8f5e9;stroke:#1a4d2e;" rx="0" ry="0" x="-70.94921875" y="-33.5" width="141.8984375" height="67"/><g class="label" style="" transform="translate(0, -26)"><rect/><text style=""><tspan xml:space="preserve" dy="1em" x="0" class="row">தூண்டுவினாச்</tspan><tspan xml:space="preserve" dy="1em" x="0" class="row">சங்கிலி</tspan><tspan xml:space="preserve" dy="1em" x="0" class="row">(Chaining)</tspan></text></g></g><g class="node default default flowchart-label" id="flowchart-PI-17" data-node="true" data-id="PI" transform="translate(858.83984375, 235.5)"><rect class="basic label-container" style="fill:#e3f2fd;stroke:#1a4d2e;" rx="0" ry="0" x="-65.52734375" y="-33.5" width="131.0546875" height="67"/><g class="label" style="" transform="translate(0, -26)"><rect/><text style=""><tspan xml:space="preserve" dy="1em" x="0" class="row">தூண்டுவினா</tspan><tspan xml:space="preserve" dy="1em" x="0" class="row">ஊடுருவல்</tspan><tspan xml:space="preserve" dy="1em" x="0" class="row">(Injection)</tspan></text></g></g><g class="node default default flowchart-label" id="flowchart-COT-19" data-node="true" data-id="COT" transform="translate(1027.23828125, 235.5)"><rect class="basic label-container" style="fill:#e8f5e9;stroke:#1a4d2e;" rx="0" ry="0" x="-52.87109375" y="-33.5" width="105.7421875" height="67"/><g class="label" style="" transform="translate(0, -26)"><rect/><text style=""><tspan xml:space="preserve" dy="1em" x="0" class="row">சிந்தனைச்</tspan><tspan xml:space="preserve" dy="1em" x="0" class="row">சங்கிலி</tspan><tspan xml:space="preserve" dy="1em" x="0" class="row">(CoT)</tspan></text></g></g><g class="node default default flowchart-label" id="flowchart-TOT-21" data-node="true" data-id="TOT" transform="translate(1177.5546875, 235.5)"><rect class="basic label-container" style="fill:#e8f5e9;stroke:#1a4d2e;" rx="0" ry="0" x="-47.4453125" y="-33.5" width="94.890625" height="67"/><g class="label" style="" transform="translate(0, -26)"><rect/><text style=""><tspan xml:space="preserve" dy="1em" x="0" class="row">சிந்தனை</tspan><tspan xml:space="preserve" dy="1em" x="0" class="row">மரம்</tspan><tspan xml:space="preserve" dy="1em" x="0" class="row">(ToT)</tspan></text></g></g><g class="node default default flowchart-label" id="flowchart-SC-23" data-node="true" data-id="SC" transform="translate(1359.52734375, 235.5)"><rect class="basic label-container" style="fill:#e8f5e9;stroke:#1a4d2e;" rx="0" ry="0" x="-84.52734375" y="-25.5" width="169.0546875" height="51"/><g class="label" style="" transform="translate(0, -18)"><rect/><text style=""><tspan xml:space="preserve" dy="1em" x="0" class="row">தன்னொத்திசைவு</tspan><tspan xml:space="preserve" dy="1em" x="0" class="row">(Self-Consistency)</tspan></text></g></g><g class="node default default flowchart-label" id="flowchart-RM-25" data-node="true" data-id="RM" transform="translate(1571.8828125, 235.5)"><rect class="basic label-container" style="fill:#e8f5e9;stroke:#1a4d2e;" rx="0" ry="0" x="-77.828125" y="-25.5" width="155.65625" height="51"/><g class="label" style="" transform="translate(0, -18)"><rect/><text style=""><tspan xml:space="preserve" dy="1em" x="0" class="row">ஏரண மாதிரி</tspan><tspan xml:space="preserve" dy="1em" x="0" class="row">(Reasoning Model)</tspan></text></g></g><g class="node default default flowchart-label" id="flowchart-SP-27" data-node="true" data-id="SP" transform="translate(1769.7265625, 235.5)"><rect class="basic label-container" style="fill:#e3f2fd;stroke:#1a4d2e;" rx="0" ry="0" x="-70.015625" y="-33.5" width="140.03125" height="67"/><g class="label" style="" transform="translate(0, -26)"><rect/><text style=""><tspan xml:space="preserve" dy="1em" x="0" class="row">அமைப்புத்</tspan><tspan xml:space="preserve" dy="1em" x="0" class="row">தூண்டுவினா</tspan><tspan xml:space="preserve" dy="1em" x="0" class="row">(System Prompt)</tspan></text></g></g><g class="node default default flowchart-label" id="flowchart-UP-29" data-node="true" data-id="UP" transform="translate(1955.26953125, 235.5)"><rect class="basic label-container" style="fill:#e3f2fd;stroke:#1a4d2e;" rx="0" ry="0" x="-65.52734375" y="-33.5" width="131.0546875" height="67"/><g class="label" style="" transform="translate(0, -26)"><rect/><text style=""><tspan xml:space="preserve" dy="1em" x="0" class="row">பயனர்</tspan><tspan xml:space="preserve" dy="1em" x="0" class="row">தூண்டுவினா</tspan><tspan xml:space="preserve" dy="1em" x="0" class="row">(User Prompt)</tspan></text></g></g><g class="node default default flowchart-label" id="flowchart-CE-31" data-node="true" data-id="CE" transform="translate(2147.875, 235.5)"><rect class="basic label-container" style="fill:#e3f2fd;stroke:#1a4d2e;" rx="0" ry="0" x="-77.078125" y="-33.5" width="154.15625" height="67"/><g class="label" style="" transform="translate(0, -26)"><rect/><text style=""><tspan xml:space="preserve" dy="1em" x="0" class="row">சூழல்</tspan><tspan xml:space="preserve" dy="1em" x="0" class="row">வடிவமைப்பியல்</tspan><tspan xml:space="preserve" dy="1em" x="0" class="row">(Context Eng.)</tspan></text></g></g><g class="node default default flowchart-label" id="flowchart-TEMP-33" data-node="true" data-id="TEMP" transform="translate(2337.16015625, 235.5)"><rect class="basic label-container" style="fill:#e8f5e9;stroke:#1a4d2e;" rx="0" ry="0" x="-62.20703125" y="-33.5" width="124.4140625" height="67"/><g class="label" style="" transform="translate(0, -26)"><rect/><text style=""><tspan xml:space="preserve" dy="1em" x="0" class="row">பல்வகைமை</tspan><tspan xml:space="preserve" dy="1em" x="0" class="row">அளவு</tspan><tspan xml:space="preserve" dy="1em" x="0" class="row">(Temperature)</tspan></text></g></g><g class="node default default flowchart-label" id="flowchart-TOPK-35" data-node="true" data-id="TOPK" transform="translate(2515.375, 235.5)"><rect class="basic label-container" style="fill:#e8f5e9;stroke:#1a4d2e;" rx="0" ry="0" x="-66.0078125" y="-33.5" width="132.015625" height="67"/><g class="label" style="" transform="translate(0, -26)"><rect/><text style=""><tspan xml:space="preserve" dy="1em" x="0" class="row">உயர்-K மாதிரி</tspan><tspan xml:space="preserve" dy="1em" x="0" class="row">எடுத்தல்</tspan><tspan xml:space="preserve" dy="1em" x="0" class="row">(Top-K)</tspan></text></g></g><g class="node default default flowchart-label" id="flowchart-TOPP-37" data-node="true" data-id="TOPP" transform="translate(2715.64453125, 235.5)"><rect class="basic label-container" style="fill:#e8f5e9;stroke:#1a4d2e;" rx="0" ry="0" x="-84.26171875" y="-25.5" width="168.5234375" height="51"/><g class="label" style="" transform="translate(0, -18)"><rect/><text style=""><tspan xml:space="preserve" dy="1em" x="0" class="row">அணுகுத் தொகுதி</tspan><tspan xml:space="preserve" dy="1em" x="0" class="row">(Top-P)</tspan></text></g></g><g class="node default default flowchart-label" id="flowchart-BEAM-39" data-node="true" data-id="BEAM" transform="translate(2911.625, 235.5)"><rect class="basic label-container" style="fill:#e8f5e9;stroke:#1a4d2e;" rx="0" ry="0" x="-61.71875" y="-25.5" width="123.4375" height="51"/><g class="label" style="" transform="translate(0, -18)"><rect/><text style=""><tspan xml:space="preserve" dy="1em" x="0" class="row">கதிர்த்தேடல்</tspan><tspan xml:space="preserve" dy="1em" x="0" class="row">(Beam Search)</tspan></text></g></g></g></g></g></svg>