<svg id="my-svg" width="2023.634765625" xmlns="http://www.w3.org/2000/svg" xmlns:xlink="http://www.w3.org/1999/xlink" height="535" viewBox="-8 -8 2023.634765625 535" role="graphics-document document" aria-roledescription="flowchart-v2" style="background-color: transparent;"><style>#my-svg{font-family:'Noto Sans Tamil','Latha','Arial Unicode MS',sans-serif;font-size:16px;fill:#333;}#my-svg .error-icon{fill:#552222;}#my-svg .error-text{fill:#552222;stroke:#552222;}#my-svg .edge-thickness-normal{stroke-width:2px;}#my-svg .edge-thickness-thick{stroke-width:3.5px;}#my-svg .edge-pattern-solid{stroke-dasharray:0;}#my-svg .edge-pattern-dashed{stroke-dasharray:3;}#my-svg .edge-pattern-dotted{stroke-dasharray:2;}#my-svg .marker{fill:#333333;stroke:#333333;}#my-svg .marker.cross{stroke:#333333;}#my-svg svg{font-family:'Noto Sans Tamil','Latha','Arial Unicode MS',sans-serif;font-size:16px;}#my-svg .label{font-family:'Noto Sans Tamil','Latha','Arial Unicode MS',sans-serif;color:#333;}#my-svg .cluster-label text{fill:#333;}#my-svg .cluster-label span,#my-svg p{color:#333;}#my-svg .label text,#my-svg span,#my-svg p{fill:#333;color:#333;}#my-svg .node rect,#my-svg .node circle,#my-svg .node ellipse,#my-svg .node polygon,#my-svg .node path{fill:#ECECFF;stroke:#9370DB;stroke-width:1px;}#my-svg .flowchart-label text{text-anchor:middle;}#my-svg .node .katex path{fill:#000;stroke:#000;stroke-width:1px;}#my-svg .node .label{text-align:center;}#my-svg .node.clickable{cursor:pointer;}#my-svg .arrowheadPath{fill:#333333;}#my-svg .edgePath .path{stroke:#333333;stroke-width:2.0px;}#my-svg .flowchart-link{stroke:#333333;fill:none;}#my-svg .edgeLabel{background-color:#e8e8e8;text-align:center;}#my-svg .edgeLabel rect{opacity:0.5;background-color:#e8e8e8;fill:#e8e8e8;}#my-svg .labelBkg{background-color:rgba(232, 232, 232, 0.5);}#my-svg .cluster rect{fill:#ffffde;stroke:#aaaa33;stroke-width:1px;}#my-svg .cluster text{fill:#333;}#my-svg .cluster span,#my-svg p{color:#333;}#my-svg div.mermaidTooltip{position:absolute;text-align:center;max-width:200px;padding:2px;font-family:'Noto Sans Tamil','Latha','Arial Unicode MS',sans-serif;font-size:12px;background:hsl(80, 100%, 96.2745098039%);border:1px solid #aaaa33;border-radius:2px;pointer-events:none;z-index:100;}#my-svg .flowchartTitleText{text-anchor:middle;font-size:18px;fill:#333;}#my-svg text,#my-svg tspan,#my-svg .nodeLabel,#my-svg .edgeLabel{font-family:"Noto Sans Tamil",Latha,"Arial Unicode MS",sans-serif!important;}#my-svg .edgeLabel rect{fill:rgba(255, 255, 255, 0.85)!important;}#my-svg :root{--mermaid-font-family:"trebuchet ms",verdana,arial,sans-serif;}</style><g><marker id="my-svg_flowchart-pointEnd" class="marker flowchart" viewBox="0 0 10 10" refX="6" refY="5" markerUnits="userSpaceOnUse" markerWidth="12" markerHeight="12" orient="auto"><path d="M 0 0 L 10 5 L 0 10 z" class="arrowMarkerPath" style="stroke-width: 1; stroke-dasharray: 1, 0;"/></marker><marker id="my-svg_flowchart-pointStart" class="marker flowchart" viewBox="0 0 10 10" refX="4.5" refY="5" markerUnits="userSpaceOnUse" markerWidth="12" markerHeight="12" orient="auto"><path d="M 0 5 L 10 10 L 10 0 z" class="arrowMarkerPath" style="stroke-width: 1; stroke-dasharray: 1, 0;"/></marker><marker id="my-svg_flowchart-circleEnd" class="marker flowchart" viewBox="0 0 10 10" refX="11" refY="5" markerUnits="userSpaceOnUse" markerWidth="11" markerHeight="11" orient="auto"><circle cx="5" cy="5" r="5" class="arrowMarkerPath" style="stroke-width: 1; stroke-dasharray: 1, 0;"/></marker><marker id="my-svg_flowchart-circleStart" class="marker flowchart" viewBox="0 0 10 10" refX="-1" refY="5" markerUnits="userSpaceOnUse" markerWidth="11" markerHeight="11" orient="auto"><circle cx="5" cy="5" r="5" class="arrowMarkerPath" style="stroke-width: 1; stroke-dasharray: 1, 0;"/></marker><marker id="my-svg_flowchart-crossEnd" class="marker cross flowchart" viewBox="0 0 11 11" refX="12" refY="5.2" markerUnits="userSpaceOnUse" markerWidth="11" markerHeight="11" orient="auto"><path d="M 1,1 l 9,9 M 10,1 l -9,9" class="arrowMarkerPath" style="stroke-width: 2; stroke-dasharray: 1, 0;"/></marker><marker id="my-svg_flowchart-crossStart" class="marker cross flowchart" viewBox="0 0 11 11" refX="-1" refY="5.2" markerUnits="userSpaceOnUse" markerWidth="11" markerHeight="11" orient="auto"><path d="M 1,1 l 9,9 M 10,1 l -9,9" class="arrowMarkerPath" style="stroke-width: 2; stroke-dasharray: 1, 0;"/></marker><g class="root"><g class="clusters"/><g class="edgePaths"><path d="M532.492,51L532.492,55.167C532.492,59.333,532.492,67.667,532.492,75.117C532.492,82.567,532.492,89.133,532.492,92.417L532.492,95.7" id="L-AGENT-AI_AGENT-0" class="edge-thickness-normal edge-pattern-solid flowchart-link LS-AGENT LE-AI_AGENT" style="fill:none;" marker-end="url(#my-svg_flowchart-pointEnd)"/><path d="M479.191,141.117L409.543,149.765C339.895,158.412,200.598,175.706,130.949,187.636C61.301,199.567,61.301,206.133,61.301,209.417L61.301,212.7" id="L-AI_AGENT-AUTO-0" class="edge-thickness-normal edge-pattern-solid flowchart-link LS-AI_AGENT LE-AUTO" style="fill:none;" marker-end="url(#my-svg_flowchart-pointEnd)"/><path d="M479.191,145.474L440.718,153.395C402.245,161.316,325.298,177.158,286.825,188.362C248.352,199.567,248.352,206.133,248.352,209.417L248.352,212.7" id="L-AI_AGENT-ORCH-0" class="edge-thickness-normal edge-pattern-solid flowchart-link LS-AI_AGENT LE-ORCH" style="fill:none;" marker-end="url(#my-svg_flowchart-pointEnd)"/><path d="M189.464,285L182.139,289.167C174.815,293.333,160.166,301.667,152.842,309.117C145.518,316.567,145.518,323.133,145.518,326.417L145.518,329.7" id="L-ORCH-MAS-0" class="edge-thickness-normal edge-pattern-solid flowchart-link LS-ORCH LE-MAS" style="fill:none;" marker-end="url(#my-svg_flowchart-pointEnd)"/><path d="M307.239,285L314.564,289.167C321.888,293.333,336.537,301.667,343.861,309.117C351.186,316.567,351.186,323.133,351.186,326.417L351.186,329.7" id="L-ORCH-WORKFLOW-0" class="edge-thickness-normal edge-pattern-solid flowchart-link LS-ORCH LE-WORKFLOW" style="fill:none;" marker-end="url(#my-svg_flowchart-pointEnd)"/><path d="M585.793,144.887L626.94,152.906C668.088,160.925,750.383,176.962,791.53,189.598C832.678,202.233,832.678,211.467,832.678,216.083L832.678,220.7" id="L-AI_AGENT-TOOLS-0" class="edge-thickness-normal edge-pattern-solid flowchart-link LS-AI_AGENT LE-TOOLS" style="fill:none;" marker-end="url(#my-svg_flowchart-pointEnd)"/><path d="M784.561,262.325L749.242,270.271C713.923,278.217,643.285,294.108,607.965,306.671C572.646,319.233,572.646,328.467,572.646,333.083L572.646,337.7" id="L-TOOLS-TC-0" class="edge-thickness-normal edge-pattern-solid flowchart-link LS-TOOLS LE-TC" style="fill:none;" marker-end="url(#my-svg_flowchart-pointEnd)"/><path d="M794.847,277L786.687,282.5C778.527,288,762.208,299,754.048,307.783C745.889,316.567,745.889,323.133,745.889,326.417L745.889,329.7" id="L-TOOLS-TU-0" class="edge-thickness-normal edge-pattern-solid flowchart-link LS-TOOLS LE-TU" style="fill:none;" marker-end="url(#my-svg_flowchart-pointEnd)"/><path d="M870.509,277L878.669,282.5C886.828,288,903.147,299,911.307,309.117C919.467,319.233,919.467,328.467,919.467,333.083L919.467,337.7" id="L-TOOLS-FC-0" class="edge-thickness-normal edge-pattern-solid flowchart-link LS-TOOLS LE-FC" style="fill:none;" marker-end="url(#my-svg_flowchart-pointEnd)"/><path d="M880.795,261.656L918.967,269.714C957.14,277.771,1033.485,293.885,1071.658,305.226C1109.83,316.567,1109.83,323.133,1109.83,326.417L1109.83,329.7" id="L-TOOLS-MCP-0" class="edge-thickness-normal edge-pattern-solid flowchart-link LS-TOOLS LE-MCP" style="fill:none;" marker-end="url(#my-svg_flowchart-pointEnd)"/><path d="M745.889,402L745.889,406.167C745.889,410.333,745.889,418.667,745.889,427.45C745.889,436.233,745.889,445.467,745.889,450.083L745.889,454.7" id="L-TU-TF-0" class="edge-thickness-normal edge-pattern-solid flowchart-link LS-TU LE-TF" style="fill:none;" marker-end="url(#my-svg_flowchart-pointEnd)"/><path d="M585.793,137.293L762.988,146.577C940.183,155.862,1294.573,174.431,1471.768,189.665C1648.963,204.9,1648.963,216.8,1648.963,222.75L1648.963,228.7" id="L-AI_AGENT-APPS-0" class="edge-thickness-normal edge-pattern-solid flowchart-link LS-AI_AGENT LE-APPS" style="fill:none;" marker-end="url(#my-svg_flowchart-pointEnd)"/><path d="M1573.252,264.168L1527.598,271.807C1481.945,279.445,1390.637,294.723,1344.984,306.978C1299.33,319.233,1299.33,328.467,1299.33,333.083L1299.33,337.7" id="L-APPS-CHAT-0" class="edge-thickness-normal edge-pattern-solid flowchart-link LS-APPS LE-CHAT" style="fill:none;" marker-end="url(#my-svg_flowchart-pointEnd)"/><path d="M1598.808,269L1579.224,275.833C1559.64,282.667,1520.471,296.333,1500.887,306.45C1481.303,316.567,1481.303,323.133,1481.303,326.417L1481.303,329.7" id="L-APPS-COPILOT-0" class="edge-thickness-normal edge-pattern-solid flowchart-link LS-APPS LE-COPILOT" style="fill:none;" marker-end="url(#my-svg_flowchart-pointEnd)"/><path d="M1648.963,269L1648.963,275.833C1648.963,282.667,1648.963,296.333,1648.963,306.45C1648.963,316.567,1648.963,323.133,1648.963,326.417L1648.963,329.7" id="L-APPS-VIBE-0" class="edge-thickness-normal edge-pattern-solid flowchart-link LS-APPS LE-VIBE" style="fill:none;" marker-end="url(#my-svg_flowchart-pointEnd)"/><path d="M1648.963,402L1648.963,406.167C1648.963,410.333,1648.963,418.667,1648.963,426.117C1648.963,433.567,1648.963,440.133,1648.963,443.417L1648.963,446.7" id="L-VIBE-DEPLOY-0" class="edge-thickness-normal edge-pattern-solid flowchart-link LS-VIBE LE-DEPLOY" style="fill:none;" marker-end="url(#my-svg_flowchart-pointEnd)"/><path d="M1698.138,269L1717.34,275.833C1736.542,282.667,1774.946,296.333,1794.148,307.783C1813.35,319.233,1813.35,328.467,1813.35,333.083L1813.35,337.7" id="L-APPS-MEM-0" class="edge-thickness-normal edge-pattern-solid flowchart-link LS-APPS LE-MEM" style="fill:none;" marker-end="url(#my-svg_flowchart-pointEnd)"/><path d="M1724.674,265.568L1764.529,272.973C1804.385,280.378,1884.096,295.189,1923.951,307.211C1963.807,319.233,1963.807,328.467,1963.807,333.083L1963.807,337.7" id="L-APPS-CB-0" class="edge-thickness-normal edge-pattern-solid flowchart-link LS-APPS LE-CB" style="fill:none;" marker-end="url(#my-svg_flowchart-pointEnd)"/></g><g class="edgeLabels"><g class="edgeLabel"><g class="label" transform="translate(0, 0)"><rect rx="0" ry="0" width="0" height="0"/><text style=""><tspan xml:space="preserve" dy="1em" x="0" class="row"/></text></g></g><g class="edgeLabel"><g class="label" transform="translate(0, 0)"><rect rx="0" ry="0" width="0" height="0"/><text style=""><tspan xml:space="preserve" dy="1em" x="0" class="row"/></text></g></g><g class="edgeLabel"><g class="label" transform="translate(0, 0)"><rect rx="0" ry="0" width="0" height="0"/><text style=""><tspan xml:space="preserve" dy="1em" x="0" class="row"/></text></g></g><g class="edgeLabel"><g class="label" transform="translate(0, 0)"><rect rx="0" ry="0" width="0" height="0"/><text style=""><tspan xml:space="preserve" dy="1em" x="0" class="row"/></text></g></g><g class="edgeLabel"><g class="label" transform="translate(0, 0)"><rect rx="0" ry="0" width="0" height="0"/><text style=""><tspan xml:space="preserve" dy="1em" x="0" class="row"/></text></g></g><g class="edgeLabel"><g class="label" transform="translate(0, 0)"><rect rx="0" ry="0" width="0" height="0"/><text style=""><tspan xml:space="preserve" dy="1em" x="0" class="row"/></text></g></g><g class="edgeLabel"><g class="label" transform="translate(0, 0)"><rect rx="0" ry="0" width="0" height="0"/><text style=""><tspan xml:space="preserve" dy="1em" x="0" class="row"/></text></g></g><g class="edgeLabel"><g class="label" transform="translate(0, 0)"><rect rx="0" ry="0" width="0" height="0"/><text style=""><tspan xml:space="preserve" dy="1em" x="0" class="row"/></text></g></g><g class="edgeLabel"><g class="label" transform="translate(0, 0)"><rect rx="0" ry="0" width="0" height="0"/><text style=""><tspan xml:space="preserve" dy="1em" x="0" class="row"/></text></g></g><g class="edgeLabel"><g class="label" transform="translate(0, 0)"><rect rx="0" ry="0" width="0" height="0"/><text style=""><tspan xml:space="preserve" dy="1em" x="0" class="row"/></text></g></g><g class="edgeLabel"><g class="label" transform="translate(0, 0)"><rect rx="0" ry="0" width="0" height="0"/><text style=""><tspan xml:space="preserve" dy="1em" x="0" class="row"/></text></g></g><g class="edgeLabel"><g class="label" transform="translate(0, 0)"><rect rx="0" ry="0" width="0" height="0"/><text style=""><tspan xml:space="preserve" dy="1em" x="0" class="row"/></text></g></g><g class="edgeLabel"><g class="label" transform="translate(0, 0)"><rect rx="0" ry="0" width="0" height="0"/><text style=""><tspan xml:space="preserve" dy="1em" x="0" class="row"/></text></g></g><g class="edgeLabel"><g class="label" transform="translate(0, 0)"><rect rx="0" ry="0" width="0" height="0"/><text style=""><tspan xml:space="preserve" dy="1em" x="0" class="row"/></text></g></g><g class="edgeLabel"><g class="label" transform="translate(0, 0)"><rect rx="0" ry="0" width="0" height="0"/><text style=""><tspan xml:space="preserve" dy="1em" x="0" class="row"/></text></g></g><g class="edgeLabel"><g class="label" transform="translate(0, 0)"><rect rx="0" ry="0" width="0" height="0"/><text style=""><tspan xml:space="preserve" dy="1em" x="0" class="row"/></text></g></g><g class="edgeLabel"><g class="label" transform="translate(0, 0)"><rect rx="0" ry="0" width="0" height="0"/><text style=""><tspan xml:space="preserve" dy="1em" x="0" class="row"/></text></g></g><g class="edgeLabel"><g class="label" transform="translate(0, 0)"><rect rx="0" ry="0" width="0" height="0"/><text style=""><tspan xml:space="preserve" dy="1em" x="0" class="row"/></text></g></g></g><g class="nodes"><g class="node default default flowchart-label" id="flowchart-AGENT-0" data-node="true" data-id="AGENT" transform="translate(532.4921875, 25.5)"><rect class="basic label-container" style="fill:#1a4d2e;stroke:#0d3a1f;" rx="0" ry="0" x="-65.4296875" y="-25.5" width="130.859375" height="51"/><g class="label" style="color:#fff;" transform="translate(0, -18)"><rect/><text style="fill:#fff;"><tspan xml:space="preserve" dy="1em" x="0" class="row">செயல்முகவர்</tspan><tspan xml:space="preserve" dy="1em" x="0" class="row">(Agent)</tspan></text></g></g><g class="node default default flowchart-label" id="flowchart-AI_AGENT-1" data-node="true" data-id="AI_AGENT" transform="translate(532.4921875, 134.5)"><rect class="basic label-container" style="fill:#1a4d2e;stroke:#0d3a1f;" rx="0" ry="0" x="-53.30078125" y="-33.5" width="106.6015625" height="67"/><g class="label" style="color:#fff;" transform="translate(0, -26)"><rect/><text style="fill:#fff;"><tspan xml:space="preserve" dy="1em" x="0" class="row">செய்யறிவு</tspan><tspan xml:space="preserve" dy="1em" x="0" class="row">முகவர்</tspan><tspan xml:space="preserve" dy="1em" x="0" class="row">(AI Agent)</tspan></text></g></g><g class="node default default flowchart-label" id="flowchart-AUTO-3" data-node="true" data-id="AUTO" transform="translate(61.30078125, 251.5)"><rect class="basic label-container" style="fill:#e8f5e9;stroke:#1a4d2e;" rx="0" ry="0" x="-61.30078125" y="-33.5" width="122.6015625" height="67"/><g class="label" style="" transform="translate(0, -26)"><rect/><text style=""><tspan xml:space="preserve" dy="1em" x="0" class="row">தன்னாட்சி</tspan><tspan xml:space="preserve" dy="1em" x="0" class="row">முகவர்</tspan><tspan xml:space="preserve" dy="1em" x="0" class="row">(Autonomous)</tspan></text></g></g><g class="node default default flowchart-label" id="flowchart-ORCH-5" data-node="true" data-id="ORCH" transform="translate(248.3515625, 251.5)"><rect class="basic label-container" style="fill:#e8f5e9;stroke:#1a4d2e;" rx="0" ry="0" x="-75.75" y="-33.5" width="151.5" height="67"/><g class="label" style="" transform="translate(0, -26)"><rect/><text style=""><tspan xml:space="preserve" dy="1em" x="0" class="row">செயல்முகவர்</tspan><tspan xml:space="preserve" dy="1em" x="0" class="row">ஒருங்கிணைப்பு</tspan><tspan xml:space="preserve" dy="1em" x="0" class="row">(Orchestration)</tspan></text></g></g><g class="node default default flowchart-label" id="flowchart-MAS-7" data-node="true" data-id="MAS" transform="translate(145.517578125, 368.5)"><rect class="basic label-container" style="fill:#e8f5e9;stroke:#1a4d2e;" rx="0" ry="0" x="-56.8046875" y="-33.5" width="113.609375" height="67"/><g class="label" style="" transform="translate(0, -26)"><rect/><text style=""><tspan xml:space="preserve" dy="1em" x="0" class="row">பல்முகவர்</tspan><tspan xml:space="preserve" dy="1em" x="0" class="row">அமைப்பு</tspan><tspan xml:space="preserve" dy="1em" x="0" class="row">(Multi-Agent)</tspan></text></g></g><g class="node default default flowchart-label" id="flowchart-WORKFLOW-9" data-node="true" data-id="WORKFLOW" transform="translate(351.185546875, 368.5)"><rect class="basic label-container" style="fill:#e8f5e9;stroke:#1a4d2e;" rx="0" ry="0" x="-98.86328125" y="-33.5" width="197.7265625" height="67"/><g class="label" style="" transform="translate(0, -26)"><rect/><text style=""><tspan xml:space="preserve" dy="1em" x="0" class="row">தன்னாட்சிப்</tspan><tspan xml:space="preserve" dy="1em" x="0" class="row">பணிப்பாய்வு</tspan><tspan xml:space="preserve" dy="1em" x="0" class="row">(Autonomous Workflow)</tspan></text></g></g><g class="node default default flowchart-label" id="flowchart-TOOLS-11" data-node="true" data-id="TOOLS" transform="translate(832.677734375, 251.5)"><rect class="basic label-container" style="fill:#1a4d2e;stroke:#0d3a1f;" rx="0" ry="0" x="-48.1171875" y="-25.5" width="96.234375" height="51"/><g class="label" style="color:#fff;" transform="translate(0, -18)"><rect/><text style="fill:#fff;"><tspan xml:space="preserve" dy="1em" x="0" class="row">கருவிகள்</tspan><tspan xml:space="preserve" dy="1em" x="0" class="row">(Tools)</tspan></text></g></g><g class="node default default flowchart-label" id="flowchart-TC-13" data-node="true" data-id="TC" transform="translate(572.646484375, 368.5)"><rect class="basic label-container" style="fill:#e8f5e9;stroke:#1a4d2e;" rx="0" ry="0" x="-72.59765625" y="-25.5" width="145.1953125" height="51"/><g class="label" style="" transform="translate(0, -18)"><rect/><text style=""><tspan xml:space="preserve" dy="1em" x="0" class="row">கருவி அழைப்பு</tspan><tspan xml:space="preserve" dy="1em" x="0" class="row">(Tool Calling)</tspan></text></g></g><g class="node default default flowchart-label" id="flowchart-TU-15" data-node="true" data-id="TU" transform="translate(745.888671875, 368.5)"><rect class="basic label-container" style="fill:#e8f5e9;stroke:#1a4d2e;" rx="0" ry="0" x="-50.64453125" y="-33.5" width="101.2890625" height="67"/><g class="label" style="" transform="translate(0, -26)"><rect/><text style=""><tspan xml:space="preserve" dy="1em" x="0" class="row">கருவிப்</tspan><tspan xml:space="preserve" dy="1em" x="0" class="row">பயன்பாடு</tspan><tspan xml:space="preserve" dy="1em" x="0" class="row">(Tool Use)</tspan></text></g></g><g class="node default default flowchart-label" id="flowchart-FC-17" data-node="true" data-id="FC" transform="translate(919.466796875, 368.5)"><rect class="basic label-container" style="fill:#e8f5e9;stroke:#1a4d2e;" rx="0" ry="0" x="-72.93359375" y="-25.5" width="145.8671875" height="51"/><g class="label" style="" transform="translate(0, -18)"><rect/><text style=""><tspan xml:space="preserve" dy="1em" x="0" class="row">சார்பு அழைப்பு</tspan><tspan xml:space="preserve" dy="1em" x="0" class="row">(Function Calling)</tspan></text></g></g><g class="node default default flowchart-label" id="flowchart-MCP-19" data-node="true" data-id="MCP" transform="translate(1109.830078125, 368.5)"><rect class="basic label-container" style="fill:#e3f2fd;stroke:#1a4d2e;" rx="0" ry="0" x="-67.4296875" y="-33.5" width="134.859375" height="67"/><g class="label" style="" transform="translate(0, -26)"><rect/><text style=""><tspan xml:space="preserve" dy="1em" x="0" class="row">மாதிரிச் சூழல்</tspan><tspan xml:space="preserve" dy="1em" x="0" class="row">நெறிமுறை</tspan><tspan xml:space="preserve" dy="1em" x="0" class="row">(MCP)</tspan></text></g></g><g class="node default default flowchart-label" id="flowchart-TF-21" data-node="true" data-id="TF" transform="translate(745.888671875, 485.5)"><rect class="basic label-container" style="fill:#e8f5e9;stroke:#1a4d2e;" rx="0" ry="0" x="-71.3515625" y="-25.5" width="142.703125" height="51"/><g class="label" style="" transform="translate(0, -18)"><rect/><text style=""><tspan xml:space="preserve" dy="1em" x="0" class="row">கருவியமைப்பி</tspan><tspan xml:space="preserve" dy="1em" x="0" class="row">(Toolformer)</tspan></text></g></g><g class="node default default flowchart-label" id="flowchart-APPS-23" data-node="true" data-id="APPS" transform="translate(1648.962890625, 251.5)"><rect class="basic label-container" style="fill:#1a4d2e;stroke:#0d3a1f;" rx="0" ry="0" x="-75.7109375" y="-17.5" width="151.421875" height="35"/><g class="label" style="color:#fff;" transform="translate(0, -10)"><rect/><text style="fill:#fff;"><tspan xml:space="preserve" dy="1em" x="0" class="row">AI பயன்பாடுகள்</tspan></text></g></g><g class="node default default flowchart-label" id="flowchart-CHAT-25" data-node="true" data-id="CHAT" transform="translate(1299.330078125, 368.5)"><rect class="basic label-container" style="fill:#e3f2fd;stroke:#1a4d2e;" rx="0" ry="0" x="-72.0703125" y="-25.5" width="144.140625" height="51"/><g class="label" style="" transform="translate(0, -18)"><rect/><text style=""><tspan xml:space="preserve" dy="1em" x="0" class="row">செய்யுரையினி</tspan><tspan xml:space="preserve" dy="1em" x="0" class="row">(AI Chatbot)</tspan></text></g></g><g class="node default default flowchart-label" id="flowchart-COPILOT-27" data-node="true" data-id="COPILOT" transform="translate(1481.302734375, 368.5)"><rect class="basic label-container" style="fill:#e3f2fd;stroke:#1a4d2e;" rx="0" ry="0" x="-59.90234375" y="-33.5" width="119.8046875" height="67"/><g class="label" style="" transform="translate(0, -26)"><rect/><text style=""><tspan xml:space="preserve" dy="1em" x="0" class="row">செய்யறிவுத்</tspan><tspan xml:space="preserve" dy="1em" x="0" class="row">துணைவன்</tspan><tspan xml:space="preserve" dy="1em" x="0" class="row">(AI Copilot)</tspan></text></g></g><g class="node default default flowchart-label" id="flowchart-VIBE-29" data-node="true" data-id="VIBE" transform="translate(1648.962890625, 368.5)"><rect class="basic label-container" style="fill:#e3f2fd;stroke:#1a4d2e;" rx="0" ry="0" x="-57.7578125" y="-33.5" width="115.515625" height="67"/><g class="label" style="" transform="translate(0, -26)"><rect/><text style=""><tspan xml:space="preserve" dy="1em" x="0" class="row">சும்மா</tspan><tspan xml:space="preserve" dy="1em" x="0" class="row">நிரலாக்கம்</tspan><tspan xml:space="preserve" dy="1em" x="0" class="row">(Vibe Coding)</tspan></text></g></g><g class="node default default flowchart-label" id="flowchart-DEPLOY-31" data-node="true" data-id="DEPLOY" transform="translate(1648.962890625, 485.5)"><rect class="basic label-container" style="fill:#e3f2fd;stroke:#1a4d2e;" rx="0" ry="0" x="-69.0390625" y="-33.5" width="138.078125" height="67"/><g class="label" style="" transform="translate(0, -26)"><rect/><text style=""><tspan xml:space="preserve" dy="1em" x="0" class="row">சும்மா</tspan><tspan xml:space="preserve" dy="1em" x="0" class="row">வெளியீடு</tspan><tspan xml:space="preserve" dy="1em" x="0" class="row">(Vibe Deploying)</tspan></text></g></g><g class="node default default flowchart-label" id="flowchart-MEM-33" data-node="true" data-id="MEM" transform="translate(1813.349609375, 368.5)"><rect class="basic label-container" style="fill:#e3f2fd;stroke:#1a4d2e;" rx="0" ry="0" x="-56.62890625" y="-25.5" width="113.2578125" height="51"/><g class="label" style="" transform="translate(0, -18)"><rect/><text style=""><tspan xml:space="preserve" dy="1em" x="0" class="row">நினைவகம்</tspan><tspan xml:space="preserve" dy="1em" x="0" class="row">(Memory)</tspan></text></g></g><g class="node default default flowchart-label" id="flowchart-CB-35" data-node="true" data-id="CB" transform="translate(1963.806640625, 368.5)"><rect class="basic label-container" style="fill:#e3f2fd;stroke:#1a4d2e;" rx="0" ry="0" x="-43.828125" y="-25.5" width="87.65625" height="51"/><g class="label" style="" transform="translate(0, -18)"><rect/><text style=""><tspan xml:space="preserve" dy="1em" x="0" class="row">கூவிளி</tspan><tspan xml:space="preserve" dy="1em" x="0" class="row">(Callback)</tspan></text></g></g></g></g></g></svg>