<svg id="my-svg" width="2417.203125" xmlns="http://www.w3.org/2000/svg" xmlns:xlink="http://www.w3.org/1999/xlink" height="301" viewBox="-8 -8 2417.203125 301" role="graphics-document document" aria-roledescription="flowchart-v2" style="background-color: transparent;"><style>#my-svg{font-family:'Noto Sans Tamil','Latha','Arial Unicode MS',sans-serif;font-size:16px;fill:#333;}#my-svg .error-icon{fill:#552222;}#my-svg .error-text{fill:#552222;stroke:#552222;}#my-svg .edge-thickness-normal{stroke-width:2px;}#my-svg .edge-thickness-thick{stroke-width:3.5px;}#my-svg .edge-pattern-solid{stroke-dasharray:0;}#my-svg .edge-pattern-dashed{stroke-dasharray:3;}#my-svg .edge-pattern-dotted{stroke-dasharray:2;}#my-svg .marker{fill:#333333;stroke:#333333;}#my-svg .marker.cross{stroke:#333333;}#my-svg svg{font-family:'Noto Sans Tamil','Latha','Arial Unicode MS',sans-serif;font-size:16px;}#my-svg .label{font-family:'Noto Sans Tamil','Latha','Arial Unicode MS',sans-serif;color:#333;}#my-svg .cluster-label text{fill:#333;}#my-svg .cluster-label span,#my-svg p{color:#333;}#my-svg .label text,#my-svg span,#my-svg p{fill:#333;color:#333;}#my-svg .node rect,#my-svg .node circle,#my-svg .node ellipse,#my-svg .node polygon,#my-svg .node path{fill:#ECECFF;stroke:#9370DB;stroke-width:1px;}#my-svg .flowchart-label text{text-anchor:middle;}#my-svg .node .katex path{fill:#000;stroke:#000;stroke-width:1px;}#my-svg .node .label{text-align:center;}#my-svg .node.clickable{cursor:pointer;}#my-svg .arrowheadPath{fill:#333333;}#my-svg .edgePath .path{stroke:#333333;stroke-width:2.0px;}#my-svg .flowchart-link{stroke:#333333;fill:none;}#my-svg .edgeLabel{background-color:#e8e8e8;text-align:center;}#my-svg .edgeLabel rect{opacity:0.5;background-color:#e8e8e8;fill:#e8e8e8;}#my-svg .labelBkg{background-color:rgba(232, 232, 232, 0.5);}#my-svg .cluster rect{fill:#ffffde;stroke:#aaaa33;stroke-width:1px;}#my-svg .cluster text{fill:#333;}#my-svg .cluster span,#my-svg p{color:#333;}#my-svg div.mermaidTooltip{position:absolute;text-align:center;max-width:200px;padding:2px;font-family:'Noto Sans Tamil','Latha','Arial Unicode MS',sans-serif;font-size:12px;background:hsl(80, 100%, 96.2745098039%);border:1px solid #aaaa33;border-radius:2px;pointer-events:none;z-index:100;}#my-svg .flowchartTitleText{text-anchor:middle;font-size:18px;fill:#333;}#my-svg text,#my-svg tspan,#my-svg .nodeLabel,#my-svg .edgeLabel{font-family:"Noto Sans Tamil",Latha,"Arial Unicode MS",sans-serif!important;}#my-svg .edgeLabel rect{fill:rgba(255, 255, 255, 0.85)!important;}#my-svg :root{--mermaid-font-family:"trebuchet ms",verdana,arial,sans-serif;}</style><g><marker id="my-svg_flowchart-pointEnd" class="marker flowchart" viewBox="0 0 10 10" refX="6" refY="5" markerUnits="userSpaceOnUse" markerWidth="12" markerHeight="12" orient="auto"><path d="M 0 0 L 10 5 L 0 10 z" class="arrowMarkerPath" style="stroke-width: 1; stroke-dasharray: 1, 0;"/></marker><marker id="my-svg_flowchart-pointStart" class="marker flowchart" viewBox="0 0 10 10" refX="4.5" refY="5" markerUnits="userSpaceOnUse" markerWidth="12" markerHeight="12" orient="auto"><path d="M 0 5 L 10 10 L 10 0 z" class="arrowMarkerPath" style="stroke-width: 1; stroke-dasharray: 1, 0;"/></marker><marker id="my-svg_flowchart-circleEnd" class="marker flowchart" viewBox="0 0 10 10" refX="11" refY="5" markerUnits="userSpaceOnUse" markerWidth="11" markerHeight="11" orient="auto"><circle cx="5" cy="5" r="5" class="arrowMarkerPath" style="stroke-width: 1; stroke-dasharray: 1, 0;"/></marker><marker id="my-svg_flowchart-circleStart" class="marker flowchart" viewBox="0 0 10 10" refX="-1" refY="5" markerUnits="userSpaceOnUse" markerWidth="11" markerHeight="11" orient="auto"><circle cx="5" cy="5" r="5" class="arrowMarkerPath" style="stroke-width: 1; stroke-dasharray: 1, 0;"/></marker><marker id="my-svg_flowchart-crossEnd" class="marker cross flowchart" viewBox="0 0 11 11" refX="12" refY="5.2" markerUnits="userSpaceOnUse" markerWidth="11" markerHeight="11" orient="auto"><path d="M 1,1 l 9,9 M 10,1 l -9,9" class="arrowMarkerPath" style="stroke-width: 2; stroke-dasharray: 1, 0;"/></marker><marker id="my-svg_flowchart-crossStart" class="marker cross flowchart" viewBox="0 0 11 11" refX="-1" refY="5.2" markerUnits="userSpaceOnUse" markerWidth="11" markerHeight="11" orient="auto"><path d="M 1,1 l 9,9 M 10,1 l -9,9" class="arrowMarkerPath" style="stroke-width: 2; stroke-dasharray: 1, 0;"/></marker><g class="root"><g class="clusters"/><g class="edgePaths"><path d="M1196.133,40.139L1063.628,48.783C931.124,57.426,666.115,74.713,533.61,86.64C401.105,98.567,401.105,105.133,401.105,108.417L401.105,111.7" id="L-INFRA-SW-0" class="edge-thickness-normal edge-pattern-solid flowchart-link LS-INFRA LE-SW" style="fill:none;" marker-end="url(#my-svg_flowchart-pointEnd)"/><path d="M1297.914,67L1297.914,71.167C1297.914,75.333,1297.914,83.667,1297.914,91.117C1297.914,98.567,1297.914,105.133,1297.914,108.417L1297.914,111.7" id="L-INFRA-CLOUD-0" class="edge-thickness-normal edge-pattern-solid flowchart-link LS-INFRA LE-CLOUD" style="fill:none;" marker-end="url(#my-svg_flowchart-pointEnd)"/><path d="M1399.695,41.075L1513.734,49.563C1627.772,58.05,1855.849,75.025,1969.887,86.796C2083.926,98.567,2083.926,105.133,2083.926,108.417L2083.926,111.7" id="L-INFRA-VIS-0" class="edge-thickness-normal edge-pattern-solid flowchart-link LS-INFRA LE-VIS" style="fill:none;" marker-end="url(#my-svg_flowchart-pointEnd)"/><path d="M334.371,152.231L287.773,159.026C241.174,165.821,147.978,179.41,101.38,190.822C54.781,202.233,54.781,211.467,54.781,216.083L54.781,220.7" id="L-SW-APP-0" class="edge-thickness-normal edge-pattern-solid flowchart-link LS-SW LE-APP" style="fill:none;" marker-end="url(#my-svg_flowchart-pointEnd)"/><path d="M334.371,163.335L318.535,168.279C302.698,173.223,271.025,183.112,255.188,191.339C239.352,199.567,239.352,206.133,239.352,209.417L239.352,212.7" id="L-SW-API-0" class="edge-thickness-normal edge-pattern-solid flowchart-link LS-SW LE-API" style="fill:none;" marker-end="url(#my-svg_flowchart-pointEnd)"/><path d="M401.105,168L401.105,172.167C401.105,176.333,401.105,184.667,401.105,193.45C401.105,202.233,401.105,211.467,401.105,216.083L401.105,220.7" id="L-SW-CODE-0" class="edge-thickness-normal edge-pattern-solid flowchart-link LS-SW LE-CODE" style="fill:none;" marker-end="url(#my-svg_flowchart-pointEnd)"/><path d="M467.84,163.87L483.001,168.725C498.161,173.58,528.483,183.29,543.644,192.762C558.805,202.233,558.805,211.467,558.805,216.083L558.805,220.7" id="L-SW-DEBUG-0" class="edge-thickness-normal edge-pattern-solid flowchart-link LS-SW LE-DEBUG" style="fill:none;" marker-end="url(#my-svg_flowchart-pointEnd)"/><path d="M467.84,152.209L514.57,159.007C561.299,165.806,654.759,179.403,701.489,190.818C748.219,202.233,748.219,211.467,748.219,216.083L748.219,220.7" id="L-SW-ASYNC-0" class="edge-thickness-normal edge-pattern-solid flowchart-link LS-SW LE-ASYNC" style="fill:none;" marker-end="url(#my-svg_flowchart-pointEnd)"/><path d="M1227.395,152.323L1178.722,159.102C1130.049,165.882,1032.704,179.441,984.032,190.837C935.359,202.233,935.359,211.467,935.359,216.083L935.359,220.7" id="L-CLOUD-CC-0" class="edge-thickness-normal edge-pattern-solid flowchart-link LS-CLOUD LE-CC" style="fill:none;" marker-end="url(#my-svg_flowchart-pointEnd)"/><path d="M1227.395,163.252L1210.546,168.21C1193.698,173.168,1160.001,183.084,1143.153,192.659C1126.305,202.233,1126.305,211.467,1126.305,216.083L1126.305,220.7" id="L-CLOUD-EDGE-0" class="edge-thickness-normal edge-pattern-solid flowchart-link LS-CLOUD LE-EDGE" style="fill:none;" marker-end="url(#my-svg_flowchart-pointEnd)"/><path d="M1297.914,168L1297.914,172.167C1297.914,176.333,1297.914,184.667,1297.914,193.45C1297.914,202.233,1297.914,211.467,1297.914,216.083L1297.914,220.7" id="L-CLOUD-ONDEV-0" class="edge-thickness-normal edge-pattern-solid flowchart-link LS-CLOUD LE-ONDEV" style="fill:none;" marker-end="url(#my-svg_flowchart-pointEnd)"/><path d="M1368.434,163.004L1385.628,168.003C1402.822,173.003,1437.21,183.001,1454.404,191.284C1471.598,199.567,1471.598,206.133,1471.598,209.417L1471.598,212.7" id="L-CLOUD-IOT-0" class="edge-thickness-normal edge-pattern-solid flowchart-link LS-CLOUD LE-IOT" style="fill:none;" marker-end="url(#my-svg_flowchart-pointEnd)"/><path d="M1368.434,152.609L1415.396,159.341C1462.359,166.072,1556.285,179.536,1603.248,190.885C1650.211,202.233,1650.211,211.467,1650.211,216.083L1650.211,220.7" id="L-CLOUD-DC-0" class="edge-thickness-normal edge-pattern-solid flowchart-link LS-CLOUD LE-DC" style="fill:none;" marker-end="url(#my-svg_flowchart-pointEnd)"/><path d="M2011.434,156.303L1979.311,162.419C1947.188,168.535,1882.941,180.768,1850.818,191.5C1818.695,202.233,1818.695,211.467,1818.695,216.083L1818.695,220.7" id="L-VIS-IMG-0" class="edge-thickness-normal edge-pattern-solid flowchart-link LS-VIS LE-IMG" style="fill:none;" marker-end="url(#my-svg_flowchart-pointEnd)"/><path d="M2040.96,168L2033.939,172.167C2026.918,176.333,2012.877,184.667,2005.857,192.117C1998.836,199.567,1998.836,206.133,1998.836,209.417L1998.836,212.7" id="L-VIS-OCR-0" class="edge-thickness-normal edge-pattern-solid flowchart-link LS-VIS LE-OCR" style="fill:none;" marker-end="url(#my-svg_flowchart-pointEnd)"/><path d="M2126.892,168L2133.913,172.167C2140.933,176.333,2154.974,184.667,2161.995,193.45C2169.016,202.233,2169.016,211.467,2169.016,216.083L2169.016,220.7" id="L-VIS-FACE-0" class="edge-thickness-normal edge-pattern-solid flowchart-link LS-VIS LE-FACE" style="fill:none;" marker-end="url(#my-svg_flowchart-pointEnd)"/><path d="M2156.418,157.09L2186.156,163.075C2215.893,169.06,2275.368,181.03,2305.106,190.298C2334.844,199.567,2334.844,206.133,2334.844,209.417L2334.844,212.7" id="L-VIS-SAM-0" class="edge-thickness-normal edge-pattern-solid flowchart-link LS-VIS LE-SAM" style="fill:none;" marker-end="url(#my-svg_flowchart-pointEnd)"/></g><g class="edgeLabels"><g class="edgeLabel"><g class="label" transform="translate(0, 0)"><rect rx="0" ry="0" width="0" height="0"/><text style=""><tspan xml:space="preserve" dy="1em" x="0" class="row"/></text></g></g><g class="edgeLabel"><g class="label" transform="translate(0, 0)"><rect rx="0" ry="0" width="0" height="0"/><text style=""><tspan xml:space="preserve" dy="1em" x="0" class="row"/></text></g></g><g class="edgeLabel"><g class="label" transform="translate(0, 0)"><rect rx="0" ry="0" width="0" height="0"/><text style=""><tspan xml:space="preserve" dy="1em" x="0" class="row"/></text></g></g><g class="edgeLabel"><g class="label" transform="translate(0, 0)"><rect rx="0" ry="0" width="0" height="0"/><text style=""><tspan xml:space="preserve" dy="1em" x="0" class="row"/></text></g></g><g class="edgeLabel"><g class="label" transform="translate(0, 0)"><rect rx="0" ry="0" width="0" height="0"/><text style=""><tspan xml:space="preserve" dy="1em" x="0" class="row"/></text></g></g><g class="edgeLabel"><g class="label" transform="translate(0, 0)"><rect rx="0" ry="0" width="0" height="0"/><text style=""><tspan xml:space="preserve" dy="1em" x="0" class="row"/></text></g></g><g class="edgeLabel"><g class="label" transform="translate(0, 0)"><rect rx="0" ry="0" width="0" height="0"/><text style=""><tspan xml:space="preserve" dy="1em" x="0" class="row"/></text></g></g><g class="edgeLabel"><g class="label" transform="translate(0, 0)"><rect rx="0" ry="0" width="0" height="0"/><text style=""><tspan xml:space="preserve" dy="1em" x="0" class="row"/></text></g></g><g class="edgeLabel"><g class="label" transform="translate(0, 0)"><rect rx="0" ry="0" width="0" height="0"/><text style=""><tspan xml:space="preserve" dy="1em" x="0" class="row"/></text></g></g><g class="edgeLabel"><g class="label" transform="translate(0, 0)"><rect rx="0" ry="0" width="0" height="0"/><text style=""><tspan xml:space="preserve" dy="1em" x="0" class="row"/></text></g></g><g class="edgeLabel"><g class="label" transform="translate(0, 0)"><rect rx="0" ry="0" width="0" height="0"/><text style=""><tspan xml:space="preserve" dy="1em" x="0" class="row"/></text></g></g><g class="edgeLabel"><g class="label" transform="translate(0, 0)"><rect rx="0" ry="0" width="0" height="0"/><text style=""><tspan xml:space="preserve" dy="1em" x="0" class="row"/></text></g></g><g class="edgeLabel"><g class="label" transform="translate(0, 0)"><rect rx="0" ry="0" width="0" height="0"/><text style=""><tspan xml:space="preserve" dy="1em" x="0" class="row"/></text></g></g><g class="edgeLabel"><g class="label" transform="translate(0, 0)"><rect rx="0" ry="0" width="0" height="0"/><text style=""><tspan xml:space="preserve" dy="1em" x="0" class="row"/></text></g></g><g class="edgeLabel"><g class="label" transform="translate(0, 0)"><rect rx="0" ry="0" width="0" height="0"/><text style=""><tspan xml:space="preserve" dy="1em" x="0" class="row"/></text></g></g><g class="edgeLabel"><g class="label" transform="translate(0, 0)"><rect rx="0" ry="0" width="0" height="0"/><text style=""><tspan xml:space="preserve" dy="1em" x="0" class="row"/></text></g></g><g class="edgeLabel"><g class="label" transform="translate(0, 0)"><rect rx="0" ry="0" width="0" height="0"/><text style=""><tspan xml:space="preserve" dy="1em" x="0" class="row"/></text></g></g></g><g class="nodes"><g class="node default default flowchart-label" id="flowchart-INFRA-0" data-node="true" data-id="INFRA" transform="translate(1297.9140625, 33.5)"><rect class="basic label-container" style="fill:#1a4d2e;stroke:#0d3a1f;" rx="0" ry="0" x="-101.78125" y="-33.5" width="203.5625" height="67"/><g class="label" style="color:#fff;" transform="translate(0, -26)"><rect/><text style="fill:#fff;"><tspan xml:space="preserve" dy="1em" x="0" class="row">கணினியியல் &amp;amp;</tspan><tspan xml:space="preserve" dy="1em" x="0" class="row">உள்கட்டமைப்பு</tspan><tspan xml:space="preserve" dy="1em" x="0" class="row">(Computing &amp;amp; Infra)</tspan></text></g></g><g class="node default default flowchart-label" id="flowchart-SW-1" data-node="true" data-id="SW" transform="translate(401.10546875, 142.5)"><rect class="basic label-container" style="fill:#1a4d2e;stroke:#0d3a1f;" rx="0" ry="0" x="-66.734375" y="-25.5" width="133.46875" height="51"/><g class="label" style="color:#fff;" transform="translate(0, -18)"><rect/><text style="fill:#fff;"><tspan xml:space="preserve" dy="1em" x="0" class="row">மென்பொருள்</tspan><tspan xml:space="preserve" dy="1em" x="0" class="row">அடிப்படை</tspan></text></g></g><g class="node default default flowchart-label" id="flowchart-CLOUD-3" data-node="true" data-id="CLOUD" transform="translate(1297.9140625, 142.5)"><rect class="basic label-container" style="fill:#1a4d2e;stroke:#0d3a1f;" rx="0" ry="0" x="-70.51953125" y="-25.5" width="141.0390625" height="51"/><g class="label" style="color:#fff;" transform="translate(0, -18)"><rect/><text style="fill:#fff;"><tspan xml:space="preserve" dy="1em" x="0" class="row">கணினி</tspan><tspan xml:space="preserve" dy="1em" x="0" class="row">உள்கட்டமைப்பு</tspan></text></g></g><g class="node default default flowchart-label" id="flowchart-VIS-5" data-node="true" data-id="VIS" transform="translate(2083.92578125, 142.5)"><rect class="basic label-container" style="fill:#1a4d2e;stroke:#0d3a1f;" rx="0" ry="0" x="-72.4921875" y="-25.5" width="144.984375" height="51"/><g class="label" style="color:#fff;" transform="translate(0, -18)"><rect/><text style="fill:#fff;"><tspan xml:space="preserve" dy="1em" x="0" class="row">படவியல் &amp;amp;</tspan><tspan xml:space="preserve" dy="1em" x="0" class="row">பார்வை</tspan></text></g></g><g class="node default default flowchart-label" id="flowchart-APP-7" data-node="true" data-id="APP" transform="translate(54.78125, 251.5)"><rect class="basic label-container" style="fill:#e8f5e9;stroke:#1a4d2e;" rx="0" ry="0" x="-54.78125" y="-25.5" width="109.5625" height="51"/><g class="label" style="" transform="translate(0, -18)"><rect/><text style=""><tspan xml:space="preserve" dy="1em" x="0" class="row">செயலி</tspan><tspan xml:space="preserve" dy="1em" x="0" class="row">(Application)</tspan></text></g></g><g class="node default default flowchart-label" id="flowchart-API-9" data-node="true" data-id="API" transform="translate(239.3515625, 251.5)"><rect class="basic label-container" style="fill:#e8f5e9;stroke:#1a4d2e;" rx="0" ry="0" x="-79.7890625" y="-33.5" width="159.578125" height="67"/><g class="label" style="" transform="translate(0, -26)"><rect/><text style=""><tspan xml:space="preserve" dy="1em" x="0" class="row">செயலி நிரலாக்க</tspan><tspan xml:space="preserve" dy="1em" x="0" class="row">இடைமுகம்</tspan><tspan xml:space="preserve" dy="1em" x="0" class="row">(API)</tspan></text></g></g><g class="node default default flowchart-label" id="flowchart-CODE-11" data-node="true" data-id="CODE" transform="translate(401.10546875, 251.5)"><rect class="basic label-container" style="fill:#e8f5e9;stroke:#1a4d2e;" rx="0" ry="0" x="-31.96484375" y="-25.5" width="63.9296875" height="51"/><g class="label" style="" transform="translate(0, -18)"><rect/><text style=""><tspan xml:space="preserve" dy="1em" x="0" class="row">நிரல்</tspan><tspan xml:space="preserve" dy="1em" x="0" class="row">(Code)</tspan></text></g></g><g class="node default default flowchart-label" id="flowchart-DEBUG-13" data-node="true" data-id="DEBUG" transform="translate(558.8046875, 251.5)"><rect class="basic label-container" style="fill:#e8f5e9;stroke:#1a4d2e;" rx="0" ry="0" x="-75.734375" y="-25.5" width="151.46875" height="51"/><g class="label" style="" transform="translate(0, -18)"><rect/><text style=""><tspan xml:space="preserve" dy="1em" x="0" class="row">பிழைத்திருத்தம்</tspan><tspan xml:space="preserve" dy="1em" x="0" class="row">(Debugging)</tspan></text></g></g><g class="node default default flowchart-label" id="flowchart-ASYNC-15" data-node="true" data-id="ASYNC" transform="translate(748.21875, 251.5)"><rect class="basic label-container" style="fill:#e8f5e9;stroke:#1a4d2e;" rx="0" ry="0" x="-63.6796875" y="-25.5" width="127.359375" height="51"/><g class="label" style="" transform="translate(0, -18)"><rect/><text style=""><tspan xml:space="preserve" dy="1em" x="0" class="row">ஒத்தியங்கா /</tspan><tspan xml:space="preserve" dy="1em" x="0" class="row">ஒத்தியங்கு</tspan></text></g></g><g class="node default default flowchart-label" id="flowchart-CC-17" data-node="true" data-id="CC" transform="translate(935.359375, 251.5)"><rect class="basic label-container" style="fill:#e3f2fd;stroke:#1a4d2e;" rx="0" ry="0" x="-73.4609375" y="-25.5" width="146.921875" height="51"/><g class="label" style="" transform="translate(0, -18)"><rect/><text style=""><tspan xml:space="preserve" dy="1em" x="0" class="row">முகில் கணிமை</tspan><tspan xml:space="preserve" dy="1em" x="0" class="row">(Cloud)</tspan></text></g></g><g class="node default default flowchart-label" id="flowchart-EDGE-19" data-node="true" data-id="EDGE" transform="translate(1126.3046875, 251.5)"><rect class="basic label-container" style="fill:#e3f2fd;stroke:#1a4d2e;" rx="0" ry="0" x="-67.484375" y="-25.5" width="134.96875" height="51"/><g class="label" style="" transform="translate(0, -18)"><rect/><text style=""><tspan xml:space="preserve" dy="1em" x="0" class="row">விளிம்புநிலை</tspan><tspan xml:space="preserve" dy="1em" x="0" class="row">(Edge AI)</tspan></text></g></g><g class="node default default flowchart-label" id="flowchart-ONDEV-21" data-node="true" data-id="ONDEV" transform="translate(1297.9140625, 251.5)"><rect class="basic label-container" style="fill:#e3f2fd;stroke:#1a4d2e;" rx="0" ry="0" x="-54.125" y="-25.5" width="108.25" height="51"/><g class="label" style="" transform="translate(0, -18)"><rect/><text style=""><tspan xml:space="preserve" dy="1em" x="0" class="row">கருவியகம்</tspan><tspan xml:space="preserve" dy="1em" x="0" class="row">(On-device)</tspan></text></g></g><g class="node default default flowchart-label" id="flowchart-IOT-23" data-node="true" data-id="IOT" transform="translate(1471.59765625, 251.5)"><rect class="basic label-container" style="fill:#e3f2fd;stroke:#1a4d2e;" rx="0" ry="0" x="-69.55859375" y="-33.5" width="139.1171875" height="67"/><g class="label" style="" transform="translate(0, -26)"><rect/><text style=""><tspan xml:space="preserve" dy="1em" x="0" class="row">பொருள்களின்</tspan><tspan xml:space="preserve" dy="1em" x="0" class="row">பிணையம்</tspan><tspan xml:space="preserve" dy="1em" x="0" class="row">(IoT)</tspan></text></g></g><g class="node default default flowchart-label" id="flowchart-DC-25" data-node="true" data-id="DC" transform="translate(1650.2109375, 251.5)"><rect class="basic label-container" style="fill:#e3f2fd;stroke:#1a4d2e;" rx="0" ry="0" x="-59.0546875" y="-25.5" width="118.109375" height="51"/><g class="label" style="" transform="translate(0, -18)"><rect/><text style=""><tspan xml:space="preserve" dy="1em" x="0" class="row">தரவு நடுவம்</tspan><tspan xml:space="preserve" dy="1em" x="0" class="row">(Data Centre)</tspan></text></g></g><g class="node default default flowchart-label" id="flowchart-IMG-27" data-node="true" data-id="IMG" transform="translate(1818.6953125, 251.5)"><rect class="basic label-container" style="fill:#e8f5e9;stroke:#1a4d2e;" rx="0" ry="0" x="-59.4296875" y="-25.5" width="118.859375" height="51"/><g class="label" style="" transform="translate(0, -18)"><rect/><text style=""><tspan xml:space="preserve" dy="1em" x="0" class="row">படவியற்றல்</tspan><tspan xml:space="preserve" dy="1em" x="0" class="row">(Image Gen)</tspan></text></g></g><g class="node default default flowchart-label" id="flowchart-OCR-29" data-node="true" data-id="OCR" transform="translate(1998.8359375, 251.5)"><rect class="basic label-container" style="fill:#e8f5e9;stroke:#1a4d2e;" rx="0" ry="0" x="-70.7109375" y="-33.5" width="141.421875" height="67"/><g class="label" style="" transform="translate(0, -26)"><rect/><text style=""><tspan xml:space="preserve" dy="1em" x="0" class="row">ஒளியியல்</tspan><tspan xml:space="preserve" dy="1em" x="0" class="row">எழுத்துணர்தல்</tspan><tspan xml:space="preserve" dy="1em" x="0" class="row">(OCR)</tspan></text></g></g><g class="node default default flowchart-label" id="flowchart-FACE-31" data-node="true" data-id="FACE" transform="translate(2169.015625, 251.5)"><rect class="basic label-container" style="fill:#e8f5e9;stroke:#1a4d2e;" rx="0" ry="0" x="-49.46875" y="-25.5" width="98.9375" height="51"/><g class="label" style="" transform="translate(0, -18)"><rect/><text style=""><tspan xml:space="preserve" dy="1em" x="0" class="row">முகபாவம்</tspan><tspan xml:space="preserve" dy="1em" x="0" class="row">அறிதல்</tspan></text></g></g><g class="node default default flowchart-label" id="flowchart-SAM-33" data-node="true" data-id="SAM" transform="translate(2334.84375, 251.5)"><rect class="basic label-container" style="fill:#e8f5e9;stroke:#1a4d2e;" rx="0" ry="0" x="-66.359375" y="-33.5" width="132.71875" height="67"/><g class="label" style="" transform="translate(0, -26)"><rect/><text style=""><tspan xml:space="preserve" dy="1em" x="0" class="row">கூறு ஏதேனும்</tspan><tspan xml:space="preserve" dy="1em" x="0" class="row">மாதிரி</tspan><tspan xml:space="preserve" dy="1em" x="0" class="row">(SAM)</tspan></text></g></g></g></g></g></svg>